<svg xmlns="http://www.w3.org/2000/svg" xmlns:xlink="http://www.w3.org/1999/xlink" width="115" height="115" viewBox="0 0 115 115">
  <defs>
    <clipPath id="clip-path">
      <rect id="Rectangle_411892" data-name="Rectangle 411892" width="115" height="115" transform="translate(800.781 1954)" fill="#e8bad8" opacity="0.41"/>
    </clipPath>
    <clipPath id="clip-path-2">
      <rect id="Rectangle_411893" data-name="Rectangle 411893" width="94" height="97" transform="translate(-8828 -7758)" fill="#fff" stroke="#707070" stroke-width="1" opacity="0"/>
    </clipPath>
  </defs>
  <g id="Group_1204097" data-name="Group 1204097" transform="translate(8839 7767)">
    <g id="Group_1204101" data-name="Group 1204101">
      <g id="Mask_Group_1099465" data-name="Mask Group 1099465" transform="translate(-9639.781 -9721)" clip-path="url(#clip-path)">
        <g id="Group_1204100" data-name="Group 1204100" transform="translate(799.781 1960.273)">
          <g id="Group_1204099" data-name="Group 1204099" transform="translate(1)">
            <ellipse id="Ellipse_12740" data-name="Ellipse 12740" cx="28.658" cy="28.658" rx="28.658" ry="28.658" transform="translate(56.527 44.289)" fill="#b8b1fc"/>
            <ellipse id="Ellipse_12741" data-name="Ellipse 12741" cx="20.842" cy="20.842" rx="20.842" ry="20.842" fill="#b8b1fc"/>
          </g>
        </g>
      </g>
      <g id="Mask_Group_1099466" data-name="Mask Group 1099466" clip-path="url(#clip-path-2)">
        <g id="mareado" transform="translate(-8829.5 -7758)">
          <g id="Group_1204103" data-name="Group 1204103">
            <path id="Path_1269498" data-name="Path 1269498" d="M25.171,32.1A32.053,32.053,0,0,1,19.8,14.031a13.777,13.777,0,0,0,5.885,0c5.408-1.458,10.728-12.187,20.1-12.5S56.979,5.594,56.979,5.594a14.244,14.244,0,0,1,8.6-1.354c7.708,1.042,14.478,12.784,7.6,28.916" fill="#565e75"/>
            <path id="Path_1269499" data-name="Path 1269499" d="M64.63,25.714c-3.346-3.087-7.071-8.428-8.568-10.658a.948.948,0,0,0-1.489-.1C47.025,23.2,37.247,25.943,32.871,26.8a2.838,2.838,0,0,0-2.292,2.788v8.826a17.921,17.921,0,1,0,35.843,0V29.856a5.629,5.629,0,0,0-1.792-4.142Z" fill="#fdd4bb"/>
            <path id="Path_1269500" data-name="Path 1269500" d="M48.5,52.923A17.921,17.921,0,0,1,30.579,35v3.41a17.921,17.921,0,0,0,35.843,0V35A17.922,17.922,0,0,1,48.5,52.923Z" fill="#f7c4a8"/>
            <path id="Path_1269501" data-name="Path 1269501" d="M30.579,38.411V32.082a5.582,5.582,0,1,0,.3,9.608,18.029,18.029,0,0,1-.3-3.279Z" fill="#ebbaa1"/>
            <path id="Path_1269502" data-name="Path 1269502" d="M66.422,38.411V32.082a5.582,5.582,0,1,1-.3,9.608,18.012,18.012,0,0,0,.3-3.279Z" fill="#ebbaa1"/>
            <path id="Path_1269503" data-name="Path 1269503" d="M27.894,39.147a5.583,5.583,0,0,1-5.315-3.876,5.581,5.581,0,0,0,8.3,6.42,18.028,18.028,0,0,1-.3-3.234,5.548,5.548,0,0,1-2.686.691Z" fill="#e8a990"/>
            <path id="Path_1269504" data-name="Path 1269504" d="M69.107,39.147a5.548,5.548,0,0,1-2.686-.691,18.01,18.01,0,0,1-.3,3.234,5.582,5.582,0,0,0,8.3-6.42,5.583,5.583,0,0,1-5.315,3.876Z" fill="#e8a990"/>
            <path id="Path_1269505" data-name="Path 1269505" d="M56.894,54.248a17.941,17.941,0,0,1-16.787,0,26.677,26.677,0,0,0-21.176,26.1V95.484H78.07V80.349a26.677,26.677,0,0,0-21.177-26.1Z" fill="#adf0ff"/>
            <path id="Path_1269506" data-name="Path 1269506" d="M18.93,92.074H78.07v3.41H18.93Z" fill="#8deaf5"/>
            <path id="Path_1269507" data-name="Path 1269507" d="M48.5,56.333a17.842,17.842,0,0,1-8.45-2.114c-.017.22-.029.442-.029.667a8.478,8.478,0,1,0,16.956,0c0-.225-.011-.447-.029-.667A17.839,17.839,0,0,1,48.5,56.333Z" fill="#ebbaa1"/>
            <path id="Path_1269508" data-name="Path 1269508" d="M64.483,86.839H78.07v8.645H64.483Z" fill="#fdd4bb"/>
            <path id="Path_1269509" data-name="Path 1269509" d="M18.93,86.839H32.518v8.645H18.93Z" transform="translate(51.448 182.323) rotate(180)" fill="#fdd4bb"/>
            <path id="Path_1269510" data-name="Path 1269510" d="M64.483,92.074H78.07v3.41H64.483Z" fill="#f7c4a8"/>
            <path id="Path_1269511" data-name="Path 1269511" d="M18.93,92.074H32.518v3.41H18.93Z" transform="translate(51.448 187.558) rotate(180)" fill="#f7c4a8"/>
            <g id="Group_1204102" data-name="Group 1204102">
              <circle id="Ellipse_12742" data-name="Ellipse 12742" cx="3.429" cy="3.429" r="3.429" transform="translate(5.533 32.054) rotate(-45)" fill="#ffde91"/>
              <circle id="Ellipse_12743" data-name="Ellipse 12743" cx="3.429" cy="3.429" r="3.429" transform="translate(82.472 25.388) rotate(-13.3)" fill="#ffde91"/>
            </g>
          </g>
          <g id="Group_1204104" data-name="Group 1204104">
            <path id="Path_1269512" data-name="Path 1269512" d="M40.4,94.15H33.912V78.773a1.425,1.425,0,0,0-2.85,0v6.715H20.3V80.411A25.3,25.3,0,0,1,38.654,56.083a9.917,9.917,0,0,0,19.693,0A25.242,25.242,0,0,1,69,62.234a1.425,1.425,0,0,0,1.982-2.048A28.1,28.1,0,0,0,60.346,53.72a19.44,19.44,0,0,0,6.8-10.042,7.012,7.012,0,0,0,7.713-10.79,36.239,36.239,0,0,0,2.457-9.451c8.755-2.356,10.793-5.322,10.793-7.57,0-2.648-2.708-4.912-8.048-6.729a1.425,1.425,0,1,0-.918,2.7c4.514,1.536,6.116,3.131,6.116,4.031,0,.933-1.779,2.813-7.758,4.556A21.63,21.63,0,0,0,74.879,9.5c-2.161-3.8-5.47-6.266-9.078-6.753a16.489,16.489,0,0,0-8.317.968,8.333,8.333,0,0,0-1.8-1.546C53.274.6,49.925-.123,45.734.016c-3.48.116-6.752,1.491-10.3,4.327a1.425,1.425,0,0,0,1.78,2.225c3.04-2.433,5.776-3.609,8.611-3.7,7.849-.261,9.729,2.969,9.857,3.209a1.36,1.36,0,0,0,.838.806,1.412,1.412,0,0,0,1.194-.14,13.072,13.072,0,0,1,7.7-1.173c2.719.367,5.264,2.312,6.982,5.337a19.387,19.387,0,0,1,2.242,10.264c-1.2.279-2.525.549-3.987.807a1.425,1.425,0,1,0,.494,2.807c1.145-.2,2.215-.412,3.216-.63a33,33,0,0,1-1.769,6.7,6.973,6.973,0,0,0-4.717-.794V29.82a7.08,7.08,0,0,0-2.254-5.2c-3.253-3-6.935-8.29-8.367-10.425a2.374,2.374,0,0,0-3.726-.273C46.15,21.989,36.412,24.607,32.568,25.357a4.277,4.277,0,0,0-3.448,4.192v.5a6.964,6.964,0,0,0-3.461.237,30.88,30.88,0,0,1-2.833-6.1c1.082.231,2.242.454,3.488.667A1.423,1.423,0,0,0,27.958,23.7a1.425,1.425,0,0,0-1.165-1.644c-1.818-.311-3.43-.641-4.86-.983a29.909,29.909,0,0,1-.743-5.438,13.709,13.709,0,0,0,4.819-.292c2.491-.672,4.82-2.893,7.073-5.041a1.425,1.425,0,1,0-1.967-2.063c-1.994,1.9-4.057,3.869-5.848,4.352a12.438,12.438,0,0,1-5.2-.01,1.425,1.425,0,0,0-1.755,1.365,32.386,32.386,0,0,0,.529,6.289c-5.452-1.683-7.108-3.457-7.108-4.363,0-.745,1.034-1.73,2.765-2.636a37.713,37.713,0,0,1,9.17-2.953,1.425,1.425,0,1,0-.592-2.788c-9.418,2-14.193,4.818-14.193,8.377,0,2.25,2.033,5.2,10.7,7.547a33.765,33.765,0,0,0,3.6,8.3,7.013,7.013,0,0,0,6.666,11.959,19.441,19.441,0,0,0,6.8,10.042A28.15,28.15,0,0,0,17.448,80.41V95.574A1.425,1.425,0,0,0,18.873,97H40.4a1.425,1.425,0,1,0,0-2.85Zm8.1-32.182a7.08,7.08,0,0,1-6.882-5.458,19.371,19.371,0,0,0,13.764,0A7.08,7.08,0,0,1,48.5,61.968ZM69.147,32.787a4.167,4.167,0,1,1-1.423,8.083,19.477,19.477,0,0,0,.158-2.477V32.984A4.182,4.182,0,0,1,69.147,32.787ZM27.854,41.121a4.167,4.167,0,1,1,1.265-8.137v5.408a19.478,19.478,0,0,0,.158,2.477,4.158,4.158,0,0,1-1.423.251Zm4.115-2.728V29.549a1.422,1.422,0,0,1,1.145-1.395c4.051-.791,14.214-3.521,22.116-11.87A67.873,67.873,0,0,0,63.7,26.718a4.222,4.222,0,0,1,1.336,3.1v8.572a16.531,16.531,0,1,1-33.062,0ZM31.062,94.15H20.3V88.338H31.062Z"/>
            <path id="Path_1269513" data-name="Path 1269513" d="M72.382,63.8a1.425,1.425,0,0,0-.337,1.987A25.123,25.123,0,0,1,76.7,80.411v5.077H65.939V78.772a1.425,1.425,0,1,0-2.85,0V94.149H46.094a1.425,1.425,0,0,0,0,2.85H78.127a1.425,1.425,0,0,0,1.425-1.425V80.411a27.956,27.956,0,0,0-5.183-16.278,1.424,1.424,0,0,0-1.987-.336ZM76.7,94.15H65.939V88.338H76.7V94.15Z"/>
            <path id="Path_1269514" data-name="Path 1269514" d="M41.128,43.239a1.425,1.425,0,0,0,2.215,1.793A2.108,2.108,0,0,1,44.5,44.3a4.213,4.213,0,0,1,.476.413,4.677,4.677,0,0,0,7.041,0A4.213,4.213,0,0,1,52.5,44.3a2.106,2.106,0,0,1,1.158.726,1.425,1.425,0,0,0,2.217-1.791,4.814,4.814,0,0,0-3.418-1.786,3.431,3.431,0,0,0-2.394,1.2c-.567.537-.894.817-1.561.817s-.994-.28-1.561-.817a3.43,3.43,0,0,0-2.393-1.2,4.814,4.814,0,0,0-3.418,1.786Z"/>
            <path id="Path_1269515" data-name="Path 1269515" d="M37.044,36.807a1.425,1.425,0,0,0,2.015,0l.753-.753.753.753a1.425,1.425,0,1,0,2.015-2.015l-.753-.753.753-.753a1.425,1.425,0,1,0-2.015-2.015l-.753.753-.753-.753a1.425,1.425,0,1,0-2.015,2.015l.753.753-.753.753A1.425,1.425,0,0,0,37.044,36.807Z"/>
            <path id="Path_1269516" data-name="Path 1269516" d="M54.421,36.807a1.425,1.425,0,0,0,2.015,0l.753-.753.753.753a1.425,1.425,0,0,0,2.015-2.015l-.753-.753.753-.753a1.425,1.425,0,0,0-2.015-2.015l-.753.753-.753-.753a1.425,1.425,0,1,0-2.015,2.015l.753.753-.753.753A1.425,1.425,0,0,0,54.421,36.807Z"/>
            <path id="Path_1269517" data-name="Path 1269517" d="M10.314,27.163a4.861,4.861,0,1,0,4.861,4.861A4.867,4.867,0,0,0,10.314,27.163Zm0,6.872a2.011,2.011,0,1,1,2.011-2.011A2.014,2.014,0,0,1,10.314,34.036Z"/>
            <path id="Path_1269518" data-name="Path 1269518" d="M86.686,23.064a4.861,4.861,0,1,0,4.861,4.861A4.867,4.867,0,0,0,86.686,23.064Zm0,6.873A2.011,2.011,0,1,1,88.7,27.925,2.014,2.014,0,0,1,86.686,29.937Z"/>
          </g>
        </g>
      </g>
    </g>
  </g>
</svg>
