<svg xmlns="http://www.w3.org/2000/svg" xmlns:xlink="http://www.w3.org/1999/xlink" width="115" height="115" viewBox="0 0 115 115">
  <defs>
    <clipPath id="clip-path">
      <rect id="Rectangle_411896" data-name="Rectangle 411896" width="115" height="115" transform="translate(800.781 1954)" fill="#e8bad8" opacity="0.41"/>
    </clipPath>
    <clipPath id="clip-path-2">
      <rect id="Rectangle_411899" data-name="Rectangle 411899" width="95" height="95" transform="translate(-6872 -7867)" fill="#fff" stroke="#707070" stroke-width="1" opacity="0"/>
    </clipPath>
  </defs>
  <g id="Group_1204116" data-name="Group 1204116" transform="translate(6882 7877)">
    <g id="Group_1204118" data-name="Group 1204118">
      <g id="Mask_Group_1099469" data-name="Mask Group 1099469" transform="translate(-7682.781 -9831)" clip-path="url(#clip-path)">
        <g id="Group_1204110" data-name="Group 1204110" transform="translate(799.781 1960.273)">
          <g id="Group_1204109" data-name="Group 1204109" transform="translate(1)">
            <ellipse id="Ellipse_12746" data-name="Ellipse 12746" cx="28.658" cy="28.658" rx="28.658" ry="28.658" transform="translate(56.527 44.289)" fill="#b8b1fc"/>
            <ellipse id="Ellipse_12747" data-name="Ellipse 12747" cx="20.842" cy="20.842" rx="20.842" ry="20.842" fill="#b8b1fc"/>
          </g>
        </g>
      </g>
      <g id="Mask_Group_1099472" data-name="Mask Group 1099472" clip-path="url(#clip-path-2)">
        <g id="reloj-de-arena" transform="translate(-6872 -7867)">
          <g id="Group_1204117" data-name="Group 1204117">
            <path id="Path_1269548" data-name="Path 1269548" d="M8.488,84.693v-.866c0-11.5,6.03-24.164,15.247-31.152a6.539,6.539,0,0,0,0-10.352C14.518,35.336,8.488,22.67,8.488,11.172v-.866H64.933v.866c0,11.5-6.03,24.164-15.247,31.152a6.539,6.539,0,0,0,0,10.352C58.9,59.663,64.933,72.33,64.933,83.828v.866H8.488Z" fill="#f7f9fa" fill-rule="evenodd"/>
            <path id="Path_1269549" data-name="Path 1269549" d="M36.71,10.306H64.933v.866c0,11.5-6.03,24.164-15.247,31.152a6.539,6.539,0,0,0,0,10.352C58.9,59.663,64.933,72.329,64.933,83.828v.866H36.71Z" fill="#e3e3e3" fill-rule="evenodd"/>
            <path id="Path_1269550" data-name="Path 1269550" d="M6.059,10.634h61.3a4.588,4.588,0,0,0,4.575-4.575V1.484H1.484V6.059a4.589,4.589,0,0,0,4.575,4.575Z" fill="#ffc107" fill-rule="evenodd"/>
            <path id="Path_1269551" data-name="Path 1269551" d="M36.71,10.634H67.362a4.588,4.588,0,0,0,4.575-4.575V1.484H36.711Z" fill="#ffa000" fill-rule="evenodd"/>
            <path id="Path_1269552" data-name="Path 1269552" d="M1.484,93.515H71.937V88.94a4.588,4.588,0,0,0-4.575-4.575H6.059A4.588,4.588,0,0,0,1.484,88.94Z" fill="#ffc107" fill-rule="evenodd"/>
            <path id="Path_1269553" data-name="Path 1269553" d="M36.71,93.515H71.937V88.94a4.588,4.588,0,0,0-4.575-4.575H36.71Z" fill="#ffa000" fill-rule="evenodd"/>
            <path id="Path_1269554" data-name="Path 1269554" d="M40.022,73.551c4.494,2.086,8.23,6.118,10.824,10.813H22.576c2.594-4.7,6.33-8.728,10.825-10.813l3.31-1.67Z" fill="#697c86" fill-rule="evenodd"/>
            <path id="Path_1269555" data-name="Path 1269555" d="M36.71,77.134V71.882l3.311,1.67c4.494,2.086,8.23,6.118,10.824,10.813H36.71Z" fill="#373c41" fill-rule="evenodd"/>
            <path id="Path_1269556" data-name="Path 1269556" d="M32.783,36.117a25.261,25.261,0,0,1-9.992-10.128C35.236,28.429,40.756,15.081,52,23.306,49.531,28.735,45.566,33.6,40.639,36.117l-3.9,1.844Z" fill="#4b5055" fill-rule="evenodd"/>
            <path id="Path_1269557" data-name="Path 1269557" d="M36.71,23.014c4.759-2.276,9.18-4.177,15.291.292C49.531,28.735,45.566,33.6,40.639,36.117L36.71,37.961V23.014Z" fill="#373c41" fill-rule="evenodd"/>
            <circle id="Ellipse_12750" data-name="Ellipse 12750" cx="23.421" cy="23.421" r="23.421" transform="translate(46.672 46.673)" fill="#ffd944"/>
            <path id="Path_1269558" data-name="Path 1269558" d="M70.094,46.673a23.421,23.421,0,0,1,0,46.843Z" fill="#ffc107" fill-rule="evenodd"/>
          </g>
          <path id="Path_1269559" data-name="Path 1269559" d="M79.844,78.515a2.718,2.718,0,1,0-2.718,2.718A2.72,2.72,0,0,0,79.844,78.515Zm2.969,0a5.687,5.687,0,1,1-5.687-5.687A5.694,5.694,0,0,1,82.813,78.515Zm-3-21.853a1.483,1.483,0,0,1,.34,2.071l-17.7,24.636a1.5,1.5,0,0,1-2.072.34,1.485,1.485,0,0,1-.34-2.073L77.746,57A1.483,1.483,0,0,1,79.817,56.662ZM63.063,64.39a2.718,2.718,0,1,0-2.718-2.719A2.721,2.721,0,0,0,63.063,64.39Zm0,2.968a5.687,5.687,0,1,0-5.686-5.687A5.693,5.693,0,0,0,63.063,67.359Zm28.968,2.735A21.937,21.937,0,1,1,70.094,48.157,21.963,21.963,0,0,1,92.031,70.094ZM58.312,92.031a25.048,25.048,0,0,1-7.49-6.181H6.06a3.093,3.093,0,0,0-3.091,3.089v3.092H58.312ZM34.593,74.647a21.818,21.818,0,0,0-9.38,8.235H48.207a21.814,21.814,0,0,0-9.38-8.235A13.3,13.3,0,0,1,36.71,73.53,13.2,13.2,0,0,1,34.593,74.647ZM10.316,82.882h11.4c3.048-5.2,7.189-9.077,11.735-10.974a10.423,10.423,0,0,0,1.776-.956v-6.9a1.484,1.484,0,1,1,2.968,0v6.9a10.277,10.277,0,0,0,1.776.954,21.4,21.4,0,0,1,5.837,3.712,24.872,24.872,0,0,1,4.254-20.306c-.484-.416-.976-.816-1.471-1.193a8.353,8.353,0,0,1,0-13.241c8.446-6.4,14.2-17.858,14.514-28.761H10.316c.318,10.9,6.07,22.358,14.514,28.761a8.348,8.348,0,0,1,0,13.241c-8.444,6.4-14.2,17.86-14.514,28.762ZM6.06,9.149h61.3a3.094,3.094,0,0,0,3.089-3.09V2.969H2.969V6.06A3.094,3.094,0,0,0,6.06,9.149ZM95,70.094A24.933,24.933,0,0,1,70.094,95H1.484A1.484,1.484,0,0,1,0,93.515V88.939a6.066,6.066,0,0,1,6.06-6.058H7.348C7.666,71.1,13.89,58.69,23.038,51.755a5.383,5.383,0,0,0,0-8.509C13.89,36.31,7.666,23.9,7.348,12.118H6.06A6.066,6.066,0,0,1,0,6.059V1.484A1.484,1.484,0,0,1,1.484,0H71.936A1.483,1.483,0,0,1,73.42,1.484V6.06a6.065,6.065,0,0,1-6.058,6.058H66.073C65.754,23.9,59.533,36.31,50.385,43.245a5.382,5.382,0,0,0,0,8.509c.532.4,1.061.835,1.581,1.28A24.893,24.893,0,0,1,95,70.094ZM34.593,35.322a21.433,21.433,0,0,1-8.9-7.546l.169,0c4.352,0,7.876-1.69,11.059-3.218,4.523-2.169,8.155-3.911,13.2-.746-2.756,5.485-6.819,9.645-11.285,11.509a13.279,13.279,0,0,0-2.117,1.115,13.36,13.36,0,0,0-2.117-1.117ZM33.45,38.063C28.81,36.126,24.566,32.1,21.5,26.724a1.484,1.484,0,0,1,1.575-2.191c4.993.979,8.838-.865,12.556-2.648,5.03-2.412,10.231-4.908,17.247.222a1.484,1.484,0,0,1,.473,1.813C50.3,30.633,45.42,35.788,39.971,38.063a10.334,10.334,0,0,0-1.776.956v3.723a1.484,1.484,0,1,1-2.968,0V39.019A10.143,10.143,0,0,0,33.45,38.063Zm4.745,12.1v2.015a1.484,1.484,0,0,1-2.968,0V50.159a1.484,1.484,0,1,1,2.968,0Z" fill-rule="evenodd"/>
        </g>
      </g>
    </g>
  </g>
</svg>
