<svg xmlns="http://www.w3.org/2000/svg" xmlns:xlink="http://www.w3.org/1999/xlink" width="90" height="90" viewBox="0 0 90 90">
  <defs>
    <clipPath id="clip-path">
      <rect id="Rectangle_411910" data-name="Rectangle 411910" width="90" height="90" fill="#e8bad8" opacity="0.41"/>
    </clipPath>
    <clipPath id="clip-path-2">
      <rect id="Rectangle_411911" data-name="Rectangle 411911" width="73.425" height="74.982" fill="#fff" stroke="#707070" stroke-width="1" opacity="0"/>
    </clipPath>
  </defs>
  <g id="Group_1204140" data-name="Group 1204140" transform="translate(6775 4512.905)">
    <g id="Group_1204143" data-name="Group 1204143" transform="translate(-6775 -4512.905)">
      <g id="Mask_Group_1099480" data-name="Mask Group 1099480" transform="translate(0 0)" clip-path="url(#clip-path)">
        <g id="Group_1204141" data-name="Group 1204141" transform="translate(0 4.909)">
          <g id="Group_1204140-2" data-name="Group 1204140" transform="translate(0)">
            <ellipse id="Ellipse_12761" data-name="Ellipse 12761" cx="22.428" cy="22.428" rx="22.428" ry="22.428" transform="translate(44.238 34.661)" fill="#b8b1fc"/>
            <ellipse id="Ellipse_12762" data-name="Ellipse 12762" cx="16.311" cy="16.311" rx="16.311" ry="16.311" fill="#b8b1fc"/>
          </g>
        </g>
      </g>
      <g id="Mask_Group_1099481" data-name="Mask Group 1099481" transform="translate(7.893 7.818)" clip-path="url(#clip-path-2)">
        <g id="objetivo" transform="translate(2.653)">
          <path id="Path_1269599" data-name="Path 1269599" d="M22.563,73.908H61.987a2.914,2.914,0,0,0,2.9-2.929V15.18L51.7,1.855H8.651a2.914,2.914,0,0,0-2.9,2.929V70.979a2.914,2.914,0,0,0,2.9,2.929Z" transform="translate(-4.303 -0.391)" fill="#fff"/>
          <path id="Path_1269600" data-name="Path 1269600" d="M64.571,2.072V12.3a2.914,2.914,0,0,0,2.9,2.929H77.591Z" transform="translate(-17.177 -0.437)" fill="#fec96b"/>
          <ellipse id="Ellipse_12763" data-name="Ellipse 12763" cx="22.465" cy="22.26" rx="22.465" ry="22.26" transform="translate(8.551 15.231)" fill="#ff5d5d"/>
          <ellipse id="Ellipse_12764" data-name="Ellipse 12764" cx="15.37" cy="15.231" rx="15.37" ry="15.231" transform="translate(15.645 22.26)" fill="#fff"/>
          <ellipse id="Ellipse_12765" data-name="Ellipse 12765" cx="8.276" cy="8.201" rx="8.276" ry="8.201" transform="translate(22.74 29.29)" fill="#ff8e8e"/>
          <path id="Path_1269601" data-name="Path 1269601" d="M83.01,81.12l-5.889-.006-9.286-9.383,9.631.01,6.64,6.71A1.566,1.566,0,0,1,83.01,81.12Z" transform="translate(-17.892 -15.115)" fill="#a0e557"/>
          <path id="Path_1269602" data-name="Path 1269602" d="M77.127,87.065l-.006-5.951-9.286-9.383.01,9.732,6.64,6.71A1.546,1.546,0,0,0,77.127,87.065Z" transform="translate(-17.892 -15.115)" fill="#c1ee92"/>
          <path id="Path_1269603" data-name="Path 1269603" d="M53.464,72.053H8.245A1.459,1.459,0,0,1,6.8,70.588V9.959h10.1a1.465,1.465,0,0,0,0-2.929H6.8V4.393A1.459,1.459,0,0,1,8.245,2.929h41.6v8.933a4.376,4.376,0,0,0,4.348,4.393H63.03V44.374a1.449,1.449,0,1,0,2.9,0V14.789a1.473,1.473,0,0,0-.425-1.036L52.315.429A1.441,1.441,0,0,0,51.29,0H8.245A4.376,4.376,0,0,0,3.9,4.393V70.588a4.376,4.376,0,0,0,4.348,4.393H53.464a1.465,1.465,0,0,0,0-2.929ZM52.74,11.862V5l8.242,8.327H54.189A1.459,1.459,0,0,1,52.74,11.862Z" transform="translate(-3.897)"/>
          <path id="Path_1269604" data-name="Path 1269604" d="M81.05,61.323a1.453,1.453,0,0,0-1.025.429,1.475,1.475,0,0,0,0,2.071,1.438,1.438,0,0,0,2.049,0,1.474,1.474,0,0,0,0-2.071A1.452,1.452,0,0,0,81.05,61.323Z" transform="translate(-20.467 -12.922)"/>
          <path id="Path_1269605" data-name="Path 1269605" d="M72.366,65.126l-6.64-6.71a1.442,1.442,0,0,0-1.023-.429l-9.031-.01L53.9,56.189A23.538,23.538,0,0,0,60.01,41.781h1.312a1.465,1.465,0,0,0,0-2.929H60.01A23.853,23.853,0,0,0,37.592,16.637V14.875a1.449,1.449,0,1,0-2.9,0v1.762A23.853,23.853,0,0,0,12.275,38.852H10.964a1.465,1.465,0,0,0,0,2.929h1.312A23.853,23.853,0,0,0,34.693,64v1.762a1.449,1.449,0,1,0,2.9,0V64a23.914,23.914,0,0,0,14.222-5.774l1.807,1.826.01,9.126a1.473,1.473,0,0,0,.425,1.034l6.64,6.71a2.964,2.964,0,0,0,3.268.656,3.02,3.02,0,0,0,1.849-2.8h0l0-4.483,4.436,0h0a2.988,2.988,0,0,0,2.768-1.868A3.042,3.042,0,0,0,72.366,65.126ZM51.849,54.117l-2.927-2.958A16.562,16.562,0,0,0,52.9,41.781H57.1A20.6,20.6,0,0,1,51.849,54.117Zm-7.925-8.008a9.576,9.576,0,0,0,1.944-5.792,9.717,9.717,0,1,0-4.029,7.827l2.935,2.966a13.731,13.731,0,1,1,5.29-10.793,13.612,13.612,0,0,1-3.2,8.767ZM37.186,39.3a1.439,1.439,0,0,0-2.05,0,1.476,1.476,0,0,0,0,2.071l4.614,4.662a6.718,6.718,0,1,1,3.22-5.716,6.632,6.632,0,0,1-1.122,3.694ZM57.1,38.852H52.9A16.785,16.785,0,0,0,37.592,23.684V19.571A20.938,20.938,0,0,1,57.1,38.852ZM34.693,19.571v4.113A16.785,16.785,0,0,0,19.388,38.852H15.18A20.938,20.938,0,0,1,34.693,19.571ZM15.18,41.781h4.208A16.785,16.785,0,0,0,34.693,56.949v4.113A20.938,20.938,0,0,1,15.18,41.781ZM37.592,61.062V56.949a16.811,16.811,0,0,0,9.245-3.755l2.92,2.951A21.04,21.04,0,0,1,37.592,61.062Zm25.26,13.807a.079.079,0,0,1-.107-.022l-6.216-6.281-.006-5.585.212.214h0l6.172,6.237.006,5.345A.081.081,0,0,1,62.852,74.869Zm7.485-7.563c-.025.061-.058.064-.091.061l-5.29-.006L58.572,60.91l5.527.006L70.316,67.2A.082.082,0,0,1,70.337,67.305Z" transform="translate(-5.127 -2.826)"/>
          <path id="Path_1269606" data-name="Path 1269606" d="M25.721,9.335a1.475,1.475,0,0,0,0,2.071,1.438,1.438,0,0,0,2.049,0,1.474,1.474,0,0,0,0-2.071,1.438,1.438,0,0,0-2.049,0Z" transform="translate(-8.581 -1.877)"/>
        </g>
      </g>
    </g>
  </g>
</svg>
