<svg xmlns="http://www.w3.org/2000/svg" xmlns:xlink="http://www.w3.org/1999/xlink" width="90" height="90" viewBox="0 0 90 90">
  <defs>
    <clipPath id="clip-path">
      <rect id="Rectangle_411912" data-name="Rectangle 411912" width="90" height="90" transform="translate(0)" fill="#e8bad8" opacity="0.41"/>
    </clipPath>
    <clipPath id="clip-path-2">
      <rect id="Rectangle_411913" data-name="Rectangle 411913" width="73.879" height="73" transform="translate(0)" fill="#fff" stroke="#707070" stroke-width="1" opacity="0"/>
    </clipPath>
  </defs>
  <g id="Group_1204144" data-name="Group 1204144" transform="translate(8563.66 3596.471)">
    <g id="Group_1204161" data-name="Group 1204161" transform="translate(-8563.66 -3596.471)">
      <g id="Mask_Group_1099482" data-name="Mask Group 1099482" transform="translate(0)" clip-path="url(#clip-path)">
        <g id="Group_1204145" data-name="Group 1204145" transform="translate(0 4.909)">
          <g id="Group_1204144-2" data-name="Group 1204144" transform="translate(0)">
            <ellipse id="Ellipse_12766" data-name="Ellipse 12766" cx="22.428" cy="22.428" rx="22.428" ry="22.428" transform="translate(44.238 34.661)" fill="#b8b1fc"/>
            <ellipse id="Ellipse_12767" data-name="Ellipse 12767" cx="16.311" cy="16.311" rx="16.311" ry="16.311" fill="#b8b1fc"/>
          </g>
        </g>
      </g>
      <g id="Mask_Group_1099483" data-name="Mask Group 1099483" transform="translate(7.661 8.592)" clip-path="url(#clip-path-2)">
        <g id="transaction_4079486" transform="translate(0.301 -0.386)">
          <g id="Group_1204159" data-name="Group 1204159" transform="translate(1.186 1.188)">
            <g id="Group_1204147" data-name="Group 1204147" transform="translate(45.075)">
              <path id="Path_1269607" data-name="Path 1269607" d="M59.6,13.623a8.965,8.965,0,0,1-.474-2.911,9.2,9.2,0,0,1,9.181-9.2h7.734a9.2,9.2,0,0,1,9.181,9.2,8.965,8.965,0,0,1-.474,2.911l-.344,1.057a3.554,3.554,0,0,0-2.74-1.283H80.48a2.381,2.381,0,0,0-2.372-2.376H73.162a8.1,8.1,0,0,1-5.729-2.376A5.222,5.222,0,0,0,63.874,13.4H62.688a3.554,3.554,0,0,0-2.74,1.283Z" transform="translate(-59.129 -1.516)" fill="#656d78"/>
            </g>
            <g id="Group_1204148" data-name="Group 1204148" transform="translate(49.82 26.935)">
              <path id="Path_1269608" data-name="Path 1269608" d="M81.8,43.408V44.6H65.194V43.408a8.273,8.273,0,0,1,4.78-7.521c-.012.131-.036.261-.036.392a3.559,3.559,0,1,0,7.117,0c0-.131-.024-.261-.036-.392a7.9,7.9,0,0,1,2.349,1.64A8.274,8.274,0,0,1,81.8,43.408Z" transform="translate(-65.194 -35.887)" fill="#ff826e"/>
            </g>
            <g id="Group_1204149" data-name="Group 1204149" transform="translate(66.427 11.881)">
              <path id="Path_1269609" data-name="Path 1269609" d="M90.346,17.961a3.569,3.569,0,0,1-2.74,5.846H86.419V16.677h1.186a3.554,3.554,0,0,1,2.74,1.283Z" transform="translate(-86.419 -16.677)" fill="#f0d0b4"/>
            </g>
            <g id="Group_1204150" data-name="Group 1204150" transform="translate(54.565 26.139)">
              <path id="Path_1269610" data-name="Path 1269610" d="M74.817,34.871l3.523.8c.012.131.036.261.036.392a3.559,3.559,0,1,1-7.117,0c0-.131.024-.261.036-.392A8.15,8.15,0,0,1,74.817,34.871Z" transform="translate(-71.258 -34.871)" fill="#f0d0b4"/>
            </g>
            <g id="Group_1204151" data-name="Group 1204151" transform="translate(49.82 7.129)">
              <path id="Path_1269611" data-name="Path 1269611" d="M65.194,15.365a5.222,5.222,0,0,1,3.559-4.753,8.1,8.1,0,0,0,5.729,2.376h4.946A2.381,2.381,0,0,1,81.8,15.365v7.129a7.129,7.129,0,0,1-7.117,7.129H72.311a7.129,7.129,0,0,1-7.117-7.129V15.365Z" transform="translate(-65.194 -10.613)" fill="#f0d0b4"/>
            </g>
            <g id="Group_1204152" data-name="Group 1204152" transform="translate(45.075 11.881)">
              <path id="Path_1269612" data-name="Path 1269612" d="M63.874,16.677v7.129H62.688a3.564,3.564,0,1,1,0-7.129Z" transform="translate(-59.129 -16.677)" fill="#f0d0b4"/>
            </g>
            <g id="Group_1204153" data-name="Group 1204153" transform="translate(52.192 52.278)">
              <ellipse id="Ellipse_12768" data-name="Ellipse 12768" cx="9.49" cy="9.505" rx="9.49" ry="9.505" fill="#fcd770"/>
            </g>
            <g id="Group_1204154" data-name="Group 1204154">
              <ellipse id="Ellipse_12769" data-name="Ellipse 12769" cx="9.49" cy="9.505" rx="9.49" ry="9.505" fill="#fcd770"/>
            </g>
            <g id="Group_1204155" data-name="Group 1204155" transform="translate(4.745 51.09)">
              <path id="Path_1269613" data-name="Path 1269613" d="M26.56,69.086v5.941A2.381,2.381,0,0,1,24.187,77.4H7.581V66.71Z" transform="translate(-7.581 -66.71)" fill="#ff826e"/>
            </g>
            <g id="Group_1204156" data-name="Group 1204156" transform="translate(18.979 66.535)">
              <ellipse id="Ellipse_12770" data-name="Ellipse 12770" cx="2.372" cy="2.376" rx="2.372" ry="2.376" fill="#969faa"/>
            </g>
            <g id="Group_1204157" data-name="Group 1204157" transform="translate(4.745 66.535)">
              <ellipse id="Ellipse_12771" data-name="Ellipse 12771" cx="2.372" cy="2.376" rx="2.372" ry="2.376" fill="#969faa"/>
            </g>
            <g id="Group_1204158" data-name="Group 1204158" transform="translate(11.862 16.634)">
              <ellipse id="Ellipse_12772" data-name="Ellipse 12772" cx="18.979" cy="19.01" rx="18.979" ry="19.01" fill="#69d6f4"/>
            </g>
          </g>
          <g id="Group_1204160" data-name="Group 1204160">
            <path id="Path_1269614" data-name="Path 1269614" d="M10.676,21.386A10.693,10.693,0,1,0,0,10.693,10.7,10.7,0,0,0,10.676,21.386Zm8.3-10.693a8.318,8.318,0,0,1-7.117,8.222V16.634a3.564,3.564,0,0,0,0-7.129H9.49a1.188,1.188,0,0,1,0-2.376h2.372a1.188,1.188,0,0,1,1.186,1.188H15.42a3.566,3.566,0,0,0-3.559-3.564V2.471A8.318,8.318,0,0,1,18.979,10.693ZM9.49,2.471V4.753a3.564,3.564,0,0,0,0,7.129h2.372a1.188,1.188,0,0,1,0,2.376H9.49A1.188,1.188,0,0,1,8.3,13.069H5.931A3.566,3.566,0,0,0,9.49,16.634v2.281a8.308,8.308,0,0,1,0-16.444Z"/>
            <path id="Path_1269615" data-name="Path 1269615" d="M77.385,66.71A10.693,10.693,0,1,0,88.061,77.4,10.7,10.7,0,0,0,77.385,66.71ZM69.082,77.4A8.318,8.318,0,0,1,76.2,69.181v2.281a3.564,3.564,0,0,0,0,7.129h2.372a1.188,1.188,0,0,1,0,2.376H76.2a1.188,1.188,0,0,1-1.186-1.188H72.641A3.566,3.566,0,0,0,76.2,83.344v2.281A8.318,8.318,0,0,1,69.082,77.4Zm9.489,8.222V83.344a3.564,3.564,0,0,0,0-7.129H76.2a1.188,1.188,0,0,1,0-2.376h2.372a1.188,1.188,0,0,1,1.186,1.188H82.13a3.566,3.566,0,0,0-3.559-3.564V69.181a8.308,8.308,0,0,1,0,16.444Z" transform="translate(-14.517 -14.432)"/>
            <ellipse id="Ellipse_12773" data-name="Ellipse 12773" cx="1.186" cy="1.188" rx="1.186" ry="1.188" transform="translate(54.565 14.258)"/>
            <ellipse id="Ellipse_12774" data-name="Ellipse 12774" cx="1.186" cy="1.188" rx="1.186" ry="1.188" transform="translate(61.682 14.258)"/>
            <path id="Path_1269616" data-name="Path 1269616" d="M76.894,25.347a2.651,2.651,0,0,1-4.745,0l-.125-.251L69.9,26.16l.125.251a5.022,5.022,0,0,0,8.989,0l.125-.251-2.122-1.063Z" transform="translate(-15.212 -5.429)"/>
            <path id="Path_1269617" data-name="Path 1269617" d="M73.011,13.674A10.39,10.39,0,0,0,63.172,0H55.446a10.39,10.39,0,0,0-9.838,13.674l.168.507a4.727,4.727,0,0,0,4.044,7.2h.095a8.326,8.326,0,0,0,4.4,6.193,9.554,9.554,0,0,0-3.082,3.1A20.163,20.163,0,1,0,19.737,52.809l-12.62-1.58v-3.7a3.566,3.566,0,0,0-3.559-3.564H0v2.376H3.559a1.188,1.188,0,0,1,1.186,1.188V65.347a3.545,3.545,0,0,0,.925,2.376,3.568,3.568,0,1,0,5.974,1.188H19.2a3.5,3.5,0,0,0-.219,1.188,3.559,3.559,0,1,0,3.559-3.564H8.3a1.188,1.188,0,0,1-1.186-1.188V64.159h15.42A3.566,3.566,0,0,0,26.1,60.595V56.136A20.132,20.132,0,0,0,52.132,38.02H68.8V35.644a9.5,9.5,0,0,0-4.492-8.065,8.329,8.329,0,0,0,4.4-6.193H68.8a4.728,4.728,0,0,0,4.044-7.2ZM9.49,70.1A1.186,1.186,0,1,1,8.3,68.912,1.188,1.188,0,0,1,9.49,70.1Zm14.234,0a1.186,1.186,0,1,1-1.186-1.188A1.188,1.188,0,0,1,23.724,70.1Zm0-9.505a1.188,1.188,0,0,1-1.186,1.188H7.117V53.624L23.724,55.7ZM47.448,16.634a2.377,2.377,0,0,1,2.372-2.376V19.01A2.377,2.377,0,0,1,47.448,16.634Zm2.541-4.753H49.82a4.682,4.682,0,0,0-2.092.509,7.924,7.924,0,0,1,7.72-10.014h7.726A7.924,7.924,0,0,1,70.891,12.39a4.682,4.682,0,0,0-2.092-.509h-.218a3.554,3.554,0,0,0-3.34-2.376H60.293A6.864,6.864,0,0,1,55.4,7.477l-.518-.52-.7.233a6.377,6.377,0,0,0-4.2,4.692ZM61.641,28.917a2.364,2.364,0,0,1-4.664,0,6.972,6.972,0,0,1,4.664,0ZM32.027,54.654c-2.648,0-5.046-2.836-6.579-7.129H38.607C37.073,51.818,34.675,54.654,32.027,54.654Zm-7.306-9.505a33.751,33.751,0,0,1-.968-7.129H40.3a33.75,33.75,0,0,1-.968,7.129ZM14.295,38.02h7.087a36.194,36.194,0,0,0,.892,7.129H16.3A17.7,17.7,0,0,1,14.295,38.02ZM32.027,19.01c2.648,0,5.046,2.836,6.579,7.129H25.448c1.533-4.293,3.931-7.129,6.579-7.129Zm7.306,9.505a33.751,33.751,0,0,1,.968,7.129H23.752a33.751,33.751,0,0,1,.968-7.129Zm10.427,7.129H42.672a36.194,36.194,0,0,0-.892-7.129h5.971a17.7,17.7,0,0,1,2.008,7.129Zm-28.377,0H14.295A17.7,17.7,0,0,1,16.3,28.515h5.971A36.194,36.194,0,0,0,21.382,35.644Zm21.29,2.376h7.087a17.7,17.7,0,0,1-2.008,7.129H41.78a36.194,36.194,0,0,0,.892-7.129Zm3.556-11.881h-5.11a19.8,19.8,0,0,0-3.044-6.046A17.851,17.851,0,0,1,46.228,26.139ZM25.98,20.093a19.8,19.8,0,0,0-3.044,6.046h-5.11A17.851,17.851,0,0,1,25.98,20.093ZM17.826,47.525h5.11a19.8,19.8,0,0,0,3.044,6.046A17.851,17.851,0,0,1,17.826,47.525Zm20.248,6.046a19.8,19.8,0,0,0,3.044-6.046h5.11A17.851,17.851,0,0,1,38.074,53.572ZM66.427,35.644H52.192a7.122,7.122,0,0,1,2.662-5.551,4.714,4.714,0,0,0,8.911,0A7.122,7.122,0,0,1,66.427,35.644Zm0-15.446A5.943,5.943,0,0,1,60.5,26.139H58.123A5.943,5.943,0,0,1,52.192,20.2V13.262a4.019,4.019,0,0,1,2.133-3.554,9.212,9.212,0,0,0,5.968,2.173H65.24a1.188,1.188,0,0,1,1.186,1.188ZM68.8,19.01V14.258a2.376,2.376,0,0,1,0,4.753Z" transform="translate(0)"/>
            <path id="Path_1269618" data-name="Path 1269618" d="M43.231,8.441a29.8,29.8,0,0,1,5.7.549l.454-2.332a32.232,32.232,0,0,0-6.159-.593,31.735,31.735,0,0,0-13.55,3l1,2.154A29.349,29.349,0,0,1,43.231,8.441Z" transform="translate(-6.459 -1.312)"/>
            <path id="Path_1269619" data-name="Path 1269619" d="M83.935,51.376a29.482,29.482,0,0,1-2.58,9.137L83.5,61.52a31.881,31.881,0,0,0,2.789-9.873Z" transform="translate(-17.705 -11.115)"/>
            <path id="Path_1269620" data-name="Path 1269620" d="M44.259,84.135A29.569,29.569,0,0,1,35.135,82.7l-.73,2.26a32.093,32.093,0,0,0,23.4-1.455l-1-2.154A29.349,29.349,0,0,1,44.259,84.135Z" transform="translate(-7.487 -17.6)"/>
            <path id="Path_1269621" data-name="Path 1269621" d="M9.069,29.668a31.846,31.846,0,0,0-3,13.583,32.433,32.433,0,0,0,.377,4.936l2.345-.362a29.987,29.987,0,0,1-.35-4.573,29.494,29.494,0,0,1,2.78-12.575Z" transform="translate(-1.32 -6.418)"/>
          </g>
        </g>
      </g>
    </g>
  </g>
</svg>
