<svg xmlns="http://www.w3.org/2000/svg" xmlns:xlink="http://www.w3.org/1999/xlink" width="90" height="90" viewBox="0 0 90 90">
  <defs>
    <clipPath id="clip-path">
      <rect id="Rectangle_411918" data-name="Rectangle 411918" width="90" height="90" fill="#e8bad8" opacity="0.41"/>
    </clipPath>
    <clipPath id="clip-path-2">
      <rect id="Rectangle_411919" data-name="Rectangle 411919" width="67.114" height="73.997" fill="#fff" stroke="#707070" stroke-width="1" opacity="0"/>
    </clipPath>
  </defs>
  <g id="Group_1204172" data-name="Group 1204172" transform="translate(6729 10490.165)">
    <g id="Group_1204175" data-name="Group 1204175" transform="translate(-6729 -10490.165)">
      <g id="Mask_Group_1099488" data-name="Mask Group 1099488" transform="translate(0 0)" clip-path="url(#clip-path)">
        <g id="Group_1204174" data-name="Group 1204174" transform="translate(0 4.909)">
          <g id="Group_1204172-2" data-name="Group 1204172" transform="translate(0)">
            <ellipse id="Ellipse_12780" data-name="Ellipse 12780" cx="22.428" cy="22.428" rx="22.428" ry="22.428" transform="translate(44.238 34.661)" fill="#ffc94a"/>
            <ellipse id="Ellipse_12781" data-name="Ellipse 12781" cx="16.311" cy="16.311" rx="16.311" ry="16.311" fill="#ffc94a"/>
          </g>
        </g>
      </g>
      <g id="Mask_Group_1099489" data-name="Mask Group 1099489" transform="translate(11.134 12.188)" clip-path="url(#clip-path-2)">
        <g id="recursos-humanos" transform="translate(0 3.417)">
          <path id="Path_1269638" data-name="Path 1269638" d="M44.134,38.757,38.08,32.7a20.183,20.183,0,1,0-5.3,5.3l6.054,6.054Zm0,0" transform="translate(-0.236 -0.159)" fill="#c6c5ca"/>
          <path id="Path_1269639" data-name="Path 1269639" d="M40.651,22.395A13.61,13.61,0,1,1,27.041,8.785,13.61,13.61,0,0,1,40.651,22.395Zm0,0" transform="translate(-1.94 -1.226)" fill="#898890"/>
          <path id="Path_1269640" data-name="Path 1269640" d="M36.081,22.395A13.61,13.61,0,1,1,22.471,8.785,13.61,13.61,0,0,1,36.081,22.395Zm0,0" transform="translate(-1.302 -1.226)" fill="#b3d8f4"/>
          <path id="Path_1269641" data-name="Path 1269641" d="M36.794,26.552l-1.069-1.069H29.518l3.239-3.239v-4.32a5.158,5.158,0,0,0-10.316,0v4.32l3.239,3.239H19.472l-2.045,2.045v4.465q.264.3.547.582a13.55,13.55,0,0,0,7.661,3.845,13.625,13.625,0,0,0,11.159-9.867Zm0,0" transform="translate(-2.498 -1.782)" fill="#57a4ff"/>
          <path id="Path_1269642" data-name="Path 1269642" d="M12.793,22.395A13.613,13.613,0,0,1,24.437,8.926a13.61,13.61,0,1,0,0,26.937A13.613,13.613,0,0,1,12.793,22.395Zm0,0" transform="translate(-1.302 -1.226)" fill="#57a4ff"/>
          <path id="Path_1269643" data-name="Path 1269643" d="M32.681,75.228V66.745l-1.92-1.92H15.5l-1.92,1.92v8.483Zm0,0" transform="translate(-1.961 -9.047)" fill="#b6e892"/>
          <path id="Path_1269644" data-name="Path 1269644" d="M28.736,55.789v4.057l-3.042,3.042h-3.6l-3.042-3.042V55.789a4.844,4.844,0,0,1,9.688,0Zm0,0" transform="translate(-2.724 -7.11)" fill="#ffdaaa"/>
          <path id="Path_1269645" data-name="Path 1269645" d="M73.834,37.048V28.565l-1.92-1.92H56.651l-1.92,1.92v8.483Zm0,0" transform="translate(-7.704 -3.719)" fill="#57a4ff"/>
          <path id="Path_1269646" data-name="Path 1269646" d="M69.89,17.608v4.057l-3.042,3.042h-3.6L60.2,21.666V17.608a4.844,4.844,0,0,1,9.688,0Zm0,0" transform="translate(-8.468 -1.782)" fill="#ffdaaa"/>
          <path id="Path_1269647" data-name="Path 1269647" d="M29,17.923v4.32l-3.239,3.239H21.923l-3.239-3.239v-4.32a5.158,5.158,0,0,1,10.316,0Zm0,0" transform="translate(-2.673 -1.782)" fill="#ffdaaa"/>
          <path id="Path_1269648" data-name="Path 1269648" d="M33.2,34.055V29.59l-2.045-2.045H14.9L12.858,29.59v4.465c.176.2.358.392.548.582a13.61,13.61,0,0,0,19.247,0q.284-.284.547-.582Zm0,0" transform="translate(-1.86 -3.844)" fill="#ff7956"/>
          <path id="Path_1269649" data-name="Path 1269649" d="M43.2,51.407l8.279-8.279L71.818,63.464l-8.279,8.279Zm0,0" transform="translate(-6.095 -6.019)" fill="#787680"/>
          <path id="Path_1269650" data-name="Path 1269650" d="M5.151,21.328A20.188,20.188,0,0,1,23.37,1.237q-.97-.094-1.966-.094a20.185,20.185,0,1,0,0,40.371q1,0,1.966-.094A20.188,20.188,0,0,1,5.151,21.328Zm0,0" transform="translate(-0.236 -0.16)" fill="#898890"/>
          <path id="Path_1269651" data-name="Path 1269651" d="M42.067,43.983a20.223,20.223,0,0,1-2.483,1.45l4.6,4.6,1.966-1.966Zm0,0" transform="translate(-5.59 -6.139)" fill="#898890"/>
          <path id="Path_1269652" data-name="Path 1269652" d="M19.43,64.825H15.5l-1.92,1.92v8.483H17.51V66.745Zm0,0" transform="translate(-1.961 -9.047)" fill="#7ccc92"/>
          <path id="Path_1269653" data-name="Path 1269653" d="M22.981,59.846V55.789a4.845,4.845,0,0,1,2.878-4.428,4.847,4.847,0,0,0-6.81,4.428v4.057l3.042,3.042h3.6l.164-.164Zm0,0" transform="translate(-2.724 -7.11)" fill="#ff9478"/>
          <path id="Path_1269654" data-name="Path 1269654" d="M60.583,26.645H56.651l-1.92,1.92v8.483h3.932V28.565Zm0,0" transform="translate(-7.704 -3.719)" fill="#006df0"/>
          <path id="Path_1269655" data-name="Path 1269655" d="M64.134,21.666V17.609a4.845,4.845,0,0,1,2.878-4.428,4.847,4.847,0,0,0-6.81,4.428v4.057l3.042,3.042h3.6l.164-.164-2.878-2.878Zm0,0" transform="translate(-8.468 -1.782)" fill="#ff9478"/>
          <path id="Path_1269656" data-name="Path 1269656" d="M22.616,22.243v-4.32a5.16,5.16,0,0,1,3.192-4.77,5.161,5.161,0,0,0-7.124,4.771v4.32l3.239,3.239h3.838l.047-.047-3.192-3.192Zm0,0" transform="translate(-2.673 -1.782)" fill="#ff9478"/>
          <path id="Path_1269657" data-name="Path 1269657" d="M17.338,34.637c-.19-.19-.372-.384-.548-.582V29.59l2.045-2.045H14.9L12.858,29.59v4.465c.176.2.358.392.548.582a13.589,13.589,0,0,0,11.589,3.844,13.546,13.546,0,0,1-7.657-3.844Zm0,0" transform="translate(-1.86 -3.844)" fill="#ff3f62"/>
          <path id="Path_1269658" data-name="Path 1269658" d="M47.136,51.407l6.312-6.312-1.966-1.966L43.2,51.407,63.54,71.743l1.966-1.966Zm0,0" transform="translate(-6.096 -6.019)" fill="#57565c"/>
          <path id="Path_1269659" data-name="Path 1269659" d="M22.311,7.642A14.593,14.593,0,1,0,36.9,22.235,14.609,14.609,0,0,0,22.311,7.642Zm7.2,24.959V28.762H27.548v4.962a12.62,12.62,0,0,1-10.472,0V28.762H15.109V32.6a12.627,12.627,0,1,1,14.4,0Zm0,0" transform="translate(-1.143 -1.067)"/>
          <path id="Path_1269660" data-name="Path 1269660" d="M27.145,61.745,28.8,60.094V55.629a5.827,5.827,0,0,0-11.654,0v4.464l1.652,1.652H14.931l-2.5,2.5v9.873H33.5V64.241l-2.5-2.5Zm-8.036-2.466v-3.65a3.861,3.861,0,1,1,7.722,0v3.65l-2.466,2.466h-2.79ZM31.538,72.148H29.793V66.48H27.827v5.668H18.112V66.48H16.146v5.668H14.4V65.056l1.345-1.345H30.194l1.345,1.345Zm0,0" transform="translate(-1.801 -6.951)"/>
          <path id="Path_1269661" data-name="Path 1269661" d="M74.657,26.061l-2.5-2.5H68.3l1.652-1.652V17.449a5.827,5.827,0,1,0-11.654,0v4.464l1.652,1.652H56.084l-2.5,2.5v9.873h21.07ZM60.262,21.1v-3.65a3.861,3.861,0,0,1,7.722,0V21.1l-2.466,2.466h-2.79Zm12.43,12.869H70.946V28.3H68.98v5.668H59.265V28.3H57.3v5.668H55.554V26.876L56.9,25.531H71.347l1.344,1.344v7.092Zm0,0" transform="translate(-7.545 -1.622)"/>
          <path id="Path_1269662" data-name="Path 1269662" d="M51.257,41.512l-9.669,9.669L63.314,72.908l9.669-9.669ZM47.491,54.3l3.268-3.267-1.39-1.39L46.1,52.913l-1.732-1.732,6.888-6.888L70.2,63.239l-6.888,6.888Zm0,0" transform="translate(-5.87 -5.794)"/>
          <path id="Path_1269663" data-name="Path 1269663" d="M27.229,24.34l1.849-1.849V17.763a6.141,6.141,0,1,0-12.283,0v4.728l1.849,1.849H14.4L12.2,26.547l1.39,1.39,1.632-1.632H30.655l1.632,1.632,1.39-1.39L31.47,24.34Zm-5.8,0-2.664-2.663V17.763a4.175,4.175,0,0,1,8.35,0v3.913L24.448,24.34Zm0,0" transform="translate(-1.768 -1.622)"/>
          <path id="Path_1269664" data-name="Path 1269664" d="M37.515,41.349,34.13,37.964a21.272,21.272,0,0,0,2.31-2.058l-1.411-1.369a19.328,19.328,0,0,1-2.81,2.39l-.154.105a19.2,19.2,0,1,1,5.044-5.043l-.46.673,4.777,4.776,1.39-1.39-3.635-3.635a21.164,21.164,0,1,0-6.691,6.691l3.635,3.635Zm0,0" transform="translate(-0.076)"/>
          <g id="Group_1204176" data-name="Group 1204176" transform="translate(17.649 3.277)">
            <path id="Path_1269665" data-name="Path 1269665" d="M40.6,21.7A15.886,15.886,0,0,0,30.7,6.955l.746-1.819A17.911,17.911,0,0,1,42.57,21.7ZM29.536,6.532a15.819,15.819,0,0,0-1.792-.462l.378-1.93a17.941,17.941,0,0,1,2.015.519Zm-3.01-.651a16.087,16.087,0,0,0-1.848-.107V3.808a18.171,18.171,0,0,1,2.074.119Zm0,0" transform="translate(-21.159 -3.808)" fill="#fff"/>
            <path id="Path_1269666" data-name="Path 1269666" d="M27.364,59.025H25.4V56.054a1.222,1.222,0,0,0-.023-.238l1.93-.377a21.79,21.79,0,0,1,.059,3.586Zm-4.445-2.971H20.953a3.2,3.2,0,0,1,1.174-2.479l1.247,1.52a1.236,1.236,0,0,0-.455.959Zm2.117-.873a1.233,1.233,0,0,0-1-.361l-.189-1.957a3.19,3.19,0,0,1,2.581.931Zm0,0" transform="translate(-20.639 -10.653)" fill="#fff"/>
            <path id="Path_1269667" data-name="Path 1269667" d="M68.517,20.846H66.551V17.874a1.227,1.227,0,0,0-.023-.238l1.93-.377a21.786,21.786,0,0,1,.059,3.586Zm-4.445-2.971H62.106A3.2,3.2,0,0,1,63.28,15.4l1.247,1.52a1.236,1.236,0,0,0-.456.958ZM66.189,17a1.231,1.231,0,0,0-1-.36L65,14.684c.1-.01.205-.015.308-.015a3.184,3.184,0,0,1,2.272.946Zm0,0" transform="translate(-26.382 -5.324)" fill="#fff"/>
            <path id="Path_1269668" data-name="Path 1269668" d="M27.627,21.423H25.661V18.189a1.543,1.543,0,0,0-.236-.821l1.666-1.044a3.513,3.513,0,0,1,.535,1.865Zm-5.073-3.234H20.588a3.5,3.5,0,0,1,1.006-2.462L23,17.1a1.542,1.542,0,0,0-.445,1.086Zm2.291-1.367a1.526,1.526,0,0,0-.737-.187,1.553,1.553,0,0,0-.427.059l-.543-1.89a3.561,3.561,0,0,1,2.646.289Zm0,0" transform="translate(-20.588 -5.325)" fill="#fff"/>
            <path id="Path_1269669" data-name="Path 1269669" d="M68.581,65.66l-8.67-8.67L61.3,55.6l8.67,8.67Zm-9.6-9.6-1.39-1.39,1.39-1.39,1.39,1.39Zm-2.317-2.317-1.39-1.39,1.39-1.39,1.39,1.39Zm0,0" transform="translate(-25.429 -10.39)" fill="#fff"/>
          </g>
        </g>
      </g>
    </g>
  </g>
</svg>
