<svg xmlns="http://www.w3.org/2000/svg" xmlns:xlink="http://www.w3.org/1999/xlink" width="98" height="98" viewBox="0 0 98 98">
  <defs>
    <filter id="Path_874925" x="0" y="0" width="98" height="98" filterUnits="userSpaceOnUse">
      <feOffset dy="3" input="SourceAlpha"/>
      <feGaussianBlur stdDeviation="3" result="blur"/>
      <feFlood flood-opacity="0.161"/>
      <feComposite operator="in" in2="blur"/>
      <feComposite in="SourceGraphic"/>
    </filter>
    <clipPath id="clip-path">
      <rect id="Rectangle_412416" data-name="Rectangle 412416" width="51" height="57" transform="translate(2762 -9202)" fill="#fff" stroke="#707070" stroke-width="1" opacity="0"/>
    </clipPath>
  </defs>
  <g id="Group_1204814" data-name="Group 1204814" transform="translate(-2738.898 9220)">
    <g id="Group_1204814-2" data-name="Group 1204814" transform="translate(2482.898 -12808.407)">
      <g id="Group_1204379" data-name="Group 1204379">
        <g id="Group_1203801" data-name="Group 1203801" transform="translate(-20 -2503)">
          <g id="Group_1187153" data-name="Group 1187153">
            <g id="Group_1182177" data-name="Group 1182177">
              <g id="Group_1181903" data-name="Group 1181903">
                <g id="Group_1181438" data-name="Group 1181438">
                  <g id="Group_1111314" data-name="Group 1111314" transform="translate(-734.73 3020.407)">
                    <g transform="matrix(1, 0, 0, 1, 1010.73, 3071)" filter="url(#Path_874925)">
                      <g id="Path_874925-2" data-name="Path 874925" transform="translate(9 6)" fill="#ffc94a">
                        <path d="M 39.99997329711914 79.50040435791016 C 34.66728591918945 79.50040435791016 29.494384765625 78.45610046386719 24.62495040893555 76.39649963378906 C 19.92138481140137 74.40706634521484 15.69705104827881 71.55889892578125 12.06927299499512 67.93113708496094 C 8.441506385803223 64.30335998535156 5.593339920043945 60.07902526855469 3.603906631469727 55.37545776367188 C 1.544306635856628 50.50602340698242 0.5000066161155701 45.33312606811523 0.5000066161155701 40.00043487548828 C 0.5000066161155701 34.66728973388672 1.544306635856628 29.4943904876709 3.603906631469727 24.62495803833008 C 5.593339920043945 19.92139053344727 8.441506385803223 15.69704627990723 12.06927299499512 12.06927967071533 C 15.69705104827881 8.441502571105957 19.92138481140137 5.59334659576416 24.62495040893555 3.603902101516724 C 29.494384765625 1.544302225112915 34.66728591918945 0.5000022053718567 39.99997329711914 0.5000022053718567 C 45.33266067504883 0.5000022053718567 50.50556182861328 1.544302225112915 55.37499618530273 3.603902101516724 C 60.07856369018555 5.59334659576416 64.30290985107422 8.441502571105957 67.93067169189453 12.06927967071533 C 71.55844879150391 15.69704627990723 74.40660858154297 19.92139053344727 76.39604949951172 24.62495803833008 C 78.45565032958984 29.4943904876709 79.49995422363281 34.66728973388672 79.49995422363281 39.99998092651367 C 79.49995422363281 45.33312606811523 78.45565032958984 50.50602340698242 76.39604949951172 55.37545776367188 C 74.40660858154297 60.07902526855469 71.55844879150391 64.30335998535156 67.93067169189453 67.93113708496094 C 64.30290985107422 71.55889892578125 60.07856369018555 74.40706634521484 55.37499618530273 76.39649963378906 C 50.50556182861328 78.45610046386719 45.33266067504883 79.50040435791016 39.99997329711914 79.50040435791016 Z" stroke="none"/>
                        <path d="M 39.99997329711914 1 C 34.73457336425781 1 29.627197265625 2.031013488769531 24.81972885131836 4.064399719238281 C 20.17576217651367 6.028633117675781 16.00484085083008 8.840812683105469 12.42282867431641 12.42282104492188 C 8.840805053710938 16.00483703613281 6.02862548828125 20.17575836181641 4.06439208984375 24.81973648071289 C 2.031005859375 29.62720108032227 0.9999923706054688 34.73456954956055 0.9999923706054688 40.00043487548828 C 0.9999923706054688 45.26583480834961 2.031005859375 50.37321472167969 4.06439208984375 55.18067932128906 C 6.02862548828125 59.82464599609375 8.840805053710938 63.99556732177734 12.42282867431641 67.57757568359375 C 16.00484085083008 71.15959167480469 20.17576217651367 73.97177124023438 24.81972885131836 75.93600463867188 C 29.627197265625 77.96939086914062 34.73457336425781 79.00040435791016 39.99997329711914 79.00040435791016 C 45.26537322998047 79.00040435791016 50.37274932861328 77.96939086914062 55.18021774291992 75.93600463867188 C 59.82418441772461 73.97177124023438 63.9951057434082 71.15959167480469 67.57711791992188 67.57757568359375 C 71.15912628173828 63.99556732177734 73.97130584716797 59.82464599609375 75.93553924560547 55.18067932128906 C 77.96892547607422 50.37321472167969 78.99993896484375 45.26583480834961 78.99993896484375 39.99998092651367 C 78.99993896484375 34.73456954956055 77.96892547607422 29.62720108032227 75.93553924560547 24.81973648071289 C 73.97130584716797 20.17575836181641 71.15912628173828 16.00483703613281 67.57711791992188 12.42282104492188 C 63.9951057434082 8.840812683105469 59.82418441772461 6.028633117675781 55.18021774291992 4.064399719238281 C 50.37274932861328 2.031013488769531 45.26537322998047 1 39.99997329711914 1 M 39.99997329711914 0 C 62.09135055541992 0 79.99993896484375 17.90859222412109 79.99993896484375 39.99998092651367 L 79.99993896484375 40.00043487548828 C 79.99993896484375 62.09181213378906 62.09135055541992 80.00040435791016 39.99997329711914 80.00040435791016 C 17.90859603881836 80.00040435791016 -7.62939453125e-06 62.09181213378906 -7.62939453125e-06 40.00043487548828 L -7.62939453125e-06 39.99998092651367 C -7.62939453125e-06 17.90859222412109 17.90859603881836 0 39.99997329711914 0 Z" stroke="none" fill="#b18c32"/>
                      </g>
                    </g>
                  </g>
                </g>
              </g>
            </g>
          </g>
        </g>
      </g>
    </g>
    <g id="Mask_Group_1099679" data-name="Mask Group 1099679" clip-path="url(#clip-path)">
      <g id="esquema" transform="translate(2762 -9199)">
        <g id="Group_1204816" data-name="Group 1204816">
          <path id="Path_1297731" data-name="Path 1297731" d="M35.8,7.191l-20.532.136a.4.4,0,0,1-.4-.4l0-5.485a.4.4,0,0,1,.4-.4l1.075-.3H36.059a.4.4,0,0,1,.4.4V5.927l-.261.866A.4.4,0,0,1,35.8,7.191Z" fill="#fee45a"/>
          <path id="Path_1297732" data-name="Path 1297732" d="M36.457,5.927V7.321a.4.4,0,0,1-.4.4H14.941a.4.4,0,0,1-.4-.4V1.146a.4.4,0,0,1,.4-.4h1.395V5.528a.4.4,0,0,0,.4.4Z" fill="#ffd15b"/>
          <path id="Path_1297733" data-name="Path 1297733" d="M30.364,18.839l-9.435.025a.4.4,0,0,1-.4-.4L20.5,13.981a.4.4,0,0,1,.4-.4l.92-.385H30.58a.4.4,0,0,1,.4.4v3.885l-.216.959a.4.4,0,0,1-.4.4Z" fill="#6cabca"/>
          <path id="Path_1297734" data-name="Path 1297734" d="M30.979,17.481v1.295a.4.4,0,0,1-.4.4H20.42a.4.4,0,0,1-.4-.4V13.6a.4.4,0,0,1,.4-.4h1.395v3.885a.4.4,0,0,0,.4.4Z" fill="#3b98bc"/>
          <path id="Path_1297735" data-name="Path 1297735" d="M34.963,46.02a1.987,1.987,0,0,1-.113.655,7.433,7.433,0,0,1-.837,1.036c-1.521,1.427-4.743,2.138-8.513,2.138-5.226,0-9.1-1.492-9.1-3.83,0-.957,1.541-2.548,1.541-2.548A15.5,15.5,0,0,1,25.5,41.786c5.226,0,9.463,1.9,9.463,4.233Z" fill="#6cabca"/>
          <path id="Path_1297736" data-name="Path 1297736" d="M34.85,46.675c-.7,2.027-4.622,3.578-9.35,3.578-5.227,0-9.463-1.9-9.463-4.233a3.218,3.218,0,0,1,1.906-2.548,2,2,0,0,0-.113.656c0,2.338,4.236,4.233,9.463,4.233a15.5,15.5,0,0,0,7.557-1.685Z" fill="#3b98bc"/>
          <ellipse id="Ellipse_12847" data-name="Ellipse 12847" cx="5.229" cy="3.486" rx="5.229" ry="3.486" transform="translate(39.794 12.7)" fill="#fe7c66"/>
          <ellipse id="Ellipse_12848" data-name="Ellipse 12848" cx="5.229" cy="3.486" rx="5.229" ry="3.486" transform="translate(0.747 33.593)" fill="#b4e555"/>
          <path id="Path_1297737" data-name="Path 1297737" d="M32.014,31.293l-12.866-.068a1,1,0,0,1-.656-.246l-3.235-2.613a.3.3,0,0,1,0-.45L16.421,26.5l1.825-1.6a1,1,0,0,1,.656-.246H32.1a1,1,0,0,1,.656.246L36.2,27.915a.3.3,0,0,1,0,.45l-1.564,1.369L32.67,31.046A1,1,0,0,1,32.014,31.293Z" fill="#5de1c4"/>
          <path id="Path_1297738" data-name="Path 1297738" d="M34.636,29.733,32.755,31.38a1,1,0,0,1-.656.246H18.9a1,1,0,0,1-.656-.246L14.8,28.365a.3.3,0,0,1,0-.45L16.421,26.5l3.419,2.991a1,1,0,0,0,.656.246Z" fill="#09d6b4"/>
        </g>
        <g id="Group_1204817" data-name="Group 1204817">
          <path id="Path_1297739" data-name="Path 1297739" d="M22.512,4.98h5.977a.747.747,0,0,0,0-1.494H22.512a.747.747,0,0,0,0,1.494Z"/>
          <path id="Path_1297740" data-name="Path 1297740" d="M26.994,15.439H24.006a.747.747,0,0,0,0,1.494h2.988a.747.747,0,0,0,0-1.494Z"/>
          <path id="Path_1297741" data-name="Path 1297741" d="M28.488,27.393H22.512a.747.747,0,0,0,0,1.494h5.977a.747.747,0,0,0,0-1.494Z"/>
          <path id="Path_1297742" data-name="Path 1297742" d="M22.512,46.767h5.977a.747.747,0,0,0,0-1.494H22.512a.747.747,0,0,0,0,1.494Z"/>
          <path id="Path_1297743" data-name="Path 1297743" d="M51,16.187c0-2.194-2.244-3.948-5.229-4.2V5.229a1.745,1.745,0,0,0-1.743-1.743H37.2V.747A.747.747,0,0,0,36.457,0h-12.7a.747.747,0,0,0,0,1.494H35.71V6.973H15.29V1.494h4.98a.747.747,0,0,0,0-1.494H14.543A.747.747,0,0,0,13.8.747V7.72a.747.747,0,0,0,.747.747H24.7v3.984H20.021a.747.747,0,0,0-.747.747v5.977a.747.747,0,0,0,.747.747H24.7v3.984H18.9a1.742,1.742,0,0,0-1.148.431l-3.491,3.055H6.973a1.745,1.745,0,0,0-1.743,1.743v3.743C2.244,33.132,0,34.885,0,37.08s2.244,3.948,5.229,4.2v3.743a1.745,1.745,0,0,0,1.743,1.743H15.4A5.118,5.118,0,0,0,18.5,49.695,17.618,17.618,0,0,0,25.5,51a17.618,17.618,0,0,0,7-1.305c2.072-.927,3.214-2.232,3.214-3.675s-1.141-2.748-3.214-3.675a17.113,17.113,0,0,0-6.3-1.293V32.373h5.9a1.742,1.742,0,0,0,1.148-.431l3.491-3.055h7.29a1.745,1.745,0,0,0,1.743-1.743V20.387C48.756,20.134,51,18.381,51,16.187ZM20.769,13.945h9.463v4.482H20.769ZM1.494,37.08c0-1.485,2.053-2.739,4.482-2.739s4.482,1.254,4.482,2.739-2.053,2.739-4.482,2.739S1.494,38.564,1.494,37.08ZM24.7,41.054a20.485,20.485,0,0,0-2.648.264.747.747,0,0,0,.247,1.474,19.4,19.4,0,0,1,3.2-.258c5.136,0,8.716,1.837,8.716,3.486s-3.579,3.486-8.716,3.486-8.716-1.837-8.716-3.486c0-.812.859-1.659,2.356-2.323a.747.747,0,1,0-.606-1.366A5.139,5.139,0,0,0,15.4,45.273H6.973a.249.249,0,0,1-.249-.249V41.28c2.986-.253,5.229-2.007,5.229-4.2s-2.244-3.948-5.229-4.2V29.136a.249.249,0,0,1,.249-.249h7.29l3.491,3.055a1.742,1.742,0,0,0,1.148.431h5.8Zm7.559-10.237a.249.249,0,0,1-.164.062H18.9a.249.249,0,0,1-.164-.062l-3.06-2.678,3.06-2.678A.249.249,0,0,1,18.9,25.4H32.1a.249.249,0,0,1,.164.062l3.06,2.678ZM45.023,18.926a5.835,5.835,0,0,1-3.5-1.048.747.747,0,0,0-.91,1.185,7.085,7.085,0,0,0,3.659,1.323v6.758a.249.249,0,0,1-.249.249h-7.29l-3.491-3.055a1.742,1.742,0,0,0-1.148-.431H26.2V19.922h4.781a.747.747,0,0,0,.747-.747V13.2a.747.747,0,0,0-.747-.747H26.2V8.467h10.26A.747.747,0,0,0,37.2,7.72V4.98h6.823a.249.249,0,0,1,.249.249v6.756c-2.418.212-4.436,1.442-5.043,3.136a.747.747,0,0,0,1.407.5c.452-1.262,2.3-2.178,4.383-2.178,2.43,0,4.482,1.254,4.482,2.739s-2.053,2.739-4.482,2.739Z"/>
          <path id="Path_1297744" data-name="Path 1297744" d="M46.518,15.439H43.529a.747.747,0,0,0,0,1.494h2.988a.747.747,0,0,0,0-1.494Z"/>
          <path id="Path_1297745" data-name="Path 1297745" d="M8.218,37.08a.747.747,0,0,0-.747-.747H4.482a.747.747,0,0,0,0,1.494H7.471A.747.747,0,0,0,8.218,37.08Z"/>
          <path id="Path_1297746" data-name="Path 1297746" d="M9.612,24.554h.8v.8a.747.747,0,0,0,1.494,0v-.8h.8a.747.747,0,0,0,0-1.494h-.8v-.8a.747.747,0,0,0-1.494,0v.8h-.8a.747.747,0,0,0,0,1.494Z"/>
          <path id="Path_1297747" data-name="Path 1297747" d="M37.2,23.807a.747.747,0,0,0,.747.747h3.088a.747.747,0,0,0,0-1.494H37.951A.747.747,0,0,0,37.2,23.807Z"/>
        </g>
      </g>
    </g>
  </g>
</svg>
