<svg xmlns="http://www.w3.org/2000/svg" xmlns:xlink="http://www.w3.org/1999/xlink" width="115" height="115" viewBox="0 0 115 115">
  <defs>
    <clipPath id="clip-path">
      <rect id="Rectangle_411894" data-name="Rectangle 411894" width="115" height="115" transform="translate(800.781 1954)" fill="#e8bad8" opacity="0.41"/>
    </clipPath>
    <clipPath id="clip-path-2">
      <rect id="Rectangle_411895" data-name="Rectangle 411895" width="92" height="95" transform="translate(-8695 -7727)" fill="#fff" stroke="#707070" stroke-width="1" opacity="0"/>
    </clipPath>
  </defs>
  <g id="Group_1204107" data-name="Group 1204107" transform="translate(8707 7737)">
    <g id="Group_1204108" data-name="Group 1204108">
      <g id="Mask_Group_1099467" data-name="Mask Group 1099467" transform="translate(-9507.781 -9691)" clip-path="url(#clip-path)">
        <g id="Group_1204106" data-name="Group 1204106" transform="translate(799.781 1960.273)">
          <g id="Group_1204105" data-name="Group 1204105" transform="translate(1)">
            <ellipse id="Ellipse_12744" data-name="Ellipse 12744" cx="28.658" cy="28.658" rx="28.658" ry="28.658" transform="translate(56.527 44.289)" fill="#b8b1fc"/>
            <ellipse id="Ellipse_12745" data-name="Ellipse 12745" cx="20.842" cy="20.842" rx="20.842" ry="20.842" fill="#b8b1fc"/>
          </g>
        </g>
      </g>
      <g id="Mask_Group_1099468" data-name="Mask Group 1099468" clip-path="url(#clip-path-2)">
        <g id="busqueda-de-talentos_1_" data-name="busqueda-de-talentos (1)" transform="translate(-8696.476 -7726.98)">
          <path id="Path_1269519" data-name="Path 1269519" d="M31.159,74.188H44.513a2.968,2.968,0,0,1,2.968,2.968v11.87a2.968,2.968,0,0,1-2.968,2.968H5.935a2.968,2.968,0,0,1-2.968-2.968V77.156a2.968,2.968,0,0,1,2.968-2.968H19.289L25.224,63.8Z" fill="#f0ae42"/>
          <path id="Path_1269520" data-name="Path 1269520" d="M5.935,74.188a2.968,2.968,0,0,0-2.968,2.968v11.87l.4.4H37.094a2.968,2.968,0,0,0,2.968-2.968V74.188h-8.9L25.224,63.8,19.289,74.188Z" fill="#f9d266"/>
          <path id="Path_1269521" data-name="Path 1269521" d="M55.048,55.048a28.363,28.363,0,0,1-8.9,8.9l26.2,26.2a6.3,6.3,0,1,0,8.9-8.9Z" fill="#5e87ca"/>
          <path id="Path_1269522" data-name="Path 1269522" d="M75.311,81.246,52.494,58.429a28.294,28.294,0,0,1-6.349,5.521l26.2,26.2a6.281,6.281,0,0,0,1.484,1.068,6.264,6.264,0,0,0,1.484-9.971Z" fill="#78a0d4"/>
          <path id="Path_1269523" data-name="Path 1269523" d="M43.029,26.708V20.5a8.9,8.9,0,0,0-1.5-4.94l-1.472-2.207-1.978,1.484a14.838,14.838,0,0,1-8.9,2.968H25.224a5.935,5.935,0,0,0-5.935,5.935v2.968l-1.853-2.47A12.989,12.989,0,0,1,21.384,5.165a16.655,16.655,0,0,1,8.263-2.2h3.024a16.655,16.655,0,0,1,8.263,2.194,12.992,12.992,0,0,1,3.948,19.077Z" fill="#c18e59"/>
          <path id="Path_1269524" data-name="Path 1269524" d="M47.466,17.063a28.192,28.192,0,0,1-16.307,51.19,28.628,28.628,0,0,1-3.515-.217L25.224,63.8l-1.911,3.344a28.2,28.2,0,0,1-8.46-50.083,12.986,12.986,0,0,0,2.583,7.175l1,1.335a19.289,19.289,0,1,0,25.452,0l1-1.335a12.986,12.986,0,0,0,2.583-7.175Z" fill="#4c6cb5"/>
          <path id="Path_1269525" data-name="Path 1269525" d="M43.885,25.567a19.289,19.289,0,1,1-25.452,0l.856,1.141a11.87,11.87,0,0,0,23.74,0Z" fill="#e2e7f6"/>
          <path id="Path_1269526" data-name="Path 1269526" d="M35.61,37.714v6.8a8.02,8.02,0,0,1-8.9,0v-6.8a11.9,11.9,0,0,0,8.9,0Z" fill="#f2b9a1"/>
          <path id="Path_1269527" data-name="Path 1269527" d="M47.448,50.4a19.289,19.289,0,0,1-32.578,0,12.351,12.351,0,0,1,8.211-5.282l3.626-.6a8.02,8.02,0,0,0,8.9,0l3.626.6A12.351,12.351,0,0,1,47.448,50.4Z" fill="#b52f28"/>
          <path id="Path_1269528" data-name="Path 1269528" d="M43.029,26.708V20.5a8.9,8.9,0,0,0-1.5-4.94l-1.472-2.207-1.978,1.484a14.838,14.838,0,0,1-8.9,2.968H25.224a5.935,5.935,0,0,0-5.935,5.935v2.968a11.87,11.87,0,0,0,23.74,0Z" fill="#f7d2b7"/>
          <path id="Path_1269529" data-name="Path 1269529" d="M80.123,19.289l7.419-7.419h-8.9l-4.451-8.9-4.451,8.9h-8.9l7.419,7.42L65.286,29.675l8.9-7.419,8.9,7.419Z" fill="#f9d266"/>
          <path id="Path_1269530" data-name="Path 1269530" d="M84.575,48.964l7.419-7.419h-8.9l-4.451-8.9-4.451,8.9h-8.9l7.419,7.42L69.737,59.351l8.9-7.419,8.9,7.419Z" fill="#f9d266"/>
          <path id="Path_1269531" data-name="Path 1269531" d="M7.419,84.575h35.61v2.968H7.419Z" fill="#fce797"/>
          <path id="Path_1269532" data-name="Path 1269532" d="M10.386,78.639H40.062v2.968H10.386Z" fill="#fce797"/>
          <path id="Path_1269533" data-name="Path 1269533" d="M41.545,45.743a12.452,12.452,0,0,0-2.309-.626l-3.626-.6a8.023,8.023,0,0,1-8.9,0l-3.625.6A12.351,12.351,0,0,0,14.87,50.4a19.374,19.374,0,0,0,4.02,4.5H38.578a2.968,2.968,0,0,0,2.968-2.968Z" fill="#d23f34"/>
          <path id="Path_1269534" data-name="Path 1269534" d="M56.885,54.788A29.573,29.573,0,0,0,48.955,16.33,14.5,14.5,0,0,0,41.67,3.874a18.163,18.163,0,0,0-9-2.39H29.646a18.163,18.163,0,0,0-9,2.39A14.507,14.507,0,0,0,13.354,16.33a29.653,29.653,0,0,0,7.767,51.648L18.427,72.7H5.935a4.451,4.451,0,0,0-4.451,4.451v11.87a4.451,4.451,0,0,0,4.451,4.451H44.513a4.451,4.451,0,0,0,4.451-4.451V77.156A4.451,4.451,0,0,0,44.513,72.7H32.02L30.309,69.71c.283.009.567.027.85.027a29.441,29.441,0,0,0,14.725-3.948L71.295,91.2a7.779,7.779,0,0,0,11-11ZM22.118,6.45a15.206,15.206,0,0,1,7.527-2h3.025a15.206,15.206,0,0,1,7.527,2,11.455,11.455,0,0,1,4.315,15.6V20.5a10.366,10.366,0,0,0-1.743-5.763L41.3,12.53a1.484,1.484,0,0,0-2.125-.364l-1.979,1.484a13.421,13.421,0,0,1-8.012,2.671H25.224a7.431,7.431,0,0,0-7.27,5.959A11.425,11.425,0,0,1,22.118,6.45Zm3.106,32.2v4.6l-2.384.4a13.873,13.873,0,0,0-7.716,4.1A17.691,17.691,0,0,1,17.893,28.2a13.37,13.37,0,0,0,7.331,10.455Zm2.968,1.065a12.964,12.964,0,0,0,5.935,0v3.95a6.529,6.529,0,0,1-5.935,0Zm2.968-2.623A10.4,10.4,0,0,1,20.773,26.708V23.74a4.451,4.451,0,0,1,4.451-4.451h3.957a16.424,16.424,0,0,0,9.793-3.264l.723-.543.6.9A7.41,7.41,0,0,1,41.545,20.5v6.207A10.4,10.4,0,0,1,31.159,37.094Zm-7.834,9.487,3.116-.519a9.287,9.287,0,0,0,9.437,0l3.116.519a10.907,10.907,0,0,1,6.619,3.839,17.749,17.749,0,0,1-28.907,0,10.915,10.915,0,0,1,6.619-3.838Zm23.866,1.171a13.869,13.869,0,0,0-7.716-4.1l-2.381-.4v-4.6a13.364,13.364,0,0,0,7.33-10.45,17.691,17.691,0,0,1,2.769,19.55Zm-2.678,27.92A1.484,1.484,0,0,1,46,77.156v11.87a1.484,1.484,0,0,1-1.484,1.484H5.935a1.484,1.484,0,0,1-1.484-1.484V77.156a1.484,1.484,0,0,1,1.484-1.484H19.289a1.484,1.484,0,0,0,1.288-.742l4.647-8.137,4.647,8.131a1.484,1.484,0,0,0,1.288.748ZM28.548,66.63,26.51,63.069a1.543,1.543,0,0,0-2.576,0l-1.307,2.288a26.68,26.68,0,0,1-8.868-45.541,14.572,14.572,0,0,0,2.49,5.312l.218.3a20.773,20.773,0,1,0,29.379,0l.218-.3a14.532,14.532,0,0,0,2.49-5.313A26.7,26.7,0,0,1,31.159,66.769C30.287,66.769,29.413,66.714,28.548,66.63ZM76.8,90.51a4.776,4.776,0,0,1-3.4-1.41L48.433,64.142a29.853,29.853,0,0,0,6.8-6.8L80.2,82.3a4.812,4.812,0,0,1-3.4,8.214Z"/>
          <path id="Path_1269535" data-name="Path 1269535" d="M66.587,19.721l-2.73,9.547a1.484,1.484,0,0,0,2.374,1.548l7.957-6.629,7.95,6.626a1.484,1.484,0,0,0,2.374-1.546l-2.727-9.548,6.8-6.8a1.484,1.484,0,0,0-1.045-2.53H79.556L75.524,2.3a1.546,1.546,0,0,0-2.656,0L68.82,10.386H60.834a1.484,1.484,0,0,0-1.049,2.533Zm3.15-6.367a1.484,1.484,0,0,0,1.335-.821l3.116-6.248L77.3,12.533a1.484,1.484,0,0,0,1.335.821H83.96L79.074,18.24A1.484,1.484,0,0,0,78.7,19.7l1.644,5.757-5.2-4.336a1.484,1.484,0,0,0-1.9,0l-5.2,4.336L69.681,19.7A1.484,1.484,0,0,0,69.3,18.24l-4.886-4.886Z"/>
          <path id="Path_1269536" data-name="Path 1269536" d="M93.364,40.977a1.484,1.484,0,0,0-1.371-.915H84.008L79.975,31.98a1.546,1.546,0,0,0-2.656,0l-4.048,8.082H65.286a1.484,1.484,0,0,0-1.049,2.533l6.8,6.8-2.73,9.547a1.484,1.484,0,0,0,2.374,1.548l7.956-6.629,7.95,6.626a1.484,1.484,0,0,0,2.374-1.546l-2.727-9.548,6.8-6.8a1.484,1.484,0,0,0,.326-1.614Zm-9.839,6.938a1.484,1.484,0,0,0-.378,1.456l1.644,5.757-5.2-4.336a1.484,1.484,0,0,0-1.9,0l-5.2,4.336,1.645-5.756a1.484,1.484,0,0,0-.378-1.457l-4.886-4.886h5.321a1.484,1.484,0,0,0,1.335-.821l3.116-6.248,3.116,6.248a1.484,1.484,0,0,0,1.335.821h5.321Z"/>
          <path id="Path_1269537" data-name="Path 1269537" d="M7.417,84.575h35.61v2.968H7.417Z"/>
          <path id="Path_1269538" data-name="Path 1269538" d="M10.385,78.639H40.06v2.968H10.385Z"/>
        </g>
      </g>
    </g>
  </g>
</svg>
