<svg xmlns="http://www.w3.org/2000/svg" xmlns:xlink="http://www.w3.org/1999/xlink" width="115" height="115" viewBox="0 0 115 115">
  <defs>
    <clipPath id="clip-path">
      <rect id="Rectangle_411897" data-name="Rectangle 411897" width="115" height="115" transform="translate(800.781 1954)" fill="#e8bad8" opacity="0.41"/>
    </clipPath>
    <clipPath id="clip-path-2">
      <rect id="Rectangle_411898" data-name="Rectangle 411898" width="98" height="95" transform="translate(-9003 -7705)" fill="#fff" stroke="#707070" stroke-width="1" opacity="0"/>
    </clipPath>
  </defs>
  <g id="Group_1204115" data-name="Group 1204115" transform="translate(9012 7715)">
    <g id="Group_1204113" data-name="Group 1204113">
      <g id="Mask_Group_1099470" data-name="Mask Group 1099470" transform="translate(-9812.781 -9669)" clip-path="url(#clip-path)">
        <g id="Group_1204112" data-name="Group 1204112" transform="translate(799.781 1960.273)">
          <g id="Group_1204111" data-name="Group 1204111" transform="translate(1)">
            <ellipse id="Ellipse_12748" data-name="Ellipse 12748" cx="28.658" cy="28.658" rx="28.658" ry="28.658" transform="translate(56.527 44.289)" fill="#b8b1fc"/>
            <ellipse id="Ellipse_12749" data-name="Ellipse 12749" cx="20.842" cy="20.842" rx="20.842" ry="20.842" fill="#b8b1fc"/>
          </g>
        </g>
      </g>
      <g id="Mask_Group_1099471" data-name="Mask Group 1099471" clip-path="url(#clip-path-2)">
        <g id="coherencia" transform="translate(-9006.273 -7709.773)">
          <path id="Path_1269539" data-name="Path 1269539" d="M47.058,8.766A1.3,1.3,0,0,1,49.31,7.471l3.042,5.268a1.3,1.3,0,0,1-.475,1.771v0l-5.268,3.042a1.3,1.3,0,1,1-1.3-2.252l2.716-1.568A23.981,23.981,0,0,0,22.282,27.277a1.3,1.3,0,0,1-2.364-1.1A26.606,26.606,0,0,1,48.445,11.168l-1.387-2.4Z" fill-rule="evenodd"/>
          <path id="Path_1269540" data-name="Path 1269540" d="M26.937,31.2a1.3,1.3,0,0,1,1.814.316l4.843,6.9a7.018,7.018,0,0,1,7.961,11.334L46.4,56.64a1.3,1.3,0,0,1-.316,1.814L38.2,63.991a1.3,1.3,0,0,1-1.814-.316,4.413,4.413,0,0,0-7.224,5.072,1.3,1.3,0,0,1-.316,1.814L25.183,73.13c.879,2.861.855,4.6-.584,9.161l.332,2.3a2.734,2.734,0,0,1,2.356.265,2.048,2.048,0,0,1,.8,1.352l.959,6.63a2.049,2.049,0,0,1-1.738,2.319L9.68,97.705a2.048,2.048,0,0,1-2.319-1.738l-.947-6.546a2.052,2.052,0,0,1,1.8-2.413l.906-.131-.353-2.439L5.34,76.112c-1.223-2.971-1.573-9.84.626-12.6l2.42-3.04L4.435,54.843A6.427,6.427,0,0,1,6,45.906L26.936,31.2Z" fill-rule="evenodd"/>
          <path id="Path_1269541" data-name="Path 1269541" d="M74.365,54.489l-4.023-.146a7.02,7.02,0,0,1-7.05,5.466v0a7.013,7.013,0,0,1-6.73-5.963l-8.725-.317a1.3,1.3,0,0,1-1.253-1.345l.345-9.523a1.3,1.3,0,0,1,1.383-1.32,4.45,4.45,0,0,0,3.484-7.5,4.379,4.379,0,0,0-3.2-1.365,1.3,1.3,0,0,1-1.253-1.345L47.7,21.5a1.3,1.3,0,0,1,1.345-1.253l24.364.884a7.914,7.914,0,0,1,7.608,8.178l-.128,3.519,3.687,1.232c3.349,1.12,6.8,7.056,7.392,10.228l1.662,8.854,1.03,2.233c.868-.4,1.518-.828,2.467-.479a2.046,2.046,0,0,1,1.154,1.065l2.807,6.082a2.05,2.05,0,0,1-1,2.719l-16.1,7.429a2.054,2.054,0,0,1-2.831-1.043l-2.771-6.006a2.049,2.049,0,0,1,1-2.718l.767-.354-.973-2.108c-2.788-2.3-4.022-3.685-4.813-5.472Z" fill-rule="evenodd"/>
          <path id="Path_1269542" data-name="Path 1269542" d="M24.31,70.562l2.068-1.452a7.019,7.019,0,0,1,11.287-7.927l5.853-4.111L38.728,50.25a1.3,1.3,0,0,1,.39-1.862A4.413,4.413,0,1,0,34.005,41.2a1.309,1.309,0,0,1-1.881-.347l-4.755-6.771L7.5,48.036a3.83,3.83,0,0,0-.929,5.309L15.215,65.66l-.3-2.094A3.857,3.857,0,0,1,22.535,62.4l1.4,7.109.372,1.051Z" fill="#696" fill-rule="evenodd"/>
          <path id="Path_1269543" data-name="Path 1269543" d="M18.57,70.673a1.3,1.3,0,0,1-2.371.919l-6.253-8.9L8,65.128a7.961,7.961,0,0,0-1.023,4.2,15.445,15.445,0,0,0,.764,5.795l3.491,8.483a1.3,1.3,0,0,1,.085.311h0L11.7,86.5l10.658-1.542-.375-2.593h0a1.3,1.3,0,0,1,.049-.581c1.658-5.178,1.285-6.231-.183-10.38-.058-.165-.122-.344-.372-1.061-.142-.367-1.316-6.523-1.5-7.447a1.314,1.314,0,0,0-2.039-.895,1.141,1.141,0,0,0-.449,1.193l1.081,7.473Z" fill="#f6bfac" fill-rule="evenodd"/>
          <path id="Path_1269544" data-name="Path 1269544" d="M77.991,40.9l.424-11.688a5.321,5.321,0,0,0-5.1-5.488l-23.066-.837-.259,7.122a7.042,7.042,0,0,1-.5,13.88l-.257,7.082,8.6.312a1.3,1.3,0,0,1,1.254,1.3h0a1.372,1.372,0,0,1-.007.14A4.418,4.418,0,0,0,63.292,57.2v0a1.369,1.369,0,0,1,.14.007A4.418,4.418,0,0,0,67.909,53h0a1.3,1.3,0,0,1,1.458-1.3l4.136.15c-.15-.576-.3-1.208-.472-1.916-.053-.22-.107-.446-.259-1.068l-2.693-6.721a3.905,3.905,0,0,1,3.639-5.431A3.633,3.633,0,0,1,77.1,38.983l.887,1.922Z" fill="#eb5757" fill-rule="evenodd"/>
          <path id="Path_1269545" data-name="Path 1269545" d="M80.787,35.537l-.393,10.837a1.3,1.3,0,0,1-2.484.569l-3.17-6.87a1.191,1.191,0,0,0-2.046-.3,1.279,1.279,0,0,0-.2,1.409c.331.827,2.722,6.707,2.793,7.028l.271,1.127c1.026,4.273,1.287,5.358,5.5,8.8a1.3,1.3,0,0,1,.361.464h0l1.1,2.377,9.779-4.512c-.2-.438-1.133-2.36-1.194-2.683l-1.693-9.016a15.451,15.451,0,0,0-2.517-5.276,7.965,7.965,0,0,0-3.142-2.965l-2.96-.989Z" fill="#f6bfac" fill-rule="evenodd"/>
          <g id="Group_1204114" data-name="Group 1204114">
            <path id="Path_1269546" data-name="Path 1269546" d="M24.014,87.354,9.06,89.517l.8,5.532,16.533-2.392-.8-5.532Z" fill="#6babff" fill-rule="evenodd"/>
            <path id="Path_1269547" data-name="Path 1269547" d="M82.428,63.886l-1.45.669,2.342,5.076,15.168-7-2.342-5.075Z" fill="#6babff" fill-rule="evenodd"/>
          </g>
        </g>
      </g>
    </g>
  </g>
</svg>
