<svg xmlns="http://www.w3.org/2000/svg" xmlns:xlink="http://www.w3.org/1999/xlink" width="95" height="95" viewBox="0 0 95 95">
  <defs>
    <clipPath id="clip-path">
      <rect id="Rectangle_411856" data-name="Rectangle 411856" width="95" height="95" fill="#fff"/>
    </clipPath>
    <filter id="Rectangle_411855" x="-6.996" y="-1.682" width="73.583" height="103.579" filterUnits="userSpaceOnUse">
      <feOffset dy="3" input="SourceAlpha"/>
      <feGaussianBlur stdDeviation="3" result="blur"/>
      <feFlood flood-opacity="0.161"/>
      <feComposite operator="in" in2="blur"/>
      <feComposite in="SourceGraphic"/>
    </filter>
    <clipPath id="clip-path-2">
      <rect id="Rectangle_411900" data-name="Rectangle 411900" width="54.738" height="63.584" fill="#fff" stroke="#707070" stroke-width="1" opacity="0"/>
    </clipPath>
  </defs>
  <g id="Group_1204124" data-name="Group 1204124" transform="translate(8798.65 7249.558)">
    <g id="Group_1204126" data-name="Group 1204126" transform="translate(-8798.65 -7249.558)">
      <g id="Group_1204125" data-name="Group 1204125" transform="translate(0)">
        <g id="Mask_Group_1099454" data-name="Mask Group 1099454" clip-path="url(#clip-path)">
          <g id="Group_1204074" data-name="Group 1204074" transform="translate(2.004 4.318)">
            <g transform="matrix(1, 0, 0, 1, -2, -4.32)" filter="url(#Rectangle_411855)">
              <path id="Rectangle_411855-2" data-name="Rectangle 411855" d="M10,0H45.583a10,10,0,0,1,10,10V85.579a0,0,0,0,1,0,0H0a0,0,0,0,1,0,0V10A10,10,0,0,1,10,0Z" transform="translate(2 4.32)" fill="#3a6673"/>
            </g>
          </g>
        </g>
      </g>
      <g id="Mask_Group_1099473" data-name="Mask Group 1099473" transform="translate(16.031 25.808)" clip-path="url(#clip-path-2)">
        <g id="marca" transform="translate(0 3.456)">
          <g id="Fill_1" data-name="Fill 1" transform="translate(0.944 0.977)">
            <ellipse id="Ellipse_12751" data-name="Ellipse 12751" cx="26.425" cy="27.359" rx="26.425" ry="27.359" fill="#00e75c"/>
          </g>
          <g id="Fill_2" data-name="Fill 2" transform="translate(13.651 18.042)">
            <path id="Path_1269560" data-name="Path 1269560" d="M35.578,43.572,30.387,38.2a3.257,3.257,0,0,0-4.719,0,3.542,3.542,0,0,0,0,4.886l7.24,7.5a3.685,3.685,0,0,0,5.339,0L52.093,36.244a3.542,3.542,0,0,0,0-4.886,3.257,3.257,0,0,0-4.719,0Z" transform="translate(-24.691 -30.346)" fill="#c3e7f4"/>
          </g>
          <g id="Effect_Line" data-name="Effect Line" transform="translate(4.719 5.863)">
            <path id="Path_1269561" data-name="Path 1269561" d="M58.91,70.163a.952.952,0,0,1-.922-.768.987.987,0,0,1,.528-1.1A22.278,22.278,0,0,0,70.24,54.417a.938.938,0,0,1,1.177-.65.983.983,0,0,1,.628,1.219A24.212,24.212,0,0,1,59.3,70.074a.912.912,0,0,1-.393.089Z" transform="translate(-26.822 -25.387)" fill="#00ad45"/>
            <g id="Group_1204127" data-name="Group 1204127">
              <path id="Path_1269562" data-name="Path 1269562" d="M12.254,30.343a.935.935,0,0,1-.757-.394,1.007,1.007,0,0,1-.148-.864,24.488,24.488,0,0,1,9.58-13.371.924.924,0,0,1,1.309.273,1,1,0,0,1-.264,1.355,22.53,22.53,0,0,0-8.817,12.3A.949.949,0,0,1,12.254,30.343Z" transform="translate(-11.31 -13.597)" fill="#8dff8d"/>
              <ellipse id="Ellipse_12752" data-name="Ellipse 12752" cx="0.944" cy="0.977" rx="0.944" ry="0.977" transform="translate(12.269)" fill="#8dff8d"/>
            </g>
          </g>
          <g id="Line">
            <path id="Path_1269563" data-name="Path 1269563" d="M31.61,4.241c-15.115,0-27.369,12.687-27.369,28.337S16.495,60.914,31.61,60.914,58.979,48.228,58.979,32.578C58.962,16.935,46.718,4.259,31.61,4.241Zm0,54.719c-14.073,0-25.481-11.812-25.481-26.382S17.537,6.2,31.61,6.2,57.091,18.007,57.091,32.578C57.075,47.142,45.676,58.944,31.61,58.96Z" transform="translate(-4.241 -4.241)"/>
            <path id="Path_1269564" data-name="Path 1269564" d="M46.238,30.231,35.108,41.754l-4.523-4.683a4.178,4.178,0,0,0-6.053,0,4.543,4.543,0,0,0,0,6.267l7.24,7.5a4.61,4.61,0,0,0,6.673,0L52.291,36.5a4.543,4.543,0,0,0,0-6.267,4.178,4.178,0,0,0-6.053,0Zm4.719,4.886L37.11,49.452a2.767,2.767,0,0,1-4,0l-7.24-7.5a2.54,2.54,0,0,1,0-3.5,2.336,2.336,0,0,1,3.384,0l5.191,5.374a.921.921,0,0,0,1.334,0l11.8-12.214a2.336,2.336,0,0,1,3.384,0,2.54,2.54,0,0,1,0,3.5Z" transform="translate(-10.57 -11.868)"/>
          </g>
        </g>
      </g>
    </g>
  </g>
</svg>
