<svg xmlns="http://www.w3.org/2000/svg" xmlns:xlink="http://www.w3.org/1999/xlink" width="90" height="90" viewBox="0 0 90 90">
  <defs>
    <clipPath id="clip-path">
      <rect id="Rectangle_411914" data-name="Rectangle 411914" width="90" height="90" fill="#e8bad8" opacity="0.41"/>
    </clipPath>
    <clipPath id="clip-path-2">
      <rect id="Rectangle_411915" data-name="Rectangle 411915" width="73.775" height="74" transform="translate(0)" fill="#fff" stroke="#707070" stroke-width="1" opacity="0"/>
    </clipPath>
  </defs>
  <g id="Group_1204162" data-name="Group 1204162" transform="translate(7790.661 3264.471)">
    <g id="Group_1204164" data-name="Group 1204164" transform="translate(-7790.661 -3264.471)">
      <g id="Mask_Group_1099484" data-name="Mask Group 1099484" transform="translate(0 0)" clip-path="url(#clip-path)">
        <g id="Group_1204163" data-name="Group 1204163" transform="translate(0 4.909)">
          <g id="Group_1204162-2" data-name="Group 1204162" transform="translate(0)">
            <ellipse id="Ellipse_12775" data-name="Ellipse 12775" cx="22.428" cy="22.428" rx="22.428" ry="22.428" transform="translate(44.238 34.661)" fill="#b8b1fc"/>
            <ellipse id="Ellipse_12776" data-name="Ellipse 12776" cx="16.311" cy="16.311" rx="16.311" ry="16.311" fill="#b8b1fc"/>
          </g>
        </g>
      </g>
      <g id="Mask_Group_1099485" data-name="Mask Group 1099485" transform="translate(7.661 8.696)" clip-path="url(#clip-path-2)">
        <g id="involucrado" transform="translate(0.002 3.836)">
          <path id="Path_1269622" data-name="Path 1269622" d="M46.239,34.972a2.349,2.349,0,0,1-3.227-.879,2.431,2.431,0,0,1,.864-3.28l16.905-9.922a4.613,4.613,0,0,1,3.442-.505,4.576,4.576,0,0,0,3.52-.521L72.292,17.2l7.525,13.251L75.14,33.193a2.378,2.378,0,0,0-1.18,1.784,6.859,6.859,0,0,1-1.621,3.5,2.992,2.992,0,0,1-.6.546c-2.319,1.631-3.162,6.1-3.048,9.373a2.389,2.389,0,0,1-.727,1.84,2.3,2.3,0,0,1-1.83.685c-.057,0-.114-.008-.169-.014a2.4,2.4,0,0,1-2.155-2.039,15.518,15.518,0,0,1,.612-7.925L50.931,48.859A2.349,2.349,0,0,1,47.7,47.98a2.431,2.431,0,0,1,.864-3.28l-1.742,1.023a2.349,2.349,0,0,1-3.227-.879,2.431,2.431,0,0,1,.864-3.28l1.792-1.052a2.349,2.349,0,0,1-3.227-.879,2.431,2.431,0,0,1,.864-3.28Z" transform="translate(-12.146 -10.35)" fill="#ffd6bd" fill-rule="evenodd"/>
          <path id="Path_1269623" data-name="Path 1269623" d="M0,0,7.49-.054,7.346,20.2l-7.49.054Z" transform="translate(56.74 5.931) rotate(-30.001)" fill="#3fd5e4" fill-rule="evenodd"/>
          <path id="Path_1269624" data-name="Path 1269624" d="M39.988,42.978a2.429,2.429,0,0,1,.864,3.28,2.346,2.346,0,0,1-3.227.879L20.721,37.214a4.764,4.764,0,0,1-2.152-2.778,4.7,4.7,0,0,0-2.2-2.838L11.818,28.93l7.525-13.251,4.677,2.745a2.3,2.3,0,0,0,2.11.145,6.6,6.6,0,0,1,3.79-.322,3,3,0,0,1,.764.255c2.548,1.226,6.779-.267,9.509-2a2.288,2.288,0,0,1,1.932-.278,2.329,2.329,0,0,1,1.5,1.27l.074.155a2.443,2.443,0,0,1-.66,2.916,14.934,14.934,0,0,1-7.058,3.424L49.47,31.9a2.429,2.429,0,0,1,.864,3.28,2.346,2.346,0,0,1-3.227.879l1.742,1.023a2.429,2.429,0,0,1,.864,3.28,2.346,2.346,0,0,1-3.227.879L44.7,40.193a2.429,2.429,0,0,1,.864,3.28,2.346,2.346,0,0,1-3.227.879Z" transform="translate(-5.362 -10.037)" fill="#ffd6bd" fill-rule="evenodd"/>
          <path id="Path_1269625" data-name="Path 1269625" d="M0,0,20.256-.144,20.2,7.346-.054,7.49Z" transform="translate(0.921 18.554) rotate(-59.999)" fill="#fbdf00" fill-rule="evenodd"/>
          <path id="Path_1269626" data-name="Path 1269626" d="M49.92,42.364a2.363,2.363,0,1,1,4.725,0V62.207a4.807,4.807,0,0,1-1.292,3.283,4.758,4.758,0,0,0-1.316,3.36v5.338H36.986V68.7a2.389,2.389,0,0,0-.93-1.931,6.819,6.819,0,0,1-2.17-3.175,3.167,3.167,0,0,1-.166-.8c-.229-2.856-3.616-5.835-6.461-7.37a2.356,2.356,0,0,1-1.2-1.56,2.4,2.4,0,0,1,.332-1.954c.032-.048.063-.1.1-.142a2.355,2.355,0,0,1,2.814-.877,15.038,15.038,0,0,1,6.446,4.5V39.551a2.363,2.363,0,1,1,4.725,0V37.5a2.363,2.363,0,1,1,4.725,0v2.1a2.363,2.363,0,1,1,4.725,0v2.756Z" transform="translate(-8.473 -14.052)" fill="#ffd6bd" fill-rule="evenodd"/>
          <path id="Path_1269627" data-name="Path 1269627" d="M36.91,81.172H56.917v7.583H36.91Z" transform="translate(-10.874 -23.577)" fill="#f94d3a" fill-rule="evenodd"/>
          <path id="Path_1269628" data-name="Path 1269628" d="M70.628,30.832l-9.082-15.99,4.861-2.853,9.082,15.99Zm-4.552-.239,1.713-1.005-6.6-11.626-1.584.93a5.479,5.479,0,0,1-4.2.621,3.711,3.711,0,0,0-2.767.4L42.111,26.1l2.879,1.69.972-.571a.916.916,0,0,1,1.261.342.947.947,0,0,1-.338,1.282l-.049.028,1.278.75a3.32,3.32,0,0,1,1.529,2.029,3.365,3.365,0,0,1-.325,2.533l-.009.017a3.33,3.33,0,0,1,1.113,1.493l.266-.156a.916.916,0,0,1,1.261.344.944.944,0,0,1-.338,1.28l-.972.571v3.38l4.72-2.771a.915.915,0,0,1,1.066.1.949.949,0,0,1,.252,1.057,14.68,14.68,0,0,0-.558,7.427,1.472,1.472,0,0,0,1.327,1.255l.146.013a1.394,1.394,0,0,0,1.127-.422,1.443,1.443,0,0,0,.449-1.134c-.1-2.811.517-8.119,3.445-10.178a2.155,2.155,0,0,0,.426-.388,5.985,5.985,0,0,0,1.4-3.011,3.319,3.319,0,0,1,1.632-2.47ZM48.793,56.721a3.865,3.865,0,0,1-1.038,2.639,5.7,5.7,0,0,0-1.569,4v1.859h-13.2V63.211A3.336,3.336,0,0,0,31.7,60.539,5.865,5.865,0,0,1,29.832,57.8a2.191,2.191,0,0,1-.118-.571c-.291-3.607-4.5-6.8-6.947-8.122a1.427,1.427,0,0,1-.741-.962,1.447,1.447,0,0,1,.2-1.2c.028-.042.055-.083.083-.124a1.447,1.447,0,0,1,1.733-.541,14.218,14.218,0,0,1,6.047,4.2.913.913,0,0,0,1.027.306.936.936,0,0,0,.62-.886V34.065a1.44,1.44,0,1,1,2.879,0V47.192a.923.923,0,1,0,1.846,0V32.018a1.44,1.44,0,1,1,2.879,0V47.192a.923.923,0,1,0,1.846,0V34.1a1.44,1.44,0,1,1,2.879.025V47.192a.923.923,0,1,0,1.846,0V36.878a1.44,1.44,0,1,1,2.879,0Zm-.129,16.085H30.5V67.1H48.664Zm-29.3-37.875A3.817,3.817,0,0,1,17.636,32.7a5.632,5.632,0,0,0-2.627-3.383l-1.584-.93,6.6-11.625,1.713,1.005a3.21,3.21,0,0,0,2.921.2,5.667,5.667,0,0,1,3.267-.269,2.107,2.107,0,0,1,.544.181c3.217,1.549,8.047-.564,10.392-2.056a1.4,1.4,0,0,1,1.19-.172,1.412,1.412,0,0,1,.923.782c.022.045.043.091.063.134a1.5,1.5,0,0,1-.406,1.8,14.112,14.112,0,0,1-6.605,3.221.93.93,0,0,0-.774.752.946.946,0,0,0,.444.99l13.491,7.919a1.449,1.449,0,0,1,.667.888,1.475,1.475,0,0,1-.141,1.11,1.407,1.407,0,0,1-.228.3c-.046,0-.091-.006-.137-.006a3.221,3.221,0,0,0-1.452.347,3.311,3.311,0,0,0-3.274-3.1,3.218,3.218,0,0,0-1.549.4,3.3,3.3,0,0,0-3.177-2.5,3.184,3.184,0,0,0-.706.08l-2.627-1.542a.915.915,0,0,0-1.261.342.947.947,0,0,0,.338,1.282l1.747,1.026a3.343,3.343,0,0,0-.654,1.26,3.222,3.222,0,0,0-1.563-.4,3.316,3.316,0,0,0-3.285,3.34v1.5l-.049-.028a.916.916,0,0,0-1.261.344.945.945,0,0,0,.338,1.28l.972.571v3.38Zm-8.777-5.3,9.082-15.99-4.861-2.853L5.726,26.776Zm66.961-1.778-10-17.614a.915.915,0,0,0-1.26-.344l-6.459,3.791a.944.944,0,0,0-.431.571.957.957,0,0,0,.092.711l.778,1.37-1.584.93a3.67,3.67,0,0,1-2.844.421,5.514,5.514,0,0,0-4.119.605L40.267,25.014,36.6,22.859A17.383,17.383,0,0,0,41.8,19.817a3.376,3.376,0,0,0,.912-4.037c-.026-.058-.054-.117-.083-.175a3.258,3.258,0,0,0-2.073-1.757,3.2,3.2,0,0,0-2.673.386c-2.713,1.726-6.547,2.949-8.625,1.95a3.933,3.933,0,0,0-.986-.327,7.485,7.485,0,0,0-4.314.374,1.393,1.393,0,0,1-1.3-.089L20.95,15.136l.778-1.371a.945.945,0,0,0-.338-1.28L14.931,8.693a.915.915,0,0,0-1.261.342l-10,17.616a.94.94,0,0,0-.123.463v.006a.935.935,0,0,0,.461.81l6.459,3.791a.9.9,0,0,0,.461.127.886.886,0,0,0,.238-.033.917.917,0,0,0,.56-.436l.778-1.371,1.584.93a3.769,3.769,0,0,1,1.781,2.294,5.676,5.676,0,0,0,2.575,3.322l11.452,6.723v4.309a17.443,17.443,0,0,0-5.2-3.066A3.255,3.255,0,0,0,20.8,45.735c-.037.053-.072.106-.109.161a3.349,3.349,0,0,0-.46,2.7A3.291,3.291,0,0,0,21.9,50.761c2.827,1.526,5.786,4.289,5.973,6.618a4.066,4.066,0,0,0,.214,1.03,7.718,7.718,0,0,0,2.476,3.61,1.45,1.45,0,0,1,.574,1.19v2.012H29.58a.93.93,0,0,0-.923.938v7.583a.931.931,0,0,0,.923.938H49.587a.93.93,0,0,0,.923-.938V66.16a.929.929,0,0,0-.923-.938H48.03V63.363a3.808,3.808,0,0,1,1.064-2.714,5.749,5.749,0,0,0,1.544-3.929V43.277l3.671-2.154a18.06,18.06,0,0,0-.012,6.107,3.306,3.306,0,0,0,2.984,2.821c.063.006.126.011.191.016.08,0,.158.008.235.008a3.206,3.206,0,0,0,2.3-.955,3.322,3.322,0,0,0,1.007-2.547c-.114-3.25.761-7.239,2.65-8.568a3.953,3.953,0,0,0,.772-.7,7.78,7.78,0,0,0,1.838-3.985,1.438,1.438,0,0,1,.726-1.1l1.715-1.005.778,1.37a.915.915,0,0,0,1.261.344l6.459-3.791a.945.945,0,0,0,.431-.569.957.957,0,0,0-.094-.711Z" transform="translate(-3.544 -8.566)" fill-rule="evenodd"/>
        </g>
      </g>
    </g>
  </g>
</svg>
