<svg xmlns="http://www.w3.org/2000/svg" xmlns:xlink="http://www.w3.org/1999/xlink" width="90" height="90" viewBox="0 0 90 90">
  <defs>
    <clipPath id="clip-path">
      <rect id="Rectangle_411916" data-name="Rectangle 411916" width="90" height="90" fill="#e8bad8" opacity="0.41"/>
    </clipPath>
    <clipPath id="clip-path-2">
      <rect id="Rectangle_411917" data-name="Rectangle 411917" width="74.318" height="72.14" fill="#fff" stroke="#707070" stroke-width="1" opacity="0"/>
    </clipPath>
  </defs>
  <g id="Group_1204165" data-name="Group 1204165" transform="translate(7399.66 3257.471)">
    <g id="Group_1204171" data-name="Group 1204171" transform="translate(-7399.661 -3257.471)">
      <g id="Mask_Group_1099486" data-name="Mask Group 1099486" transform="translate(0)" clip-path="url(#clip-path)">
        <g id="Group_1204166" data-name="Group 1204166" transform="translate(0 4.909)">
          <g id="Group_1204165-2" data-name="Group 1204165" transform="translate(0)">
            <ellipse id="Ellipse_12777" data-name="Ellipse 12777" cx="22.428" cy="22.428" rx="22.428" ry="22.428" transform="translate(44.238 34.661)" fill="#b8b1fc"/>
            <ellipse id="Ellipse_12778" data-name="Ellipse 12778" cx="16.311" cy="16.311" rx="16.311" ry="16.311" fill="#b8b1fc"/>
          </g>
        </g>
      </g>
      <g id="Mask_Group_1099487" data-name="Mask Group 1099487" transform="translate(7.575 10.563)" clip-path="url(#clip-path-2)">
        <g id="labor" transform="translate(0.871 0)">
          <g id="Group_1204170" data-name="Group 1204170" transform="translate(1.149 1.174)">
            <g id="Group_1204168" data-name="Group 1204168">
              <path id="Path_1269629" data-name="Path 1269629" d="M48.753,9.642A30.3,30.3,0,0,1,69.669,38.469l-.092,4.025H9.316c-.061-.781-.092-3.229-.092-4.025A30.3,30.3,0,0,1,30.14,9.642C29.5,4.711,35.476,3.38,39.446,3.38s9.945,1.331,9.306,6.262Z" transform="translate(-4.328 -3.38)" fill="#ffe177" fill-rule="evenodd"/>
              <path id="Path_1269630" data-name="Path 1269630" d="M56.756,9.642A30.3,30.3,0,0,1,77.673,38.469l-.092,4.025H74.654l.092-4.025A30.3,30.3,0,0,0,53.83,9.642c.564-4.354-4.027-5.9-7.843-6.2.506-.04,1-.059,1.463-.059,3.971,0,9.945,1.331,9.306,6.262Z" transform="translate(-12.332 -3.38)" fill="#ffd064" fill-rule="evenodd"/>
              <path id="Path_1269631" data-name="Path 1269631" d="M7.116,51.146H69.051a4.16,4.16,0,0,1,0,8.32H7.116a4.16,4.16,0,0,1,0-8.32Z" transform="translate(-2.966 -13.691)" fill="#ffc338" fill-rule="evenodd"/>
              <path id="Path_1269632" data-name="Path 1269632" d="M71.32,51.886a4.159,4.159,0,0,1-2.108,7.739H7.278a4.157,4.157,0,0,1-3.571-2.047,4.108,4.108,0,0,0,2.108.581H67.749a4.156,4.156,0,0,0,3.571-6.273Z" transform="translate(-3.127 -13.851)" fill="#f5b829" fill-rule="evenodd"/>
            </g>
            <g id="Group_1204169" data-name="Group 1204169" transform="translate(37.281 30.385)">
              <path id="Path_1269633" data-name="Path 1269633" d="M67.579,42.227l15.335,6.588a1.144,1.144,0,0,1,.7,1.071v12.6c0,9.815-7.011,17.391-16.5,19.049-9.487-1.658-16.5-9.234-16.5-19.049v-12.6a1.145,1.145,0,0,1,.7-1.071l15.335-6.588A1.122,1.122,0,0,1,67.579,42.227Z" transform="translate(-50.623 -42.13)" fill="#8ac9fe" fill-rule="evenodd"/>
              <path id="Path_1269634" data-name="Path 1269634" d="M71.968,42.227,87.3,48.815a1.144,1.144,0,0,1,.7,1.071v12.6c0,9.815-7.011,17.391-16.5,19.049-.244-.043-.486-.09-.727-.141C79.9,79.489,86.555,72.052,86.555,62.49v-12.6a1.145,1.145,0,0,0-.7-1.071L70.783,42.343l.269-.115A1.122,1.122,0,0,1,71.968,42.227Z" transform="translate(-55.012 -42.13)" fill="#60b7ff" fill-rule="evenodd"/>
              <path id="Path_1306746" data-name="Path 1306746" d="M11.637-.014A11.637,11.637,0,1,1-.014,11.637,11.6,11.6,0,0,1,11.637-.014Z" transform="translate(0.049 19.655) rotate(-45)" fill="#eceff1"/>
              <path id="Path_1269635" data-name="Path 1269635" d="M68.477,52.336c.244,0,.486.009.727.023a11.653,11.653,0,0,0,0,23.258c-.24.015-.483.023-.727.023a11.652,11.652,0,0,1,0-23.3Z" transform="translate(-51.979 -44.333)" fill="#d1d1d6" fill-rule="evenodd"/>
              <path id="Path_1269636" data-name="Path 1269636" d="M63.319,66.876a1.607,1.607,0,0,1,2.27-2.276l2.457,2.463,5.935-6a1.6,1.6,0,1,1,2.27,2.263c-3.065,3.1-3.988,4.069-7.067,7.156a1.6,1.6,0,0,1-2.27,0Z" transform="translate(-53.284 -46.114)" fill="#8ac9fe" fill-rule="evenodd"/>
            </g>
          </g>
          <path id="Path_1269637" data-name="Path 1269637" d="M54.715,55.612a1.173,1.173,0,0,0,.83-.348l5.919-5.987a.421.421,0,0,1,.3-.126h0a.424.424,0,0,1,.3.124.43.43,0,0,1,0,.606c-1.129,1.144-5.111,5.2-7.044,7.134a.432.432,0,0,1-.61,0l-3.585-3.594a.431.431,0,1,1,.609-.61l2.451,2.456a1.169,1.169,0,0,0,.828.344h0Zm-1.625-4.46a2.775,2.775,0,0,0-3.919,3.93l3.585,3.593a2.771,2.771,0,0,0,3.92,0c1.94-1.945,5.925-6,7.052-7.14a2.771,2.771,0,1,0-3.926-3.91L54.71,52.775Zm13.781,1.994A10.425,10.425,0,1,0,56.447,63.6,10.449,10.449,0,0,0,66.871,53.146Zm-23.191,0a12.766,12.766,0,1,0,12.767-12.8A12.8,12.8,0,0,0,43.68,53.146Zm28.052.7V41.285L56.447,34.719,41.16,41.285V53.85A17.967,17.967,0,0,0,56.049,71.59l.4.07.4-.07A17.967,17.967,0,0,0,71.732,53.85ZM6.816,47.659a2.987,2.987,0,0,1,0-5.974h32v5.974ZM27.5,10.907l1.9,14.707a1.171,1.171,0,1,0,2.322-.3L29.66,9.366a3.17,3.17,0,0,1,.65-2.541c1.154-1.411,3.807-2.33,7.474-2.591,3.667.261,6.32,1.18,7.475,2.591a3.169,3.169,0,0,1,.65,2.541L43.842,25.312a1.172,1.172,0,0,0,1.01,1.314,1.135,1.135,0,0,0,.152.01,1.173,1.173,0,0,0,1.16-1.022L48.07,10.907A29.018,29.018,0,0,1,66.8,36.612l-9.889-4.248a1.173,1.173,0,0,0-.924,0l-1.357.584V23.309a1.171,1.171,0,1,0-2.342,0V33.954L39.749,39.339H23.284V23.309a1.171,1.171,0,1,0-2.341,0V39.339H8.757c-.016-.4-.025-.8-.025-1.193A29.03,29.03,0,0,1,27.5,10.907ZM73.363,39.433l-4.19-1.8A31.465,31.465,0,0,0,48.279,8.485a5.28,5.28,0,0,0-1.21-3.149c-2.021-2.47-6.12-3.24-9.2-3.45a1.188,1.188,0,0,0-.158,0c-3.084.21-7.184.98-9.2,3.45a5.285,5.285,0,0,0-1.21,3.149,31.469,31.469,0,0,0-20.9,29.66c0,.4.009.8.023,1.208a5.334,5.334,0,0,0,.4,10.651h32V53.85A20.412,20.412,0,0,0,55.647,73.9a4.755,4.755,0,0,0,.8.122,4.763,4.763,0,0,0,.8-.122A20.412,20.412,0,0,0,74.073,53.85V40.512a1.175,1.175,0,0,0-.71-1.079Z" transform="translate(-1.497 -1.884)" fill-rule="evenodd"/>
        </g>
      </g>
    </g>
  </g>
</svg>
