<svg xmlns="http://www.w3.org/2000/svg" xmlns:xlink="http://www.w3.org/1999/xlink" width="90" height="90" viewBox="0 0 90 90">
  <defs>
    <clipPath id="clip-path">
      <rect id="Rectangle_411928" data-name="Rectangle 411928" width="90" height="90" fill="#e8bad8" opacity="0.41"/>
    </clipPath>
    <clipPath id="clip-path-2">
      <rect id="Rectangle_411929" data-name="Rectangle 411929" width="61.254" height="67.537" fill="#fff" stroke="#707070" stroke-width="1" opacity="0"/>
    </clipPath>
    <clipPath id="clip-path-3">
      <path id="path783" d="M0-78H61.254v61.254H0Z" transform="translate(0 78)"/>
    </clipPath>
  </defs>
  <g id="Group_1204205" data-name="Group 1204205" transform="translate(3454.95 10679.136)">
    <g id="Group_1204208" data-name="Group 1204208" transform="translate(-3454.95 -10679.136)">
      <g id="Mask_Group_1099498" data-name="Mask Group 1099498" transform="translate(0 0)" clip-path="url(#clip-path)">
        <g id="Group_1204207" data-name="Group 1204207" transform="translate(0 4.909)">
          <g id="Group_1204205-2" data-name="Group 1204205" transform="translate(0)">
            <ellipse id="Ellipse_12801" data-name="Ellipse 12801" cx="22.428" cy="22.428" rx="22.428" ry="22.428" transform="translate(44.238 34.661)" fill="#ffc94a"/>
            <ellipse id="Ellipse_12802" data-name="Ellipse 12802" cx="16.311" cy="16.311" rx="16.311" ry="16.311" fill="#ffc94a"/>
          </g>
        </g>
      </g>
      <g id="Mask_Group_1099499" data-name="Mask Group 1099499" transform="translate(14.723 11.101)" clip-path="url(#clip-path-2)">
        <g id="g777" transform="translate(0 3.141)">
          <g id="g779">
            <g id="g781" clip-path="url(#clip-path-3)">
              <g id="g787" transform="translate(42.412 36.653)">
                <path id="path789" d="M-4.51-6.341h0A3.177,3.177,0,0,1-8.9-7.3L-20.8-25.513a1.282,1.282,0,0,1,.387-1.771l3.19-2.047a1.282,1.282,0,0,1,1.771.387l11.9,18.214a3.177,3.177,0,0,1-.959,4.39" transform="translate(21.005 29.534)" fill="#e19a74"/>
              </g>
              <g id="g791" transform="translate(45.046 36.653)">
                <path id="path793" d="M-3.789-6.341a3.156,3.156,0,0,1-1.65.5A3.177,3.177,0,0,0-4.982-9.83l-11.9-18.214a1.28,1.28,0,0,0-.765-.551l1.145-.735a1.282,1.282,0,0,1,1.771.386l11.9,18.213a3.179,3.179,0,0,1-.959,4.391" transform="translate(17.651 29.534)" fill="#dc8758"/>
              </g>
              <g id="g795" transform="translate(0.885 0.905)">
                <path id="path797" d="M-3.556-.34-16.225,21.6a2.485,2.485,0,0,0,2.152,3.727H11.265A2.485,2.485,0,0,0,13.417,21.6L.748-.34a2.485,2.485,0,0,0-4.3,0" transform="translate(16.561 1.582)" fill="#fef056"/>
              </g>
              <g id="g799" transform="translate(13.956 0.905)">
                <path id="path801" d="M-4.034-7.357h-.335a2.467,2.467,0,0,0,.079-2.613L-16.958-31.914a2.452,2.452,0,0,0-1.831-1.221,2.485,2.485,0,0,1,4.238.107L-1.883-11.084A2.484,2.484,0,0,1-4.034-7.357" transform="translate(18.789 34.27)" fill="#fee903"/>
              </g>
              <g id="g803" transform="translate(0.885 0.905)">
                <path id="path805" d="M-2.1-2.864-9.436,9.845a2.485,2.485,0,0,0,2.152,3.727H18.054a2.485,2.485,0,0,0,2.152-3.727L7.537-12.1a2.485,2.485,0,0,0-4.3,0L-.081-6.359" transform="translate(9.772 13.341)" fill="none" stroke="#000" stroke-linecap="round" stroke-linejoin="round" stroke-miterlimit="10" stroke-width="2.285"/>
              </g>
              <g id="g807" transform="translate(14.822 21.548)">
                <path id="path809" d="M-.667-.333A1.22,1.22,0,0,1-1.886.886a1.22,1.22,0,0,1-1.22-1.22,1.219,1.219,0,0,1,1.22-1.219A1.219,1.219,0,0,1-.667-.333" transform="translate(3.106 1.553)"/>
              </g>
              <g id="g811" transform="translate(16.055 7.887)">
                <path id="path813" d="M0-2.771V-12.907" transform="translate(0 12.907)" fill="none" stroke="#000" stroke-linecap="round" stroke-linejoin="round" stroke-miterlimit="10" stroke-width="2.285"/>
              </g>
              <g id="g815" transform="translate(20.696 8.16)">
                <path id="path817" d="M-6.789-1.7a13.484,13.484,0,0,1-4.068,18.63,13.484,13.484,0,0,1-18.63-4.068,13.484,13.484,0,0,1,4.068-18.63A13.484,13.484,0,0,1-6.789-1.7" transform="translate(31.623 7.9)" fill="#9facba"/>
              </g>
              <g id="g819" transform="translate(29.393 8.364)">
                <path id="path821" d="M-3.3-6.733A13.466,13.466,0,0,1-15.371-5.477,13.433,13.433,0,0,0-5.758-7.408,13.482,13.482,0,0,0-1.69-26.038a13.416,13.416,0,0,0-6.565-5.326,13.447,13.447,0,0,1,9.022,6A13.483,13.483,0,0,1-3.3-6.733" transform="translate(15.371 31.363)" fill="#8d9ca8"/>
              </g>
              <g id="g823" transform="translate(20.696 8.16)">
                <path id="path825" d="M-6.789-1.7a13.484,13.484,0,0,1-4.068,18.63,13.484,13.484,0,0,1-18.63-4.068,13.484,13.484,0,0,1,4.068-18.63A13.484,13.484,0,0,1-6.789-1.7Z" transform="translate(31.623 7.9)" fill="none" stroke="#000" stroke-linecap="round" stroke-linejoin="round" stroke-miterlimit="10" stroke-width="2.285"/>
              </g>
              <g id="g827" transform="translate(24.847 12.311)">
                <path id="path829" d="M-4.7-1.174a9.333,9.333,0,0,1-2.816,12.9,9.333,9.333,0,0,1-12.9-2.816A9.333,9.333,0,0,1-17.6-3.99,9.333,9.333,0,0,1-4.7-1.174" transform="translate(21.89 5.469)" fill="#99e6fc"/>
              </g>
              <g id="g831" transform="translate(28.997 12.78)">
                <path id="path833" d="M-2.8-4.571A9.337,9.337,0,0,1-13.02-4.664,9.307,9.307,0,0,0-5.065-5.673a9.333,9.333,0,0,0,2.816-12.9,9.281,9.281,0,0,0-2.672-2.724A9.277,9.277,0,0,1,.02-17.467,9.334,9.334,0,0,1-2.8-4.571" transform="translate(13.02 21.292)" fill="#62dbfb"/>
              </g>
              <g id="g835" transform="translate(24.847 12.311)">
                <path id="path837" d="M-4.7-1.174a9.333,9.333,0,0,1-2.816,12.9,9.333,9.333,0,0,1-12.9-2.816A9.333,9.333,0,0,1-17.6-3.99,9.333,9.333,0,0,1-4.7-1.174Z" transform="translate(21.89 5.469)" fill="none" stroke="#000" stroke-linecap="round" stroke-linejoin="round" stroke-miterlimit="10" stroke-width="2.285"/>
              </g>
              <g id="g839" transform="translate(41.463 32.994)">
                <path id="path841" d="M0,0,3.134,4.885" fill="none" stroke="#000" stroke-linecap="round" stroke-linejoin="round" stroke-miterlimit="10" stroke-width="2.285"/>
              </g>
              <g id="g843" transform="translate(42.412 36.653)">
                <path id="path845" d="M-3.843-3.72l3.4,5.2a3.177,3.177,0,0,1-.959,4.39A3.177,3.177,0,0,1-5.8,4.907L-17.7-13.306a1.282,1.282,0,0,1,.387-1.771l3.19-2.047a1.282,1.282,0,0,1,1.771.387l6.219,9.517" transform="translate(17.902 17.327)" fill="none" stroke="#000" stroke-linecap="round" stroke-linejoin="round" stroke-miterlimit="10" stroke-width="2.285"/>
              </g>
              <g id="g847" transform="translate(31.093 18.302)">
                <path id="path849" d="M0,0H2.288" fill="none" stroke="#000" stroke-linecap="round" stroke-linejoin="round" stroke-miterlimit="10" stroke-width="2.285"/>
              </g>
              <g id="g851" transform="translate(31.093 21.645)">
                <path id="path853" d="M0,0H6.178" fill="none" stroke="#000" stroke-linecap="round" stroke-linejoin="round" stroke-miterlimit="10" stroke-width="2.285"/>
              </g>
              <g id="g855" transform="translate(31.093 24.988)">
                <path id="path857" d="M0,0H6.178" fill="none" stroke="#000" stroke-linecap="round" stroke-linejoin="round" stroke-miterlimit="10" stroke-width="2.285"/>
              </g>
              <g id="g859" transform="translate(44.434 40.095)">
                <path id="path861" d="M-2.083-.931-7.476,2.432-9.7-.973l5.394-3.363Z" transform="translate(9.702 4.336)" fill="#fdf6ec"/>
              </g>
              <g id="g863" transform="translate(47.881 40.095)">
                <path id="path865" d="M-1.14-.931-3.087.283-5.312-3.122l1.947-1.214Z" transform="translate(5.312 4.336)" fill="#fae2c0"/>
              </g>
              <g id="g867" transform="translate(44.434 40.095)">
                <path id="path869" d="M-2.083-.931-7.476,2.432-9.7-.973l5.394-3.363Z" transform="translate(9.702 4.336)" fill="none" stroke="#000" stroke-linecap="round" stroke-linejoin="round" stroke-miterlimit="10" stroke-width="2.285"/>
              </g>
            </g>
          </g>
        </g>
      </g>
    </g>
  </g>
</svg>
