<svg xmlns="http://www.w3.org/2000/svg" xmlns:xlink="http://www.w3.org/1999/xlink" width="90" height="90" viewBox="0 0 90 90">
  <defs>
    <clipPath id="clip-path">
      <rect id="Rectangle_411926" data-name="Rectangle 411926" width="90" height="90" fill="#e8bad8" opacity="0.41"/>
    </clipPath>
    <clipPath id="clip-path-2">
      <rect id="Rectangle_411927" data-name="Rectangle 411927" width="61.254" height="67.537" fill="#fff" stroke="#707070" stroke-width="1" opacity="0"/>
    </clipPath>
  </defs>
  <g id="Group_1204191" data-name="Group 1204191" transform="translate(4033.95 10246.33)">
    <g id="Group_1204194" data-name="Group 1204194" transform="translate(-4033.95 -10246.33)">
      <g id="Mask_Group_1099496" data-name="Mask Group 1099496" transform="translate(0 0)" clip-path="url(#clip-path)">
        <g id="Group_1204193" data-name="Group 1204193" transform="translate(0 4.909)">
          <g id="Group_1204191-2" data-name="Group 1204191" transform="translate(0)">
            <ellipse id="Ellipse_12796" data-name="Ellipse 12796" cx="22.428" cy="22.428" rx="22.428" ry="22.428" transform="translate(44.238 34.661)" fill="#ffc94a"/>
            <ellipse id="Ellipse_12797" data-name="Ellipse 12797" cx="16.311" cy="16.311" rx="16.311" ry="16.311" fill="#ffc94a"/>
          </g>
        </g>
      </g>
      <g id="Mask_Group_1099497" data-name="Mask Group 1099497" transform="translate(14.723 11.254)" clip-path="url(#clip-path-2)">
        <g id="integracion" transform="translate(0 3.436)">
          <g id="Group_1204203" data-name="Group 1204203" transform="translate(0.978 0.978)">
            <g id="Group_1204195" data-name="Group 1204195" transform="translate(29.354)">
              <path id="Path_1269733" data-name="Path 1269733" d="M67.267,28.91v15.2l-12.72-9.325V41.63H39.87V28.91l1.732.577a7.855,7.855,0,0,0,2.475.4,3.625,3.625,0,0,0,3.62-3.62V23.724a3.608,3.608,0,0,0-3.62-3.62,7.855,7.855,0,0,0-2.475.4l-1.732.577V12.276a1.963,1.963,0,0,1,1.957-1.957h6.849l-.763-2.29A4.12,4.12,0,0,1,47.7,6.7a4.213,4.213,0,0,1,4.207-4.207h1.37A4.209,4.209,0,0,1,57.482,6.7a4.12,4.12,0,0,1-.215,1.331L56.5,10.32H65.31a1.963,1.963,0,0,1,1.957,1.957v8.806l-1.732-.577a7.855,7.855,0,0,0-2.475-.4,3.625,3.625,0,0,0-3.62,3.62v2.544a3.608,3.608,0,0,0,3.62,3.62,7.855,7.855,0,0,0,2.475-.4Z" transform="translate(-39.87 -2.492)" fill="#e6e9ed"/>
            </g>
            <g id="Group_1204196" data-name="Group 1204196" transform="translate(1.957 0)">
              <path id="Path_1269734" data-name="Path 1269734" d="M40.208,23.724v2.544a3.625,3.625,0,0,1-3.62,3.62,7.855,7.855,0,0,1-2.475-.4L32.38,28.91V41.63H26.745l.068-.068-4.149-4.149-.646.636a1.953,1.953,0,0,1-3.337-1.38v-.91H12.811v.91a1.953,1.953,0,0,1-3.337,1.38l-.646-.636L4.984,41.258V12.276A1.963,1.963,0,0,1,6.941,10.32H13.79l-.763-2.29A4.12,4.12,0,0,1,12.811,6.7a4.209,4.209,0,0,1,4.207-4.207h1.37A4.213,4.213,0,0,1,22.6,6.7a4.12,4.12,0,0,1-.215,1.331l-.763,2.29h8.806a1.963,1.963,0,0,1,1.957,1.957v8.806l1.732-.577a7.855,7.855,0,0,1,2.475-.4,3.608,3.608,0,0,1,3.62,3.62Z" transform="translate(-4.984 -2.492)" fill="#e6e9ed"/>
            </g>
            <g id="Group_1204197" data-name="Group 1204197" transform="translate(22.572 32.289)">
              <path id="Path_1269735" data-name="Path 1269735" d="M67.37,54.371,52.693,67.091V60.242H34.1V54.371h-.91a1.953,1.953,0,0,1-1.38-3.337l.567-.577H52.693V43.608l12.72,9.325Z" transform="translate(-31.235 -43.608)" fill="#ff826e"/>
            </g>
            <g id="Group_1204198" data-name="Group 1204198" transform="translate(0 33.267)">
              <path id="Path_1269736" data-name="Path 1269736" d="M27.932,54.639v5.871h-.91a1.953,1.953,0,0,0-1.38,3.337l.636.646L22.129,68.64,21.484,68a1.953,1.953,0,0,0-3.337,1.38v.91H12.276v-.91A1.953,1.953,0,0,0,8.94,68l-.646.636L4.145,64.492l.636-.646A1.953,1.953,0,0,0,3.4,60.509h-.91V54.639H3.4A1.953,1.953,0,0,0,4.781,51.3l-.636-.646.3-.3,3.845-3.845.646.636a1.953,1.953,0,0,0,3.337-1.38v-.91h5.871v.91a1.953,1.953,0,0,0,3.337,1.38l.646-.636,4.149,4.149-.068.068-.568.577a1.953,1.953,0,0,0,1.38,3.337Zm-5.871,2.935a6.849,6.849,0,1,0-6.849,6.849A6.844,6.844,0,0,0,22.061,57.574Z" transform="translate(-2.492 -44.854)" fill="#ffc729"/>
            </g>
            <g id="Group_1204199" data-name="Group 1204199" transform="translate(5.871 39.138)">
              <path id="Path_1269737" data-name="Path 1269737" d="M16.817,52.33a6.849,6.849,0,1,1-6.849,6.849A6.844,6.844,0,0,1,16.817,52.33Zm2.935,6.849a2.935,2.935,0,1,0-2.935,2.935A2.931,2.931,0,0,0,19.752,59.179Z" transform="translate(-9.968 -52.33)" fill="#fcd770"/>
            </g>
            <g id="Group_1204200" data-name="Group 1204200" transform="translate(21.526 19.569)">
              <circle id="Ellipse_12798" data-name="Ellipse 12798" cx="1.957" cy="1.957" r="1.957" fill="#ff826e"/>
            </g>
            <g id="Group_1204201" data-name="Group 1204201" transform="translate(13.698 19.569)">
              <circle id="Ellipse_12799" data-name="Ellipse 12799" cx="1.957" cy="1.957" r="1.957" fill="#ff826e"/>
            </g>
            <g id="Group_1204202" data-name="Group 1204202" transform="translate(5.871 19.569)">
              <circle id="Ellipse_12800" data-name="Ellipse 12800" cx="1.957" cy="1.957" r="1.957" fill="#ff826e"/>
            </g>
          </g>
          <g id="Group_1204204" data-name="Group 1204204" transform="translate(0 0)">
            <path id="Path_1269738" data-name="Path 1269738" d="M17.619,56.068a3.914,3.914,0,1,0,3.914,3.914A3.918,3.918,0,0,0,17.619,56.068Zm0,5.871a1.957,1.957,0,1,1,1.957-1.957A1.959,1.959,0,0,1,17.619,61.938Z" transform="translate(-3.921 -13.016)"/>
            <path id="Path_1269739" data-name="Path 1269739" d="M16.549,51.084a7.828,7.828,0,1,0,7.828,7.828A7.837,7.837,0,0,0,16.549,51.084Zm0,13.7a5.871,5.871,0,1,1,5.871-5.871A5.877,5.877,0,0,1,16.549,64.782Z" transform="translate(-2.851 -11.946)"/>
            <path id="Path_1269740" data-name="Path 1269740" d="M62.5,45.213l-2.547-1.868V27.285L56.936,28.29a6.83,6.83,0,0,1-2.166.352A2.646,2.646,0,0,1,52.126,26V23.458a2.646,2.646,0,0,1,2.643-2.643,6.86,6.86,0,0,1,2.168.351l3.017,1.008V12.009a2.939,2.939,0,0,0-2.935-2.935H49.57l.333-1a5.188,5.188,0,0,0-4.922-6.829H43.615a5.188,5.188,0,0,0-4.922,6.829l.333,1H33.535a2.916,2.916,0,0,0-1.957.763,2.916,2.916,0,0,0-1.957-.763H22.173l.333-1a5.188,5.188,0,0,0-4.922-6.829H16.218A5.188,5.188,0,0,0,11.3,8.075l.333,1H6.138A2.939,2.939,0,0,0,3.2,12.009V40.58l-.712.712,1.334,1.336a.978.978,0,0,1-.691,1.67H1.246v7.828H3.133a.977.977,0,0,1,.691,1.67L2.492,55.131l5.533,5.533L9.36,59.331a.978.978,0,0,1,1.67.692V61.91h7.828V60.023a.977.977,0,0,1,1.67-.691l1.336,1.333L27.4,55.131,26.063,53.8a.978.978,0,0,1,.692-1.67H45.276v8.014ZM33.535,11.03h8.207L40.549,7.455A3.232,3.232,0,0,1,43.615,3.2h1.366a3.232,3.232,0,0,1,3.065,4.252L46.854,11.03H57.018a.979.979,0,0,1,.978.978v7.449l-.44-.147a8.761,8.761,0,0,0-2.788-.453,4.605,4.605,0,0,0-4.6,4.6V26a4.605,4.605,0,0,0,4.6,4.6,8.8,8.8,0,0,0,2.784-.451L58,30V41.91l-12.72-9.328v7.8H32.556V30l.441.147a8.759,8.759,0,0,0,2.787.453,4.606,4.606,0,0,0,4.6-4.6V23.459a4.6,4.6,0,0,0-4.6-4.6h0A8.778,8.778,0,0,0,33,19.311l-.442.147V12.009a.979.979,0,0,1,.978-.978ZM5.16,12.009a.979.979,0,0,1,.978-.978h8.207L13.153,7.455A3.232,3.232,0,0,1,16.218,3.2h1.366A3.232,3.232,0,0,1,20.65,7.455L19.457,11.03H29.621a.979.979,0,0,1,.978.978V22.174l3.018-1.006a6.856,6.856,0,0,1,2.166-.351h0a2.642,2.642,0,0,1,2.642,2.643V26a2.648,2.648,0,0,1-2.643,2.644,6.831,6.831,0,0,1-2.167-.352L30.6,27.287v13.1H26.49l-4.626-4.626-1.336,1.334a.978.978,0,0,1-1.67-.691V34.513H11.03V36.4a.977.977,0,0,1-1.67.691L8.025,35.759,5.16,38.623ZM26.686,50.17a2.935,2.935,0,0,0-2.054,4.961L21.863,57.9A2.935,2.935,0,0,0,16.9,59.953H12.986A2.935,2.935,0,0,0,8.026,57.9l-2.768-2.77A2.934,2.934,0,0,0,3.2,50.17V46.254a2.935,2.935,0,0,0,2.054-4.961l2.769-2.769a2.935,2.935,0,0,0,4.961-2.054H16.9a2.935,2.935,0,0,0,4.961,2.054l2.769,2.769a2.935,2.935,0,0,0,2.054,4.961Zm1.957,0V44.3H26.755a.977.977,0,0,1-.691-1.67l.287-.287H47.233v-5.9l12.13,8.9L47.233,55.853V50.169Z" transform="translate(-1.246 -1.246)"/>
            <path id="Path_1269741" data-name="Path 1269741" d="M14.592,29.1a2.935,2.935,0,1,0-2.935,2.935A2.939,2.939,0,0,0,14.592,29.1Zm-3.914,0a.978.978,0,1,1,.978.978A.979.979,0,0,1,10.679,29.1Z" transform="translate(-2.851 -6.596)"/>
            <path id="Path_1269742" data-name="Path 1269742" d="M21.625,32.036A2.935,2.935,0,1,0,18.689,29.1,2.939,2.939,0,0,0,21.625,32.036Zm0-3.914a.978.978,0,1,1-.978.978A.979.979,0,0,1,21.625,28.122Z" transform="translate(-4.991 -6.596)"/>
            <path id="Path_1269743" data-name="Path 1269743" d="M31.592,32.036A2.935,2.935,0,1,0,28.657,29.1,2.939,2.939,0,0,0,31.592,32.036Zm0-3.914a.978.978,0,1,1-.978.978A.979.979,0,0,1,31.592,28.122Z" transform="translate(-7.131 -6.596)"/>
          </g>
        </g>
      </g>
    </g>
  </g>
</svg>
