<svg xmlns="http://www.w3.org/2000/svg" xmlns:xlink="http://www.w3.org/1999/xlink" width="89.63" height="89.63" viewBox="0 0 89.63 89.63">
  <defs>
    <clipPath id="clip-path">
      <rect id="Rectangle_411920" data-name="Rectangle 411920" width="89.63" height="89.63" fill="#e8bad8" opacity="0.41"/>
    </clipPath>
    <clipPath id="clip-path-2">
      <rect id="Rectangle_411921" data-name="Rectangle 411921" width="56.776" height="67.793" fill="#fff" stroke="#707070" stroke-width="1" opacity="0"/>
    </clipPath>
  </defs>
  <g id="Group_1205060" data-name="Group 1205060" transform="translate(-1100.37 -910.024)">
    <g id="Group_1204177" data-name="Group 1204177" transform="translate(1100.37 910.024)">
      <g id="Group_1204182" data-name="Group 1204182" transform="translate(0 0)">
        <g id="Mask_Group_1099490" data-name="Mask Group 1099490" clip-path="url(#clip-path)">
          <g id="Group_1204179" data-name="Group 1204179" transform="translate(0 4.889)">
            <g id="Group_1204177-2" data-name="Group 1204177" transform="translate(0)">
              <ellipse id="Ellipse_12782" data-name="Ellipse 12782" cx="22.336" cy="22.336" rx="22.336" ry="22.336" transform="translate(44.056 34.518)" fill="#ffc94a"/>
              <ellipse id="Ellipse_12783" data-name="Ellipse 12783" cx="16.244" cy="16.244" rx="16.244" ry="16.244" fill="#ffc94a"/>
            </g>
          </g>
        </g>
        <g id="Mask_Group_1099491" data-name="Mask Group 1099491" transform="translate(23.302 10.967)" clip-path="url(#clip-path-2)">
          <g id="anticipacion" transform="translate(0 5.811)">
            <path id="Path_1269670" data-name="Path 1269670" d="M52.078,10.02l-.111,1.7L30.177,6.562a3.826,3.826,0,0,0-2.756.4L14.877,14.013a2.389,2.389,0,0,0-1.1,1.388,2.617,2.617,0,0,1,1.1-3.1L27.422,5.247a3.88,3.88,0,0,1,2.756-.4Z" transform="translate(-3.766 -4.047)" fill="#f9deb9"/>
            <path id="Path_1269671" data-name="Path 1269671" d="M52.024,12.145l-.956,14.6c-2.711.195-5.622.864-8.089-.8C40.335,24.3,37.7,22.652,35.057,21.02a2.634,2.634,0,0,1-.833-1.169,2.547,2.547,0,0,1,2.078-3.4l-7.578-3.519a1.662,1.662,0,0,0-1.278-.037L16.812,17.307a2.25,2.25,0,0,1-2.967-1.485,2.389,2.389,0,0,1,1.1-1.388L27.49,7.385a3.88,3.88,0,0,1,2.756-.4Z" transform="translate(-3.823 -4.48)" fill="#ffedd2"/>
            <path id="Path_1269672" data-name="Path 1269672" d="M44.664,18.821a20.782,20.782,0,0,1,3.611.694l3.567.828c.867.231.489,1.644-.356,1.315l-3.411-1.437a20.937,20.937,0,0,0-3.411-1.3C44.608,18.931,44.6,18.821,44.664,18.821Z" transform="translate(-12.196 -6.895)" fill="#f9deb9"/>
            <path id="Path_1269673" data-name="Path 1269673" d="M74.163,10.822,73.019,28.1a1.372,1.372,0,0,1-1.433,1.351l-1.022-.085a1.237,1.237,0,0,0,1.289-1.1l.933-14.111a1.293,1.293,0,0,0-1.256-1.3l-5.045-.4a.493.493,0,0,0-.189,0l.156-2.265a1.377,1.377,0,0,1,1.422-1.351l5.045.4A1.452,1.452,0,0,1,74.163,10.822Z" transform="translate(-18.095 -4.873)" fill="#f79218"/>
            <path id="Path_1269674" data-name="Path 1269674" d="M72.425,15.093,71.492,29.2A1.245,1.245,0,0,1,70.2,30.3a.417.417,0,0,1-.122-.012l-3.911-.3a1.426,1.426,0,0,1-1.233-1.571L65.925,13.4a.493.493,0,0,1,.189,0l5.045.4A1.278,1.278,0,0,1,72.425,15.093Z" transform="translate(-17.724 -5.796)" fill="#ffa918"/>
            <path id="Path_1269675" data-name="Path 1269675" d="M32.847,60.395a4.264,4.264,0,0,0-1.189-.158c-.644.061-10.845-.158-11.111.158L22.7,39.369a5.135,5.135,0,0,0,7.989,0Z" transform="translate(-5.646 -11.055)" fill="#f79218"/>
            <path id="Path_1269676" data-name="Path 1269676" d="M35.17,70.923v.9H15.391c-.311-3.348,1.856-6.294,4.933-6.307h9.922A5.209,5.209,0,0,1,35.17,70.923Z" transform="translate(-4.236 -16.348)" fill="#ffa918"/>
            <path id="Path_1269677" data-name="Path 1269677" d="M32.389,32.854c.033,5.369-6.178,7.975-9.411,3.993-3.167-3.689-.678-9.971,3.989-9.935A5.7,5.7,0,0,1,32.389,32.854Z" transform="translate(-5.922 -8.533)" fill="#ffa918"/>
            <path id="Path_1269678" data-name="Path 1269678" d="M11.578,49.584A5.65,5.65,0,0,1,6.2,55.477C-.922,55.185-.922,44,6.2,43.7a5.639,5.639,0,0,1,5.378,5.88Z" transform="translate(-0.289 -11.932)" fill="#84af5a"/>
            <path id="Path_1269679" data-name="Path 1269679" d="M53.16,49.584a5.65,5.65,0,0,1-5.378,5.893C40.66,55.185,40.66,44,47.782,43.7a5.646,5.646,0,0,1,5.378,5.88Z" transform="translate(-11.604 -11.932)" fill="#84af5a"/>
            <g id="Group_1204181" data-name="Group 1204181" transform="translate(0 0)">
              <path id="Path_1269680" data-name="Path 1269680" d="M53.467,7.163A2.014,2.014,0,0,0,51.389,9L30.166,3.985A4.418,4.418,0,0,0,27,4.436L14.466,11.5a3.165,3.165,0,0,0-1.533,2.216c-.522,2.374,1.844,4.578,3.9,3.64l10.634-4.407a.993.993,0,0,1,.811.024l6.145,2.849a3.4,3.4,0,0,0,.133,5.2l7.922,4.919c2.356,1.607,5.133,1.205,7.756.95a2.053,2.053,0,0,0,1.8,1.863l5.045.4a2.033,2.033,0,0,0,2.1-2L60.323,9.878a2.106,2.106,0,0,0-1.822-2.3c.011-.012-5.033-.414-5.033-.414ZM50.289,25.486c-2.411.195-5,.73-7.189-.755l-7.9-4.894c-1.478-1.193-.3-3.8,1.478-3.226l6.245,2.033c.778.243,1.156-1.047.356-1.315-.456-.1-6.778-2.325-7.034-2.155L28.766,11.7a2.175,2.175,0,0,0-1.744-.037l-10.634,4.4c-1.167.536-2.522-.73-2.222-2.082a1.763,1.763,0,0,1,.878-1.254L27.589,5.665a3.255,3.255,0,0,1,2.333-.341L51.3,10.377ZM59.078,9.768,57.934,27.044a.724.724,0,0,1-.756.718l-5.045-.4a.764.764,0,0,1-.656-.828c.244-3.64.889-13.514,1.144-17.276a.762.762,0,0,1,.244-.524.629.629,0,0,1,.511-.183l5.045.4a.73.73,0,0,1,.656.816Z" transform="translate(-3.555 -3.868)" fill="#231f20"/>
              <path id="Path_1269681" data-name="Path 1269681" d="M14.652,62.932c.022.584-.178,1.558.633,1.595H35.064a.665.665,0,0,0,.633-.694v-.9a6.057,6.057,0,0,0-3.778-5.771L29.841,36.878c3.278-4.188.389-10.909-4.656-10.836-5.033-.073-7.934,6.647-4.645,10.836L18.463,57.161a6.037,6.037,0,0,0-3.811,5.771Zm5.722-30.255a5.034,5.034,0,0,1,4.789-5.247c4.1-.061,6.356,5.515,3.533,8.778C25.852,39.739,20.319,37.377,20.374,32.677Zm1.289,5.381a5.634,5.634,0,0,0,7.011,0l1.933,18.81c-.378-.037-10.489-.037-10.878,0ZM20.208,58.22H30.13a4.556,4.556,0,0,1,4.289,4.931H15.908a4.572,4.572,0,0,1,4.3-4.931Z" transform="translate(-4.041 -8.357)" fill="#231f20"/>
              <path id="Path_1269682" data-name="Path 1269682" d="M6.076,55.992a6.311,6.311,0,0,0,6-6.574C11.743,40.7.4,40.7.076,49.417A6.311,6.311,0,0,0,6.076,55.992Zm0-11.773a5,5,0,0,1,4.745,5.2c-.222,6.879-9.267,6.879-9.489,0A4.992,4.992,0,0,1,6.076,44.219Z" transform="translate(-0.076 -11.766)" fill="#231f20"/>
              <path id="Path_1269683" data-name="Path 1269683" d="M5.881,52.763a.592.592,0,0,0,.889,0L10.114,49.1c.578-.633-.3-1.607-.889-.974L6.325,51.3,5.047,49.9c-.578-.633-1.467.329-.889.974l1.722,1.887Z" transform="translate(-1.136 -12.786)" fill="#231f20"/>
              <path id="Path_1269684" data-name="Path 1269684" d="M47.643,55.992a6.311,6.311,0,0,0,6-6.574c-.333-8.717-11.678-8.717-12,0C41.643,53.046,44.343,55.992,47.643,55.992Zm0-11.773a5,5,0,0,1,4.745,5.2c-.222,6.879-9.267,6.879-9.489,0a5,5,0,0,1,4.745-5.2Z" transform="translate(-11.387 -11.766)" fill="#231f20"/>
              <path id="Path_1269685" data-name="Path 1269685" d="M46.917,52.761a.592.592,0,0,0,.889,0L49.04,51.41l1.233,1.351a.592.592,0,0,0,.889,0,.738.738,0,0,0,0-.974l-1.233-1.351,1.233-1.351a.738.738,0,0,0,0-.974.592.592,0,0,0-.889,0L49.04,49.462,47.806,48.11a.592.592,0,0,0-.889,0,.738.738,0,0,0,0,.974l1.233,1.351-1.233,1.351A.738.738,0,0,0,46.917,52.761Z" transform="translate(-12.772 -12.784)" fill="#231f20"/>
            </g>
          </g>
        </g>
      </g>
    </g>
  </g>
</svg>
