<svg xmlns="http://www.w3.org/2000/svg" xmlns:xlink="http://www.w3.org/1999/xlink" width="76.345" height="76.344" viewBox="0 0 76.345 76.344">
  <defs>
    <clipPath id="clip-path">
      <rect id="Rectangle_411854" data-name="Rectangle 411854" width="51" height="51" transform="translate(-8721 -10167)" fill="#fff" stroke="#707070" stroke-width="1"/>
    </clipPath>
    <clipPath id="clip-path-2">
      <path id="path10308" d="M0-51H51V0H0Z"/>
    </clipPath>
  </defs>
  <g id="Group_1204068" data-name="Group 1204068" transform="translate(8734 10180)">
    <g id="Group_1204067" data-name="Group 1204067">
      <g id="Group_1204066" data-name="Group 1204066" transform="translate(-9755.691 -13273)">
        <g id="Group_1200255" data-name="Group 1200255" transform="translate(-0.275 0.345)">
          <g id="Group_1187152" data-name="Group 1187152">
            <g id="Group_1185946" data-name="Group 1185946" transform="translate(-3.07)">
              <g id="Group_1184280" data-name="Group 1184280">
                <g id="Group_1182168" data-name="Group 1182168">
                  <g id="Group_1178877" data-name="Group 1178877">
                    <g id="Group_1111311" data-name="Group 1111311">
                      <g id="Group_1098742" data-name="Group 1098742" transform="translate(1025.482 3093.101)">
                        <g id="Rectangle_400898" data-name="Rectangle 400898" transform="translate(-0.445 -0.445)" fill="#76cfe7" stroke="#76cfe7" stroke-width="1" opacity="0.859">
                          <rect width="76.345" height="76.345" rx="38.172" stroke="none"/>
                          <rect x="0.5" y="0.5" width="75.345" height="75.345" rx="37.672" fill="none"/>
                        </g>
                        <g id="Rectangle_400907" data-name="Rectangle 400907" transform="translate(-0.446 -0.445)" fill="none" stroke="#76cfe7" stroke-width="1">
                          <rect width="76.345" height="76.345" rx="38.172" stroke="none"/>
                          <rect x="0.5" y="0.5" width="75.345" height="75.345" rx="37.672" fill="none"/>
                        </g>
                      </g>
                    </g>
                  </g>
                </g>
              </g>
            </g>
          </g>
        </g>
      </g>
      <g id="Mask_Group_1099453" data-name="Mask Group 1099453" clip-path="url(#clip-path)">
        <g id="g10302" transform="translate(-8721 -10116)">
          <g id="g10304">
            <g id="g10306" clip-path="url(#clip-path-2)">
              <g id="g10312" transform="translate(11.318 -19.811)">
                <path id="path10314" d="M0,0C-3.165.165-8.575,1.959-8.053,5.707c1.322,9.508-9.083,12.561,4.763,12.561,6.966,0,11.356-3.053,12.02-9.46L6.85,1.543Z" fill="#fe636e" fill-rule="evenodd"/>
              </g>
              <g id="g10316" transform="translate(13.808 -17.297)">
                <path id="path10318" d="M0,0C-1.468.077-3.981.908-3.741,2.651c.616,4.417-4.218,5.832,2.214,5.832,3.236,0,5.277-1.415,5.585-4.394L3.346.5Z" fill="#fee45a" fill-rule="evenodd"/>
              </g>
              <g id="g10320" transform="translate(16.984 -10.725)">
                <path id="path10322" d="M0,0C-1.881,3.42-5.61,5.069-10.73,5.069a39.134,39.134,0,0,1-4.6-.2c-1.48,3.144-2.2,4.314,6.37,4.314,6.966,0,11.356-3.053,12.02-9.46L1.482-1.874.943-2.418c-.048.185-.1.365-.155.544A4.7,4.7,0,0,1,0,0" fill="#fb2a39" fill-rule="evenodd"/>
              </g>
              <g id="g10324" transform="translate(16.391 -14.691)">
                <path id="path10326" d="M0,0C-.692,2.136-2.578,3.158-5.328,3.158c-.551,0-1.016-.009-1.412-.031-.81,2.027-1.971,2.751,2.629,2.751,2.146,0,3.767-.621,4.7-1.911a4.7,4.7,0,0,0,.788-1.874c.04-.2.071-.4.093-.609Z" fill="#fed400" fill-rule="evenodd"/>
              </g>
              <g id="g10328" transform="translate(15.146 -25.022)">
                <path id="path10330" d="M0,0-4.128,2.421a1.629,1.629,0,0,0-.031,2.46l.33.33,2.49,2.515,4.057,4.089,2.183,2.2L6.04,15.166a1.6,1.6,0,0,0,2.44-.031l2.4-4.166L8.163.421Z" fill="#838383" fill-rule="evenodd"/>
              </g>
              <g id="g10332" transform="translate(48.597 -49.326)">
                <path id="path10334" d="M0,0C-1.985-.367-5.6.017-10.007,1.521l1.982,7.347,8.05,2.745C1.522,7.142,1.9,3.48,1.519,1.492,1.3.333,1.158.214,0,0" fill="#838383" fill-rule="evenodd"/>
              </g>
              <g id="g10336" transform="translate(25.918 -41.148)">
                <path id="path10338" d="M0,0C-5.511-2.008-9.781-1.094-14.109,2.859c-2.008,1.948-5.348,4.508-2.589,7.29l3.431,3.46,9.86-5.023Z" fill="#03bed7" fill-rule="evenodd"/>
              </g>
              <g id="g10340" transform="translate(42.015 -24.917)">
                <path id="path10342" d="M0,0-9.267,3.864l-4.227,9.519,3.431,3.46c2.758,2.782,5.3-.587,7.228-2.611C-.833,12,2.733,7.748,0,0" fill="#03bed7" fill-rule="evenodd"/>
              </g>
              <g id="g10344" transform="translate(25.918 -41.148)">
                <path id="path10346" d="M0,0A56.61,56.61,0,0,0-13.268,13.609l2.5,2.517,5.438,5.484L.1,27.095l1.818,1.834.681.686A56.555,56.555,0,0,0,16.1,16.231a50.594,50.594,0,0,0,5.825-10.65c.288-.732.551-1.449.782-2.147L12.672-6.658A48.824,48.824,0,0,0,0,0" fill="#ececec" fill-rule="evenodd"/>
              </g>
              <g id="g10348" transform="translate(38.008 -37.05)">
                <path id="path10350" d="M0,0A6.855,6.855,0,0,0-9.752.125a7,7,0,0,0-.124,9.836A6.856,6.856,0,0,0-.124,9.836,7,7,0,0,0,0,0" fill="#a6e7f0" fill-rule="evenodd"/>
              </g>
              <g id="g10352" transform="translate(47.973 -49.412)">
                <path id="path10354" d="M0,0A25.073,25.073,0,0,1-1.584,9.448L.65,11.7c1.5-4.471,1.872-8.133,1.494-10.12C1.923.419,1.782.3.624.085.429.048.223.02,0,0" fill="#595959" fill-rule="evenodd"/>
              </g>
              <g id="g10356" transform="translate(45.604 -37.814)">
                <path id="path10358" d="M0,0A50.537,50.537,0,0,1-5.825,10.65a54.646,54.646,0,0,1-3.809,4.767,56.39,56.39,0,0,1-4.7,4.67,58.846,58.846,0,0,1-4.981,3.944l1.55,1.563.681.686A56.553,56.553,0,0,0-3.589,12.9,50.6,50.6,0,0,0,2.236,2.247C2.524,1.515,2.787.8,3.018.1L.785-2.15c-.147.436-.3.877-.472,1.327C.215-.552.11-.276,0,0" fill="#cecece" fill-rule="evenodd"/>
              </g>
              <g id="g10360" transform="translate(23.303 -16.796)">
                <path id="path10362" d="M0,0-2.4,4.166a1.6,1.6,0,0,1-2.44.031l1.581,1.595,1.138,1.148a1.6,1.6,0,0,0,2.44-.031l2.4-4.166Z" fill="#595959" fill-rule="evenodd"/>
              </g>
              <g id="g10364" transform="translate(35.487 -38.645)">
                <path id="path10366" d="M0,0A7.024,7.024,0,0,1-.607,9.295a6.96,6.96,0,0,1-7.231,1.72,6.656,6.656,0,0,0,.483.541A6.856,6.856,0,0,0,2.4,11.43a7,7,0,0,0,.124-9.836A6.6,6.6,0,0,0,0,0" fill="#6bd9e7" fill-rule="evenodd"/>
              </g>
              <g id="g10368" transform="translate(42.015 -24.917)">
                <path id="path10370" d="M0,0Q-.682.961-1.429,1.919a12.584,12.584,0,0,1-3.73,10.5c-1.587,1.66-3.577,4.226-5.766,3.557l.861.869c2.758,2.782,5.3-.587,7.228-2.611C-.833,12,2.733,7.748,0,0" fill="#0099b1" fill-rule="evenodd"/>
              </g>
              <g id="g10372" transform="translate(22.425 -42.051)">
                <path id="path10374" d="M0,0A56.619,56.619,0,0,0-11.93,12.339l2.154,2.173A56.612,56.612,0,0,1,3.493.9,17.26,17.26,0,0,0,0,0" fill="#0099b1" fill-rule="evenodd"/>
              </g>
              <g id="g10376" transform="translate(20.584 -19.538)">
                <path id="path10378" d="M0,0,3.849-3.878" fill="none" stroke="#000" stroke-linecap="round" stroke-linejoin="round" stroke-miterlimit="10" stroke-width="1.506"/>
              </g>
              <g id="g10380" transform="translate(11.318 -19.811)">
                <path id="path10382" d="M0,0C-3.165.165-8.575,1.959-8.053,5.707c1.322,9.508-9.083,12.561,4.763,12.561,6.966,0,11.356-3.053,12.02-9.46" fill="none" stroke="#000" stroke-linecap="round" stroke-linejoin="round" stroke-miterlimit="10" stroke-width="1.506"/>
              </g>
              <g id="g10384" transform="translate(13.808 -17.297)">
                <path id="path10386" d="M0,0C-1.468.077-3.981.908-3.741,2.651c.616,4.417-4.218,5.832,2.214,5.832,3.236,0,5.277-1.415,5.585-4.394" fill="none" stroke="#000" stroke-linecap="round" stroke-linejoin="round" stroke-miterlimit="10" stroke-width="1.506"/>
              </g>
              <g id="g10388" transform="translate(30.879 -44.326)">
                <path id="path10390" d="M0,0A55.448,55.448,0,0,0-18.229,16.786l7.934,8,7.937,8A54.3,54.3,0,0,0,16.961,8.759C19.1,3.326,19.674-1.21,19.237-3.508c-.22-1.159-.361-1.279-1.519-1.492C15.1-5.484,9.645-4.662,3.287-1.691" fill="none" stroke="#000" stroke-linecap="round" stroke-linejoin="round" stroke-miterlimit="10" stroke-width="1.506"/>
              </g>
              <g id="g10392" transform="translate(34.88 -25.407)">
                <path id="path10394" d="M0,0A7.085,7.085,0,0,0,3-1.808a7,7,0,0,0,.124-9.836,6.856,6.856,0,0,0-9.752.125,7,7,0,0,0-.124,9.836A6.622,6.622,0,0,0-3.95,0" fill="none" stroke="#000" stroke-linecap="round" stroke-linejoin="round" stroke-miterlimit="10" stroke-width="1.506"/>
              </g>
              <g id="g10396" transform="translate(42.015 -24.917)">
                <path id="path10398" d="M0,0C2.733,7.748-.833,12-2.835,14.232c-1.931,2.025-4.47,5.393-7.228,2.611L-14.174,12.7" fill="none" stroke="#000" stroke-linecap="round" stroke-linejoin="round" stroke-miterlimit="10" stroke-width="1.506"/>
              </g>
              <g id="g10400" transform="translate(25.918 -41.148)">
                <path id="path10402" d="M0,0C-5.511-2.008-9.781-1.094-14.109,2.859c-2.008,1.948-5.348,4.508-2.589,7.29l3.431,3.46" fill="none" stroke="#000" stroke-linecap="round" stroke-linejoin="round" stroke-miterlimit="10" stroke-width="1.506"/>
              </g>
              <g id="g10404" transform="translate(48.622 -37.714)">
                <path id="path10406" d="M0,0-10.032-10.092" fill="none" stroke="#000" stroke-linecap="round" stroke-linejoin="round" stroke-miterlimit="10" stroke-width="1.506"/>
              </g>
              <g id="g10408" transform="translate(15.146 -25.022)">
                <path id="path10410" d="M0,0-4.128,2.421a1.629,1.629,0,0,0-.031,2.46L6.04,15.166a1.6,1.6,0,0,0,2.44-.031l2.4-4.166" fill="none" stroke="#000" stroke-linecap="round" stroke-linejoin="round" stroke-miterlimit="10" stroke-width="1.506"/>
              </g>
            </g>
          </g>
          <g id="g10412">
            <g id="g10414" clip-path="url(#clip-path-2)">
              <g id="g10420" transform="translate(-27.493 -50.253)">
                <path id="path10422" d="M0,0C-17.258.35-32.174,21.623-2.735,48.089c2.114,1.785,3.433,1.991,5.474,0C32.174,21.623,17.261.35,0,0" fill="#80d261" fill-rule="evenodd"/>
              </g>
              <g id="g10424" transform="translate(-24.754 -2.164)">
                <path id="path10426" d="M0,0C29.435-26.466,14.523-47.739-2.738-48.089a21.174,21.174,0,0,0-4.086.48A19.931,19.931,0,0,1,3.781-41.016a14.394,14.394,0,0,1,8.113,12.949A14.4,14.4,0,0,1,3.77-15.109,59.338,59.338,0,0,1-7.22-1.612q.848.8,1.746,1.612C-3.36,1.785-2.04,1.991,0,0" fill="#4fc122" fill-rule="evenodd"/>
              </g>
            </g>
          </g>
        </g>
      </g>
    </g>
  </g>
</svg>
