<svg xmlns="http://www.w3.org/2000/svg" xmlns:xlink="http://www.w3.org/1999/xlink" width="90" height="90" viewBox="0 0 90 90">
  <defs>
    <clipPath id="clip-path">
      <rect id="Rectangle_411924" data-name="Rectangle 411924" width="90" height="90" fill="#e8bad8" opacity="0.41"/>
    </clipPath>
    <clipPath id="clip-path-2">
      <rect id="Rectangle_411925" data-name="Rectangle 411925" width="62" height="68" fill="#fff" stroke="#707070" stroke-width="1" opacity="0"/>
    </clipPath>
  </defs>
  <g id="Group_1204187" data-name="Group 1204187" transform="translate(4358 10295.33)">
    <g id="Group_1204190" data-name="Group 1204190" transform="translate(-4358 -10295.33)">
      <g id="Mask_Group_1099494" data-name="Mask Group 1099494" transform="translate(0 0)" clip-path="url(#clip-path)">
        <g id="Group_1204189" data-name="Group 1204189" transform="translate(0 4.909)">
          <g id="Group_1204187-2" data-name="Group 1204187" transform="translate(0)">
            <ellipse id="Ellipse_12794" data-name="Ellipse 12794" cx="22.428" cy="22.428" rx="22.428" ry="22.428" transform="translate(44.238 34.661)" fill="#ffc94a"/>
            <ellipse id="Ellipse_12795" data-name="Ellipse 12795" cx="16.311" cy="16.311" rx="16.311" ry="16.311" fill="#ffc94a"/>
          </g>
        </g>
      </g>
      <g id="Mask_Group_1099495" data-name="Mask Group 1099495" transform="translate(13.677 11.331)" clip-path="url(#clip-path-2)">
        <g id="colaboracion" transform="translate(0.19 3.143)">
          <path id="Path_1269700" data-name="Path 1269700" d="M17.428,74.6H1.159a8.135,8.135,0,1,1,16.269,0Zm0,0" transform="translate(-0.245 -14.066)" fill="#56d8d8"/>
          <path id="Path_1269701" data-name="Path 1269701" d="M17.428,51.716v5.54a8.135,8.135,0,0,1-16.269,0v-5.54a8.135,8.135,0,1,1,16.269,0Zm0,0" transform="translate(-0.245 -9.223)" fill="#c99061"/>
          <path id="Path_1269702" data-name="Path 1269702" d="M17.429,51.716v1.2C7.8,52.906,4.6,48.967,4.6,48.967c0,1.636-1.636,3.362-3.438,3.951v-1.2a8.135,8.135,0,0,1,16.27,0Zm0,0" transform="translate(-0.245 -9.223)" fill="#40404c"/>
          <path id="Path_1269703" data-name="Path 1269703" d="M44.951,74.6H28.682a8.135,8.135,0,1,1,16.269,0Zm0,0" transform="translate(-6.07 -14.066)" fill="#fc315f"/>
          <path id="Path_1269704" data-name="Path 1269704" d="M44.951,51.716v5.54a8.135,8.135,0,0,1-16.269,0v-5.54a8.135,8.135,0,1,1,16.269,0Zm0,0" transform="translate(-6.07 -9.223)" fill="#ffd0a6"/>
          <path id="Path_1269705" data-name="Path 1269705" d="M44.951,51.716v1.2c-9.631-.012-12.832-3.951-12.832-3.951,0,1.636-1.636,3.362-3.438,3.951v-1.2a8.135,8.135,0,0,1,16.27,0Zm0,0" transform="translate(-6.07 -9.223)" fill="#aa6e41"/>
          <path id="Path_1269706" data-name="Path 1269706" d="M72.473,74.6H56.2a8.135,8.135,0,1,1,16.269,0Zm0,0" transform="translate(-11.895 -14.066)" fill="#d5e8ec"/>
          <path id="Path_1269707" data-name="Path 1269707" d="M72.473,51.716v5.54a8.135,8.135,0,0,1-16.269,0v-5.54a8.135,8.135,0,1,1,16.269,0Zm0,0" transform="translate(-11.895 -9.223)" fill="#ffd0a6"/>
          <path id="Path_1269708" data-name="Path 1269708" d="M72.474,51.716v1.2c-9.631-.012-12.832-3.951-12.832-3.951,0,1.636-1.636,3.362-3.437,3.951v-1.2a8.135,8.135,0,0,1,16.27,0Zm0,0" transform="translate(-11.895 -9.223)" fill="#fed563"/>
          <path id="Path_1269709" data-name="Path 1269709" d="M44.682,8.888a7.723,7.723,0,0,1-3.615,6.546H32.839A7.732,7.732,0,0,1,38.627,1.342l.167.038a7.731,7.731,0,0,1,5.888,7.508Zm0,0" transform="translate(-6.185 -0.245)" fill="#fcbb65"/>
          <path id="Path_1269710" data-name="Path 1269710" d="M45.67,8.948a7.723,7.723,0,0,1-3.615,6.546H37.506A7.732,7.732,0,0,1,39.782,1.44,7.731,7.731,0,0,1,45.67,8.948Zm0,0" transform="translate(-7.172 -0.305)" fill="#fed563"/>
          <path id="Path_1269711" data-name="Path 1269711" d="M42.918,21.072A2.026,2.026,0,0,1,40.891,23.1h-6.58a2.026,2.026,0,1,1,0-4.053h6.58a2.027,2.027,0,0,1,2.027,2.027Zm0,0" transform="translate(-6.832 -4.031)" fill="#d5e8ec"/>
          <path id="Path_1269712" data-name="Path 1269712" d="M41.888,26.213a2.026,2.026,0,0,1-2.027,2.027H36.1a2.027,2.027,0,1,1,0-4.053h3.764A2.027,2.027,0,0,1,41.888,26.213Zm0,0" transform="translate(-7.21 -5.119)" fill="#d5e8ec"/>
          <path id="Path_1269713" data-name="Path 1269713" d="M10.631,65.387a4.056,4.056,0,0,0,2.886-1.195A.914.914,0,0,0,12.224,62.9a2.255,2.255,0,0,1-3.186,0,.914.914,0,0,0-1.293,1.293A4.053,4.053,0,0,0,10.631,65.387Zm0,0" transform="translate(-1.583 -13.255)"/>
          <path id="Path_1269714" data-name="Path 1269714" d="M10.767,42.586A9.055,9.055,0,0,0,0,51.471v5.54a9.016,9.016,0,0,0,2.511,6.246A9.021,9.021,0,0,0,0,69.512a.914.914,0,0,0,.914.914H17.183a.914.914,0,0,0,.914-.914,8.987,8.987,0,0,0-2.509-6.25,9.076,9.076,0,0,0,1.291-1.713.914.914,0,1,0-1.58-.918,7.222,7.222,0,0,1-13.47-3.62V53.291a6.4,6.4,0,0,0,3.044-2.9c1.666,1.211,5.171,3.013,11.4,3.183v3.438c0,.135,0,.27-.011.4a.914.914,0,0,0,1.825.1c.009-.164.014-.333.014-.5v-5.54a9.052,9.052,0,0,0-7.33-8.885Zm0,23.31A9.012,9.012,0,0,0,14.2,64.451,7.169,7.169,0,0,1,16.212,68.6H1.885A7.2,7.2,0,0,1,3.9,64.448,9.043,9.043,0,0,0,10.766,65.9Zm5.5-14.151c-8.287-.241-11.185-3.57-11.209-3.6a.914.914,0,0,0-1.623.577,3.456,3.456,0,0,1-1.6,2.464,7.22,7.22,0,0,1,14.434.286Zm0,0" transform="translate(0 -8.978)"/>
          <path id="Path_1269715" data-name="Path 1269715" d="M7.651,57.455a.914.914,0,1,0-1.827,0v2a.914.914,0,1,0,1.827,0Zm0,0" transform="translate(-1.232 -11.966)"/>
          <path id="Path_1269716" data-name="Path 1269716" d="M16.641,59.455v-2a.914.914,0,0,0-1.828,0v2a.914.914,0,0,0,1.828,0Zm0,0" transform="translate(-3.135 -11.966)"/>
          <path id="Path_1269717" data-name="Path 1269717" d="M39.747,62.9a2.255,2.255,0,0,1-3.186,0,.914.914,0,0,0-1.293,1.293,4.081,4.081,0,0,0,5.771,0A.914.914,0,0,0,39.747,62.9Zm0,0" transform="translate(-7.407 -13.255)"/>
          <path id="Path_1269718" data-name="Path 1269718" d="M38.289,42.586a9.055,9.055,0,0,0-10.767,8.886v5.54a9.016,9.016,0,0,0,2.511,6.246,9.021,9.021,0,0,0-2.511,6.255.913.913,0,0,0,.913.914h16.27a.913.913,0,0,0,.913-.914,8.988,8.988,0,0,0-2.509-6.25,9.044,9.044,0,0,0,2.51-6.251v-5.54a9.052,9.052,0,0,0-7.33-8.886ZM29.408,68.6a7.192,7.192,0,0,1,2.018-4.151,9.03,9.03,0,0,0,10.295,0A7.168,7.168,0,0,1,43.735,68.6Zm8.536-4.5a7.229,7.229,0,0,1-8.593-7.091v-3.72a6.4,6.4,0,0,0,3.045-2.9c1.666,1.211,5.171,3.013,11.4,3.183v3.439A7.226,7.226,0,0,1,37.943,64.1Zm5.849-12.357c-8.287-.242-11.184-3.57-11.209-3.6a.914.914,0,0,0-1.623.577,3.454,3.454,0,0,1-1.6,2.464,7.22,7.22,0,0,1,14.435.286Zm0,0" transform="translate(-5.825 -8.978)"/>
          <path id="Path_1269719" data-name="Path 1269719" d="M35.173,59.455v-2a.914.914,0,0,0-1.827,0v2a.914.914,0,0,0,1.827,0Zm0,0" transform="translate(-7.057 -11.966)"/>
          <path id="Path_1269720" data-name="Path 1269720" d="M43.25,56.542a.914.914,0,0,0-.914.914v2a.914.914,0,0,0,1.828,0v-2A.914.914,0,0,0,43.25,56.542Zm0,0" transform="translate(-8.96 -11.966)"/>
          <path id="Path_1269721" data-name="Path 1269721" d="M67.269,62.9a2.256,2.256,0,0,1-3.186,0,.914.914,0,0,0-1.292,1.293,4.081,4.081,0,0,0,5.771,0A.914.914,0,0,0,67.269,62.9Zm0,0" transform="translate(-13.232 -13.255)"/>
          <path id="Path_1269722" data-name="Path 1269722" d="M73.142,51.471a9.053,9.053,0,0,0-7.33-8.886,9.057,9.057,0,0,0-10.767,8.886v5.54a9.016,9.016,0,0,0,2.511,6.246,9.021,9.021,0,0,0-2.511,6.255.913.913,0,0,0,.913.914H72.228a.914.914,0,0,0,.914-.914,8.988,8.988,0,0,0-2.509-6.251,9.044,9.044,0,0,0,2.51-6.251ZM64.093,44.25a7.286,7.286,0,0,1,1.373.13,7.226,7.226,0,0,1,5.848,7.091v.273c-8.287-.241-11.185-3.57-11.209-3.6a.914.914,0,0,0-1.623.577,3.454,3.454,0,0,1-1.6,2.464,7.229,7.229,0,0,1,7.214-6.935ZM56.93,68.6a7.192,7.192,0,0,1,2.018-4.151,8.994,8.994,0,0,0,5.146,1.612,9.087,9.087,0,0,0,1.718-.163,8.982,8.982,0,0,0,3.431-1.445A7.164,7.164,0,0,1,71.257,68.6H56.93Zm8.535-4.5a7.228,7.228,0,0,1-8.593-7.091v-3.72a6.394,6.394,0,0,0,3.044-2.9c1.666,1.211,5.171,3.012,11.4,3.182v3.439a7.225,7.225,0,0,1-5.849,7.09Zm0,0" transform="translate(-11.649 -8.978)"/>
          <path id="Path_1269723" data-name="Path 1269723" d="M62.7,59.455v-2a.914.914,0,0,0-1.828,0v2a.914.914,0,0,0,1.828,0Zm0,0" transform="translate(-12.882 -11.966)"/>
          <path id="Path_1269724" data-name="Path 1269724" d="M70.772,56.542a.914.914,0,0,0-.914.914v2a.914.914,0,0,0,1.828,0v-2A.914.914,0,0,0,70.772,56.542Zm0,0" transform="translate(-14.784 -11.966)"/>
          <path id="Path_1269725" data-name="Path 1269725" d="M56.439,9.968a.914.914,0,0,0,.914.914h5.574a.914.914,0,0,0,0-1.828H57.353A.914.914,0,0,0,56.439,9.968Zm0,0" transform="translate(-11.944 -1.916)"/>
          <path id="Path_1269726" data-name="Path 1269726" d="M57.353,3.333a.907.907,0,0,0,.437-.112l2.759-1.505a.914.914,0,1,0-.875-1.6L56.915,1.617a.914.914,0,0,0,.438,1.716Zm0,0" transform="translate(-11.944 0)"/>
          <path id="Path_1269727" data-name="Path 1269727" d="M56.915,17.914l2.759,1.506a.914.914,0,0,0,.875-1.6L57.79,16.309a.914.914,0,0,0-.875,1.6Zm0,0" transform="translate(-11.944 -3.428)"/>
          <path id="Path_1269728" data-name="Path 1269728" d="M13.141,10.882h5.574a.914.914,0,0,0,0-1.828H13.141a.914.914,0,1,0,0,1.828Zm0,0" transform="translate(-2.588 -1.916)"/>
          <path id="Path_1269729" data-name="Path 1269729" d="M16.275,1.716l2.759,1.505a.914.914,0,1,0,.875-1.6L17.151.112a.914.914,0,0,0-.875,1.6Zm0,0" transform="translate(-3.344 0)"/>
          <path id="Path_1269730" data-name="Path 1269730" d="M19.034,16.31l-2.759,1.505a.914.914,0,1,0,.875,1.6l2.759-1.506a.914.914,0,0,0-.875-1.6Zm0,0" transform="translate(-3.344 -3.428)"/>
          <path id="Path_1269731" data-name="Path 1269731" d="M59.037,34.347a.914.914,0,0,0,.914.914h4.074v3.247a.914.914,0,0,0,1.828,0v-4.16a.914.914,0,0,0-.914-.914H59.951a.914.914,0,0,0-.914.914Zm0,0" transform="translate(-12.494 -7.075)"/>
          <path id="Path_1269732" data-name="Path 1269732" d="M11.232,32.345a.914.914,0,0,0,.914-.913V28.185h19.87v3.247a.914.914,0,0,0,1.827,0V28.185H45.985a.914.914,0,1,0,0-1.828H33.843V24.035h.991a2.939,2.939,0,0,0,2.6-4.306,2.938,2.938,0,0,0,1.117-4.5A8.645,8.645,0,0,0,34.824.2,8.647,8.647,0,0,0,24.309,8.643a8.6,8.6,0,0,0,3.04,6.583,2.938,2.938,0,0,0,1.117,4.5,2.943,2.943,0,0,0,2.6,4.309h.946v2.322H11.232a.914.914,0,0,0-.914.914v4.16a.914.914,0,0,0,.914.913Zm18.43-14.191a1.113,1.113,0,1,1,0-2.226h6.58a1.113,1.113,0,1,1,0,2.226ZM26.137,8.643a6.815,6.815,0,1,1,10.79,5.539,2.936,2.936,0,0,0-.684-.081H33.866V12.085a3.171,3.171,0,0,0,2.252-3.031.914.914,0,1,0-1.827,0,1.339,1.339,0,0,1-2.677,0,.914.914,0,1,0-1.828,0,3.172,3.172,0,0,0,2.253,3.031V14.1H29.662a2.949,2.949,0,0,0-.685.081,6.783,6.783,0,0,1-2.84-5.538Zm3.82,12.451a1.113,1.113,0,0,1,1.113-1.113h3.764a1.113,1.113,0,1,1,0,2.226H31.07A1.114,1.114,0,0,1,29.957,21.095Zm0,0" transform="translate(-2.184 0)"/>
        </g>
      </g>
    </g>
  </g>
</svg>
