<svg xmlns="http://www.w3.org/2000/svg" xmlns:xlink="http://www.w3.org/1999/xlink" width="98" height="98" viewBox="0 0 98 98">
  <defs>
    <filter id="Path_874925" x="0" y="0" width="98" height="98" filterUnits="userSpaceOnUse">
      <feOffset dy="3" input="SourceAlpha"/>
      <feGaussianBlur stdDeviation="3" result="blur"/>
      <feFlood flood-opacity="0.161"/>
      <feComposite operator="in" in2="blur"/>
      <feComposite in="SourceGraphic"/>
    </filter>
    <clipPath id="clip-path">
      <rect id="Rectangle_412077" data-name="Rectangle 412077" width="51" height="57" transform="translate(279.051 3606)" fill="#fff" stroke="#707070" stroke-width="1" opacity="0"/>
    </clipPath>
  </defs>
  <g id="Group_1204380" data-name="Group 1204380" transform="translate(-256 -3588.407)">
    <g id="Group_1204379" data-name="Group 1204379">
      <g id="Group_1203801" data-name="Group 1203801" transform="translate(-20 -2503)">
        <g id="Group_1187153" data-name="Group 1187153">
          <g id="Group_1182177" data-name="Group 1182177">
            <g id="Group_1181903" data-name="Group 1181903">
              <g id="Group_1181438" data-name="Group 1181438">
                <g id="Group_1111314" data-name="Group 1111314" transform="translate(-734.73 3020.407)">
                  <g transform="matrix(1, 0, 0, 1, 1010.73, 3071)" filter="url(#Path_874925)">
                    <g id="Path_874925-2" data-name="Path 874925" transform="translate(9 6)" fill="#ffc94a">
                      <path d="M 39.99997329711914 79.50040435791016 C 34.66728591918945 79.50040435791016 29.494384765625 78.45610046386719 24.62495040893555 76.39649963378906 C 19.92138481140137 74.40706634521484 15.69705104827881 71.55889892578125 12.06927299499512 67.93113708496094 C 8.441506385803223 64.30335998535156 5.593339920043945 60.07902526855469 3.603906631469727 55.37545776367188 C 1.544306635856628 50.50602340698242 0.5000066161155701 45.33312606811523 0.5000066161155701 40.00043487548828 C 0.5000066161155701 34.66728973388672 1.544306635856628 29.4943904876709 3.603906631469727 24.62495803833008 C 5.593339920043945 19.92139053344727 8.441506385803223 15.69704627990723 12.06927299499512 12.06927967071533 C 15.69705104827881 8.441502571105957 19.92138481140137 5.59334659576416 24.62495040893555 3.603902101516724 C 29.494384765625 1.544302225112915 34.66728591918945 0.5000022053718567 39.99997329711914 0.5000022053718567 C 45.33266067504883 0.5000022053718567 50.50556182861328 1.544302225112915 55.37499618530273 3.603902101516724 C 60.07856369018555 5.59334659576416 64.30290985107422 8.441502571105957 67.93067169189453 12.06927967071533 C 71.55844879150391 15.69704627990723 74.40660858154297 19.92139053344727 76.39604949951172 24.62495803833008 C 78.45565032958984 29.4943904876709 79.49995422363281 34.66728973388672 79.49995422363281 39.99998092651367 C 79.49995422363281 45.33312606811523 78.45565032958984 50.50602340698242 76.39604949951172 55.37545776367188 C 74.40660858154297 60.07902526855469 71.55844879150391 64.30335998535156 67.93067169189453 67.93113708496094 C 64.30290985107422 71.55889892578125 60.07856369018555 74.40706634521484 55.37499618530273 76.39649963378906 C 50.50556182861328 78.45610046386719 45.33266067504883 79.50040435791016 39.99997329711914 79.50040435791016 Z" stroke="none"/>
                      <path d="M 39.99997329711914 1 C 34.73457336425781 1 29.627197265625 2.031013488769531 24.81972885131836 4.064399719238281 C 20.17576217651367 6.028633117675781 16.00484085083008 8.840812683105469 12.42282867431641 12.42282104492188 C 8.840805053710938 16.00483703613281 6.02862548828125 20.17575836181641 4.06439208984375 24.81973648071289 C 2.031005859375 29.62720108032227 0.9999923706054688 34.73456954956055 0.9999923706054688 40.00043487548828 C 0.9999923706054688 45.26583480834961 2.031005859375 50.37321472167969 4.06439208984375 55.18067932128906 C 6.02862548828125 59.82464599609375 8.840805053710938 63.99556732177734 12.42282867431641 67.57757568359375 C 16.00484085083008 71.15959167480469 20.17576217651367 73.97177124023438 24.81972885131836 75.93600463867188 C 29.627197265625 77.96939086914062 34.73457336425781 79.00040435791016 39.99997329711914 79.00040435791016 C 45.26537322998047 79.00040435791016 50.37274932861328 77.96939086914062 55.18021774291992 75.93600463867188 C 59.82418441772461 73.97177124023438 63.9951057434082 71.15959167480469 67.57711791992188 67.57757568359375 C 71.15912628173828 63.99556732177734 73.97130584716797 59.82464599609375 75.93553924560547 55.18067932128906 C 77.96892547607422 50.37321472167969 78.99993896484375 45.26583480834961 78.99993896484375 39.99998092651367 C 78.99993896484375 34.73456954956055 77.96892547607422 29.62720108032227 75.93553924560547 24.81973648071289 C 73.97130584716797 20.17575836181641 71.15912628173828 16.00483703613281 67.57711791992188 12.42282104492188 C 63.9951057434082 8.840812683105469 59.82418441772461 6.028633117675781 55.18021774291992 4.064399719238281 C 50.37274932861328 2.031013488769531 45.26537322998047 1 39.99997329711914 1 M 39.99997329711914 0 C 62.09135055541992 0 79.99993896484375 17.90859222412109 79.99993896484375 39.99998092651367 L 79.99993896484375 40.00043487548828 C 79.99993896484375 62.09181213378906 62.09135055541992 80.00040435791016 39.99997329711914 80.00040435791016 C 17.90859603881836 80.00040435791016 -7.62939453125e-06 62.09181213378906 -7.62939453125e-06 40.00043487548828 L -7.62939453125e-06 39.99998092651367 C -7.62939453125e-06 17.90859222412109 17.90859603881836 0 39.99997329711914 0 Z" stroke="none" fill="#b18c32"/>
                    </g>
                  </g>
                </g>
              </g>
            </g>
          </g>
        </g>
      </g>
      <g id="Mask_Group_1099557" data-name="Mask Group 1099557" clip-path="url(#clip-path)">
        <g id="gestion-de-proyectos" transform="translate(277.582 3607.525)">
          <path id="Path_1278688" data-name="Path 1278688" d="M42.312,21.156A15.232,15.232,0,1,0,18.861,33.983a4.852,4.852,0,0,1,2.3,4.064v3.42A2.539,2.539,0,0,0,23.695,44h6.77A2.539,2.539,0,0,0,33,41.466V38.117a4.985,4.985,0,0,1,2.344-4.165,15.219,15.219,0,0,0,6.965-12.8Z" fill="#e39d10"/>
          <path id="Path_1278689" data-name="Path 1278689" d="M22.849,49.082a2.539,2.539,0,0,0,2.539,2.539h3.385a2.539,2.539,0,0,0,2.539-2.539V44H22.849Z" fill="#ebebeb"/>
          <path id="Path_1278690" data-name="Path 1278690" d="M47.553,12.2l2.661-2L47.167,6.146l-2.661,2a1.692,1.692,0,0,1-2.69-1.593l.47-3.291-5.027-.718L36.79,5.83a1.692,1.692,0,0,1-3.03.777L31.765,3.946,27.7,6.993,29.7,9.653a1.692,1.692,0,0,1-1.593,2.69l-3.291-.47L24.1,16.9l3.292.47a1.692,1.692,0,0,1,.776,3.03l-2.66,2,3.046,4.062,2.66-1.995A1.692,1.692,0,0,1,33.9,26.056l-.474,3.29,5.027.718.474-3.292A1.692,1.692,0,0,1,41.957,26l2,2.66,4.062-3.046-2-2.66a1.692,1.692,0,0,1,1.593-2.691l3.291.471.718-5.027-3.291-.471a1.692,1.692,0,0,1-.777-3.029ZM37.858,22.225A5.924,5.924,0,1,1,43.782,16.3,5.924,5.924,0,0,1,37.858,22.225Z" fill="#10bde0"/>
          <path id="Path_1278691" data-name="Path 1278691" d="M18.861,33.983a15.274,15.274,0,0,1-2.085-1.615,4.224,4.224,0,1,1-4.082-5.288c.129,0,.254.027.377.038a15.221,15.221,0,0,1-1.215-5.962H10.779l-.585,2.782a.846.846,0,0,1-1.308.523L6.547,22.849,4.009,25.387l1.608,2.338a.846.846,0,0,1-.523,1.308l-2.777.585V33l2.781.585A.846.846,0,0,1,5.62,34.9L4.009,37.235l2.539,2.539,2.338-1.608a.846.846,0,0,1,1.309.523l.584,2.777h3.385l.584-2.782a.846.846,0,0,1,1.309-.523l2.338,1.612,2.656-2.656a4.927,4.927,0,0,0-2.19-3.134Z" fill="#c9dfff"/>
          <path id="Path_1278692" data-name="Path 1278692" d="M51.741,14.865l-3.292-.47a.846.846,0,0,1-.388-1.515l2.661-2A.846.846,0,0,0,50.891,9.7L47.844,5.639a.846.846,0,0,0-1.185-.169l-2.66,2a.846.846,0,0,1-1.349-.8l.471-3.292a.846.846,0,0,0-.718-.958L37.379,1.7a.846.846,0,0,0-.958.718L35.951,5.71a.846.846,0,0,1-1.515.388L32.442,3.438a.846.846,0,0,0-1.185-.169L28.714,5.177a16.372,16.372,0,0,0-3.461,0A16.079,16.079,0,0,0,11.076,19.595c-.023.239-.031.477-.043.715h-.254a.846.846,0,0,0-.828.677l-.585,2.781L7.024,22.152a.846.846,0,0,0-1.079.1L3.406,24.789a.846.846,0,0,0-.1,1.078l1.608,2.338-2.782.585a.846.846,0,0,0-.665.828V33a.846.846,0,0,0,.672.828l2.782.585L3.315,36.755a.846.846,0,0,0,.1,1.078l2.539,2.539a.846.846,0,0,0,1.079.1l2.338-1.612.585,2.782a.846.846,0,0,0,.828.677h3.385a.846.846,0,0,0,.828-.672l.585-2.782,2.338,1.608a.846.846,0,0,0,1.078-.1l1.314-1.318v2.412A3.374,3.374,0,0,0,22,44.38v4.7a3.385,3.385,0,0,0,3.385,3.385h3.385a3.385,3.385,0,0,0,3.385-3.385v-4.7a3.374,3.374,0,0,0,1.692-2.914V38.117a4.147,4.147,0,0,1,1.957-3.454A16.236,16.236,0,0,0,37.8,33.139L36.67,31.878a14.4,14.4,0,0,1-1.783,1.363,5.829,5.829,0,0,0-2.73,4.875v3.349a1.692,1.692,0,0,1-1.692,1.692h-6.77A1.692,1.692,0,0,1,22,41.466v-3.42a5.694,5.694,0,0,0-2.684-4.776A14.343,14.343,0,0,1,26.9,6.783a.923.923,0,0,0-.033.092.846.846,0,0,0,.162.627l1.995,2.66a.828.828,0,0,1,.051.939.841.841,0,0,1-.846.407l-3.292-.471a.846.846,0,0,0-.958.718l-.718,5.026a.846.846,0,0,0,.718.958l3.292.471a.846.846,0,0,1,.388,1.515L25,21.72a.846.846,0,0,0-.169,1.185l3.046,4.062a.846.846,0,0,0,1.185.169l2.661-1.995a.846.846,0,0,1,1.345.8l-.47,3.292a.846.846,0,0,0,.718.958l5.027.718a.94.94,0,0,0,.119.008.846.846,0,0,0,.839-.726l.47-3.292a.846.846,0,0,1,1.515-.388l2,2.66a.846.846,0,0,0,1.185.169l4.062-3.046a.846.846,0,0,0,.169-1.185L46.7,22.445a.832.832,0,0,1-.051-.939.822.822,0,0,1,.846-.406l3.292.47a.846.846,0,0,0,.958-.718l.718-5.027a.846.846,0,0,0-.718-.958ZM12.5,27.926a16.025,16.025,0,0,0,3.141,4.524,3.38,3.38,0,1,1-3.173-4.524Zm16.27,22.849H25.387a1.692,1.692,0,0,1-1.692-1.692v-.846h6.77v.846A1.692,1.692,0,0,1,28.772,50.775Zm1.692-5.924v1.692h-6.77V44.851ZM20.109,36.862l-1.815,1.812-1.758-1.212a1.692,1.692,0,0,0-2.617,1.045l-.443,2.113H11.465l-.443-2.11A1.692,1.692,0,0,0,8.4,37.465L6.646,38.673,5.1,37.135l1.211-1.757a1.692,1.692,0,0,0-1.044-2.617l-2.11-.444V30.306l2.11-.444a1.692,1.692,0,0,0,1.045-2.612L5.1,25.487l1.542-1.538,1.759,1.212a1.692,1.692,0,0,0,2.616-1.046l.148-.7a16.113,16.113,0,0,0,.671,2.87,5.077,5.077,0,1,0,5.117,7.362A16,16,0,0,0,18.4,34.7a4.131,4.131,0,0,1,1.705,2.166Zm30.073-17.09-2.454-.35a2.539,2.539,0,0,0-2.39,4.037l1.487,1.983-2.708,2.031L42.63,25.49a2.539,2.539,0,0,0-4.544,1.164l-.343,2.457-3.35-.479.35-2.454a2.539,2.539,0,0,0-4.037-2.391l-1.983,1.487-2.031-2.708,1.982-1.488a2.539,2.539,0,0,0-1.164-4.544l-2.454-.35.479-3.35,2.454.35A2.539,2.539,0,0,0,30.38,9.147L28.888,7.163,31.6,5.132l1.488,1.983a2.539,2.539,0,0,0,4.544-1.164l.35-2.454,3.35.478-.35,2.454a2.539,2.539,0,0,0,4.037,2.39L47,7.332l2.031,2.708-1.983,1.488a2.539,2.539,0,0,0,1.164,4.544l2.454.35Z"/>
          <path id="Path_1278693" data-name="Path 1278693" d="M37.858,9.532a6.77,6.77,0,1,0,6.77,6.77,6.77,6.77,0,0,0-6.77-6.77Zm0,11.847A5.077,5.077,0,1,1,42.935,16.3a5.077,5.077,0,0,1-5.077,5.077Z"/>
          <path id="Path_1278694" data-name="Path 1278694" d="M26.234,38.927h1.692v2.539H26.234Z"/>
          <path id="Path_1278695" data-name="Path 1278695" d="M23.378,30.616a10.155,10.155,0,0,1-1.714-18.053l-.9-1.432a11.847,11.847,0,0,0,2,21.06,5.4,5.4,0,0,1,3.47,5.044h1.692A7.081,7.081,0,0,0,23.378,30.616Z"/>
          <path id="Path_1278696" data-name="Path 1278696" d="M43.158,33h5.924V34.7H43.158Z"/>
          <path id="Path_1278697" data-name="Path 1278697" d="M44,36.892H45.7V43.5H44Z" transform="matrix(0.64, -0.768, 0.768, 0.64, -14.741, 48.925)"/>
          <path id="Path_1278698" data-name="Path 1278698" d="M38.081,39.773h1.692V45.7H38.081Z"/>
          <path id="Path_1278699" data-name="Path 1278699" d="M2.435,15.232H9.413v1.692H2.435Z" transform="matrix(0.97, -0.243, 0.243, 0.97, -3.723, 1.917)"/>
          <path id="Path_1278700" data-name="Path 1278700" d="M6.347,5.246H8.038v7.279H6.347Z" transform="matrix(0.581, -0.814, 0.814, 0.581, -4.219, 9.574)"/>
          <path id="Path_1278701" data-name="Path 1278701" d="M11.829,1.583h1.692V8.571H11.829Z" transform="matrix(0.969, -0.248, 0.248, 0.969, -0.862, 3.297)"/>
        </g>
      </g>
    </g>
  </g>
</svg>
