<svg xmlns="http://www.w3.org/2000/svg" xmlns:xlink="http://www.w3.org/1999/xlink" width="111.165" height="111.165" viewBox="0 0 111.165 111.165">
  <defs>
    <clipPath id="clip-path">
      <rect id="Rectangle_411856" data-name="Rectangle 411856" width="111.165" height="111.165" transform="translate(0)" fill="#fff"/>
    </clipPath>
    <filter id="Rectangle_411855" x="-1.926" y="-0.947" width="73.583" height="118.142" filterUnits="userSpaceOnUse">
      <feOffset dy="3" input="SourceAlpha"/>
      <feGaussianBlur stdDeviation="3" result="blur"/>
      <feFlood flood-opacity="0.161"/>
      <feComposite operator="in" in2="blur"/>
      <feComposite in="SourceGraphic"/>
    </filter>
    <clipPath id="clip-path-2">
      <rect id="Rectangle_411857" data-name="Rectangle 411857" width="82" height="90" transform="translate(-8689 -9545)" fill="#fff" stroke="#707070" stroke-width="1" opacity="0"/>
    </clipPath>
  </defs>
  <g id="Group_1204073" data-name="Group 1204073" transform="translate(8710.65 9554.937)">
    <g id="Mask_Group_1099454" data-name="Mask Group 1099454" transform="translate(-8710.65 -9554.937)" clip-path="url(#clip-path)">
      <g id="Group_1204074" data-name="Group 1204074" transform="translate(7.074 5.053)">
        <g transform="matrix(1, 0, 0, 1, -7.07, -5.05)" filter="url(#Rectangle_411855)">
          <path id="Rectangle_411855-2" data-name="Rectangle 411855" d="M10,0H45.583a10,10,0,0,1,10,10v90.142a0,0,0,0,1,0,0H0a0,0,0,0,1,0,0V10A10,10,0,0,1,10,0Z" transform="translate(7.07 5.05)" fill="#3a6673"/>
        </g>
      </g>
    </g>
    <g id="Mask_Group_1099455" data-name="Mask Group 1099455" clip-path="url(#clip-path-2)">
      <g id="cierre" transform="translate(-8693.045 -9545.045)">
        <path id="Path_1269405" data-name="Path 1269405" d="M18.257,5.528H71.834V48.153H18.257Z" fill="#eceff1" fill-rule="evenodd"/>
        <path id="Path_1269406" data-name="Path 1269406" d="M37.62,45.949,27.6,42.371l-9.872,17.1,6.6,8.245L51.424,83.887c3.7,2.154,6.955-3.437,3.258-5.592l1.469.856c3.7,2.154,6.955-3.437,3.258-5.592l1.843,1.073c3.7,2.154,6.956-3.439,3.256-5.593l-1.488-.866c3.7,2.149,6.951-3.441,3.254-5.594Z" fill="#f1cbbc" fill-rule="evenodd"/>
        <path id="Path_1269407" data-name="Path 1269407" d="M72.359,59.47l-9.872-17.1a27.032,27.032,0,0,1-14.762.457c-4.681-1.03-6.7-.052-10.1,3.121-1.248,1.163-2.682,2.621-4.5,4.383l-.373,7.846c-.123,2.586,2,2.979,4.652,1.548,1.789-.966,2.774-3.961,3.872-6.03,2.548-1.175,5.047-2.666,7.592-1.2l17.41,10.078Zm-40.223,8.4,1.287-1.83c2.463-3.5,7.756.222,5.293,3.723l-.687.977c2.464-3.5,7.755.224,5.292,3.725l-1.87,2.658c2.463-3.5,7.756.223,5.293,3.724l-1.621,2.3c-2.463,3.5-7.756-.222-5.294-3.723L38.8,80.893c-2.463,3.5-7.756-.222-5.294-3.723l-.275.391c-2.463,3.5-7.756-.222-5.293-3.723l.959-1.363c-2.463,3.5-7.756-.223-5.293-3.724l3.233-4.6c2.462-3.5,7.754.22,5.3,3.721Z" fill="#dbb598" fill-rule="evenodd"/>
        <path id="Path_1269408" data-name="Path 1269408" d="M69.52,34.589,63.3,38.182A2.8,2.8,0,0,0,62.272,42L73.2,60.923a2.8,2.8,0,0,0,3.818,1.023l6.225-3.594a2.8,2.8,0,0,0,1.023-3.818L73.339,35.612A2.8,2.8,0,0,0,69.52,34.589Z" fill="#fd4755" fill-rule="evenodd"/>
        <path id="Path_1269409" data-name="Path 1269409" d="M20.57,34.589,26.8,38.182A2.8,2.8,0,0,1,27.818,42L16.893,60.923a2.8,2.8,0,0,1-3.818,1.023L6.85,58.352a2.8,2.8,0,0,1-1.023-3.818L16.752,35.612A2.8,2.8,0,0,1,20.57,34.589Z" fill="#60b7ff" fill-rule="evenodd"/>
        <path id="Path_1269410" data-name="Path 1269410" d="M83.046,55.236,72.12,36.316a1.391,1.391,0,0,0-1.9-.509L64,39.4a1.4,1.4,0,0,0-.509,1.9L74.416,60.22a1.4,1.4,0,0,0,1.9.507l6.226-3.593a1.393,1.393,0,0,0,.509-1.9ZM70.4,58.889l-4.084,2.085L49.568,51.281c-2.927-1.689-5.687-.378-8.124.778q-.38.182-.762.359a1.407,1.407,0,0,0-.655.618c-.278.525-.547,1.1-.81,1.658-.717,1.538-1.535,3.28-2.488,3.794-1.3.7-2.168.728-2.405.579-.1-.064-.2-.344-.172-.82l.346-7.292c.59-.573,1.142-1.119,1.642-1.61,5.112-5.036,6.326-6.231,11.281-5.142a28.922,28.922,0,0,0,14.406-.158Zm-4.834,4.9a1.829,1.829,0,0,1-1.839,3.162l-5.688-3.313a1.408,1.408,0,1,0-1.417,2.434l5.689,3.311v0h0l1.485.865a1.638,1.638,0,0,1,.929,1.465A2.153,2.153,0,0,1,63.692,73.5a1.646,1.646,0,0,1-1.733-.086L60.12,72.343l0,0L54.37,69a1.407,1.407,0,0,0-1.417,2.432L58.7,74.773l0,0h0a1.828,1.828,0,0,1-1.842,3.158l-1.466-.854,0,0L50.7,74.349a1.408,1.408,0,0,0-1.417,2.434l4.688,2.729h0a1.829,1.829,0,0,1-1.843,3.159L48.5,80.554a4.5,4.5,0,0,0-1.742-5.34,5,5,0,0,0-1.785-.793,4.487,4.487,0,0,0-1.637-5.588,4.9,4.9,0,0,0-2.56-.9,4.664,4.664,0,0,0-2.044-3.8,4.551,4.551,0,0,0-5.089-.231,4.948,4.948,0,0,0-1.5-1.661,4.485,4.485,0,0,0-6.454,1.107l-1.425,2.027-4.83-6.03,8.8-15.25,6.771,2.418c-.273.267-.553.544-.843.83-.635.624-1.293,1.272-2.025,1.981a1.4,1.4,0,0,0-.425.945l-.374,7.846a3.463,3.463,0,0,0,1.485,3.336c1.293.815,3.155.642,5.242-.484,1.772-.956,2.8-3.146,3.7-5.076.182-.393.359-.769.533-1.121.118-.055.234-.11.351-.166,2.393-1.135,3.941-1.788,5.505-.883ZM45.135,77.517a1.712,1.712,0,0,0-2.532.422l-1.623,2.3a1.641,1.641,0,0,0-.233,1.718,2.156,2.156,0,0,0,1.687,1.187,1.641,1.641,0,0,0,1.538-.8l1.62-2.3a1.713,1.713,0,0,0-.457-2.526Zm-6.46,1.112s0,0,0,0l1.62-2.3,1.871-2.659a1.83,1.83,0,0,0-2.99-2.109v0l-4.52,6.426a1.828,1.828,0,0,0,2.991,2.1Zm-6.317-2.268,4.518-6.425.687-.976a1.828,1.828,0,0,0-2.99-2.1l-1.286,1.828,0,0-3.234,4.6-.959,1.361a1.828,1.828,0,0,0,2.99,2.1Zm-4.61-4.7,3.236-4.6a1.828,1.828,0,0,0-2.993-2.1l-3.233,4.6a1.828,1.828,0,0,0,2.988,2.107ZM15.674,60.219,26.6,41.3a1.4,1.4,0,0,0-.509-1.9l-6.226-3.594a1.367,1.367,0,0,0-.689-.186,1.392,1.392,0,0,0-1.206.7L7.047,55.239a1.389,1.389,0,0,0,.506,1.895l6.226,3.593a1.4,1.4,0,0,0,1.895-.507Zm3.99-53.285H70.427v25.9a4.2,4.2,0,0,0-1.611.533l-6.225,3.594a4.217,4.217,0,0,0-2.011,4.5,25.81,25.81,0,0,1-12.555-.012c-5.008-1.1-7.436-.058-10.728,2.884l-7.8-2.787A4.22,4.22,0,0,0,27.5,36.963l-6.225-3.595a4.2,4.2,0,0,0-1.609-.533Zm64.28,52.636-6.226,3.594a4.17,4.17,0,0,1-2.089.561,4.3,4.3,0,0,1-1.1-.144,4.182,4.182,0,0,1-2.553-1.955l-.169-.3L68.659,62.94a4.6,4.6,0,0,1-.021,4.756,4.976,4.976,0,0,1-1.723,1.756,4.306,4.306,0,0,1,.627,2.278,4.954,4.954,0,0,1-2.452,4.214,4.291,4.291,0,0,1-2.651.551,4.975,4.975,0,0,1-.669,2.185,4.62,4.62,0,0,1-4.051,2.372,4.939,4.939,0,0,1-.677,2.364,4.62,4.62,0,0,1-3.929,2.374,4.743,4.743,0,0,1-2.4-.686L47,82.939l-.723,1.027a4.477,4.477,0,0,1-3.69,2c-.134,0-.267-.007-.4-.02a4.96,4.96,0,0,1-3.945-2.711,4.589,4.589,0,0,1-4.737-.431,4.841,4.841,0,0,1-1.862-2.528,4.749,4.749,0,0,1-3.709-.8,4.61,4.61,0,0,1-2.02-4.209A4.967,4.967,0,0,1,23.6,74.39a4.488,4.488,0,0,1-1.14-6.449l.12-.171-4.666-5.828a4.178,4.178,0,0,1-2.349,1.64,4.3,4.3,0,0,1-1.1.144,4.174,4.174,0,0,1-2.088-.561L6.145,59.57a4.207,4.207,0,0,1-1.538-5.74L15.533,34.908a4.141,4.141,0,0,1,1.316-1.4V5.527a1.408,1.408,0,0,1,1.408-1.408H71.835a1.41,1.41,0,0,1,1.408,1.408V33.509a4.17,4.17,0,0,1,1.316,1.4L85.482,53.83a4.2,4.2,0,0,1-1.537,5.74ZM28.113,34.6a1.408,1.408,0,0,0,1.99,0l4.314-4.317a1.407,1.407,0,0,0-1.99-1.99l-3.319,3.321-1.163-1.164a1.408,1.408,0,1,0-1.99,1.992Zm13.012-1.746H63.141a1.408,1.408,0,0,0,0-2.815H41.124a1.408,1.408,0,1,0,0,2.815ZM28.113,19.434a1.4,1.4,0,0,0,1.99,0l4.314-4.314a1.407,1.407,0,1,0-1.99-1.99l-3.319,3.318-1.163-1.161a1.407,1.407,0,1,0-1.99,1.99Zm11.6-3a1.408,1.408,0,0,0,1.408,1.408H63.141a1.408,1.408,0,0,0,0-2.815H41.124a1.408,1.408,0,0,0-1.408,1.408Z" fill-rule="evenodd"/>
      </g>
    </g>
  </g>
</svg>
