<svg xmlns="http://www.w3.org/2000/svg" xmlns:xlink="http://www.w3.org/1999/xlink" width="412.651" height="717.716" viewBox="0 0 412.651 717.716">
  <defs>
    <clipPath id="clip-path">
      <rect id="Rectangle_412646" data-name="Rectangle 412646" width="138.074" height="69.404" fill="none"/>
    </clipPath>
    <clipPath id="clip-path-2">
      <rect id="Rectangle_412647" data-name="Rectangle 412647" width="158.908" height="84.926" fill="none"/>
    </clipPath>
    <clipPath id="clip-path-3">
      <rect id="Rectangle_412647-2" data-name="Rectangle 412647" width="158.908" height="83.689" fill="none"/>
    </clipPath>
  </defs>
  <g id="Group_1205101" data-name="Group 1205101" transform="translate(-567.566 -1527.102)">
    <g id="Imagen_svg_full" data-name="Imagen svg full" transform="translate(567.566 1527.102)">
      <g id="FLECHAS_CONECTORES">
        <path id="Path_1306774" data-name="Path 1306774" fill="none"/>
        <path id="Path_1306775" data-name="Path 1306775" d="M227.949,94.21l-3.575,11.92L220.8,94.21Z" transform="translate(-65.436 -28.729)" fill="#1b6f9b"/>
        <path id="Path_1306776" data-name="Path 1306776" d="M334.35,138.3l11.92,3.575-11.92,3.575Z" transform="translate(-99.087 -40.986)" fill="#1b6f9b"/>
        <path id="Path_1306777" data-name="Path 1306777" d="M319.76,449.92l11.927,3.575-11.927,3.574Z" transform="translate(-80.763 -144.337)" fill="#1b6f9b"/>
        <path id="Path_1306778" data-name="Path 1306778" d="M317.41,571.53l11.92,3.575-11.92,3.582Z" transform="translate(-56.413 -189.377)" fill="#1b6f9b"/>
        <path id="Path_1306779" data-name="Path 1306779" d="M227.949,198.94l-3.575,11.92L220.8,198.94Z" transform="translate(-65.436 -64.957)" fill="#1b6f9b"/>
        <path id="Path_1306780" data-name="Path 1306780" d="M227.949,403.06l-3.575,11.92L220.8,403.06Z" transform="translate(-65.436 -131.45)" fill="#1b6f9b"/>
        <path id="Path_1306781" data-name="Path 1306781" d="M227.949,528.06l-3.575,11.92L220.8,528.06Z" transform="translate(-65.436 -185.494)" fill="#1b6f9b"/>
        <path id="Path_1306782" data-name="Path 1306782" d="M227.949,638.71l-3.575,11.92L220.8,638.71Z" transform="translate(-65.436 -225.286)" fill="#1b6f9b"/>
        <path id="Path_1306783" data-name="Path 1306783" d="M227.949,755.59l-3.575,11.927L220.8,755.59Z" transform="translate(-65.436 -268.924)" fill="#1b6f9b"/>
        <path id="Path_1306784" data-name="Path 1306784" d="M227.949,877.29l-3.575,11.927L220.8,877.29Z" transform="translate(-65.436 -318.991)" fill="#1b6f9b"/>
        <path id="Path_1306785" data-name="Path 1306785" d="M227.949,995.88l-3.575,11.92L220.8,995.88Z" transform="translate(-65.436 -364.136)" fill="#1b6f9b"/>
        <path id="Path_1306786" data-name="Path 1306786" d="M225.88,110" transform="translate(-66.941 -32.599)" fill="#1b6f9b"/>
        <path id="Path_1306787" data-name="Path 1306787" fill="none"/>
        <path id="Path_1306788" data-name="Path 1306788" d="M225.88,230" transform="translate(-66.941 -68.162)" fill="#1b6f9b"/>
        <path id="Path_1306789" data-name="Path 1306789" fill="none"/>
        <path id="Path_1306790" data-name="Path 1306790" d="M225.88,420" transform="translate(-66.941 -124.47)" fill="#2e7d32"/>
        <path id="Path_1306791" data-name="Path 1306791" fill="none"/>
        <path id="Path_1306792" data-name="Path 1306792" d="M225.88,540" transform="translate(-66.941 -160.033)" fill="#1b6f9b"/>
        <path id="Path_1306793" data-name="Path 1306793" fill="none"/>
        <path id="Path_1306794" data-name="Path 1306794" d="M225.88,660" transform="translate(-66.941 -195.595)" fill="#1b6f9b"/>
        <path id="Path_1306795" data-name="Path 1306795" fill="none"/>
        <path id="Path_1306796" data-name="Path 1306796" d="M225.88,780" transform="translate(-66.941 -231.158)" fill="#1b6f9b"/>
        <path id="Path_1306797" data-name="Path 1306797" fill="none"/>
        <path id="Path_1306798" data-name="Path 1306798" d="M225.88,900" transform="translate(-66.941 -266.721)" fill="#1b6f9b"/>
        <path id="Path_1306799" data-name="Path 1306799" fill="none"/>
        <path id="Path_1306800" data-name="Path 1306800" d="M225.88,1020" transform="translate(-66.941 -302.284)" fill="#1b6f9b"/>
        <path id="Path_1306801" data-name="Path 1306801" fill="none"/>
        <path id="Path_1306802" data-name="Path 1306802" d="M113.71,137.26l14.361,4.306L113.71,145.88Z" transform="translate(-33.699 -40.678)" fill="#d32f2f"/>
        <path id="Path_1306803" data-name="Path 1306803" d="M103.5,285.09l14.361,4.313L103.5,293.71Z" transform="translate(-46.673 -84.488)" fill="#d32f2f"/>
        <path id="Path_1306804" data-name="Path 1306804" d="M105.88,145" transform="translate(-31.378 -42.972)" fill="#d32f2f"/>
      </g>
      <g id="BLOQUES_PRINCIPALES" transform="translate(24.656 14.242)">
        <path id="Path_1306805" data-name="Path 1306805" d="M164.469,20.24h78.66c7.24,0,13.109,7.8,13.109,17.422h0c0,9.626-5.868,17.422-13.109,17.422h-78.66c-7.24,0-13.109-7.8-13.109-17.422h0c0-9.626,5.868-17.422,13.109-17.422Z" transform="translate(-69.512 -13.239)" fill="#0d5c63"/>
        <rect id="Rectangle_412621" data-name="Rectangle 412621" width="127.071" height="41.142" rx="8" transform="translate(70.751 66.079)" fill="#1b8bb4"/>
        <rect id="Rectangle_412622" data-name="Rectangle 412622" width="9.308" height="1.393" transform="translate(133.587 51.152) rotate(-90)" fill="#1b8bb4"/>
        <rect id="Rectangle_412623" data-name="Rectangle 412623" width="12.792" height="1.668" transform="translate(197.822 85.95)" fill="#1b8bb4"/>
        <rect id="Rectangle_412624" data-name="Rectangle 412624" width="4.841" height="1.724" transform="translate(209.5 294.554)" fill="#1b8bb4"/>
        <rect id="Rectangle_412625" data-name="Rectangle 412625" width="5.756" height="1.822" transform="translate(230.939 370.446)" fill="#1b8bb4"/>
        <rect id="Rectangle_412626" data-name="Rectangle 412626" width="13.16" height="1.189" transform="translate(133.594 120.381) rotate(-90)" fill="#1b8bb4"/>
        <rect id="Rectangle_412627" data-name="Rectangle 412627" width="44.79" height="1.084" transform="translate(0 132.196) rotate(-90)" fill="#e53935"/>
        <rect id="Rectangle_412628" data-name="Rectangle 412628" width="32.628" height="0.851" transform="translate(0.049 191.314) rotate(-90)" fill="#e53935"/>
        <rect id="Rectangle_412629" data-name="Rectangle 412629" width="55.356" height="1.295" transform="translate(0 86.112)" fill="#e53935"/>
        <rect id="Rectangle_412630" data-name="Rectangle 412630" width="32.122" height="1.379" transform="translate(0.049 189.941)" fill="#e53935"/>
        <rect id="Rectangle_412631" data-name="Rectangle 412631" width="16.54" height="1.435" transform="translate(133.692 257.369) rotate(-90)" fill="#1b8bb4"/>
        <rect id="Rectangle_412632" data-name="Rectangle 412632" width="9.664" height="1.435" transform="translate(133.692 328.986) rotate(-90)" fill="#1b8bb4"/>
        <rect id="Rectangle_412633" data-name="Rectangle 412633" width="10.907" height="1.541" transform="translate(133.573 399.045) rotate(-90)" fill="#1b8bb4"/>
        <rect id="Rectangle_412634" data-name="Rectangle 412634" width="9.744" height="1.267" transform="translate(133.516 473.161) rotate(-90)" fill="#1b8bb4"/>
        <rect id="Rectangle_412635" data-name="Rectangle 412635" width="8.203" height="1.267" transform="translate(133.516 544.059) rotate(-90)" fill="#1b8bb4"/>
        <rect id="Rectangle_412636" data-name="Rectangle 412636" width="10.437" height="1.267" transform="translate(133.509 617.19) rotate(-90)" fill="#1b8bb4"/>
        <rect id="Rectangle_412637" data-name="Rectangle 412637" width="122.434" height="47.811" rx="8" transform="translate(73.066 271.51)" fill="#1b8bb4"/>
        <rect id="Rectangle_412638" data-name="Rectangle 412638" width="173.093" height="45.561" rx="8" transform="translate(49.846 342.576)" fill="#1b8bb4"/>
        <rect id="Rectangle_412639" data-name="Rectangle 412639" width="168.874" height="49.255" rx="8" transform="translate(49.846 414.163)" fill="#1b8bb4"/>
        <rect id="Rectangle_412640" data-name="Rectangle 412640" width="168.874" height="49.255" rx="8" transform="translate(49.846 486.6)" fill="#1b8bb4"/>
        <rect id="Rectangle_412641" data-name="Rectangle 412641" width="168.874" height="49.255" rx="8" transform="translate(49.846 557.497)" fill="#1b8bb4"/>
        <path id="Path_1306806" data-name="Path 1306806" d="M153.471,1020h91.474a17.588,17.588,0,0,1,17.591,17.591h0a17.589,17.589,0,0,1-17.591,17.591H153.471a17.589,17.589,0,0,1-17.591-17.591h0A17.588,17.588,0,0,1,153.471,1020Z" transform="translate(-64.925 -389.526)" fill="#6a1b9a"/>
      </g>
      <g id="DECISION" transform="translate(70.695 146.011)">
        <path id="Path_1306807" data-name="Path 1306807" d="M214.124,221.22l88.244,58.9-88.244,58.9-88.244-58.9Z" transform="translate(-125.88 -221.22)" fill="#1976a2"/>
      </g>
      <g id="BLOQUES_LATERALES_DOCUMENTOS" transform="translate(14.903 81.496)">
        <path id="Path_1306808" data-name="Path 1306808" d="M39.126,207.38H57.071a17.966,17.966,0,0,1,17.946,18h0a17.966,17.966,0,0,1-17.946,18H39.126a17.966,17.966,0,0,1-17.946-18h0A17.966,17.966,0,0,1,39.126,207.38Z" transform="translate(-26.989 -146.878)" fill="#e53935"/>
      </g>
      <g id="TEXTOS" transform="translate(31.434 29.248)">
        <path id="Path_1306963" data-name="Path 1306963" d="M1.094,0V-11.453H3.406V0ZM13.141,0h-2.2V-4.234A6.545,6.545,0,0,0,10.8-5.973a1.219,1.219,0,0,0-.457-.613A1.306,1.306,0,0,0,9.586-6.8a1.76,1.76,0,0,0-1.023.313,1.575,1.575,0,0,0-.621.828,7.158,7.158,0,0,0-.168,1.906V0h-2.2V-8.3H7.617v1.219a3.322,3.322,0,0,1,2.734-1.406,3.294,3.294,0,0,1,1.328.262,2.225,2.225,0,0,1,.91.668,2.42,2.42,0,0,1,.43.922,6.857,6.857,0,0,1,.121,1.477Zm2.227-9.422v-2.031h2.2v2.031Zm0,9.422V-8.3h2.2V0Zm11.68-5.844-2.164.391a1.57,1.57,0,0,0-.5-.977,1.5,1.5,0,0,0-1-.328,1.64,1.64,0,0,0-1.309.566A2.9,2.9,0,0,0,21.586-4.3a3.357,3.357,0,0,0,.5,2.086,1.629,1.629,0,0,0,1.332.609,1.48,1.48,0,0,0,1.023-.355A2.138,2.138,0,0,0,25-3.18l2.156.367A3.826,3.826,0,0,1,25.867-.57a3.99,3.99,0,0,1-2.555.758,3.8,3.8,0,0,1-2.9-1.148,4.453,4.453,0,0,1-1.082-3.18,4.463,4.463,0,0,1,1.086-3.2,3.857,3.857,0,0,1,2.938-1.145,4.007,4.007,0,0,1,2.41.652A3.614,3.614,0,0,1,27.047-5.844Zm1.664-3.578v-2.031h2.2v2.031Zm0,9.422V-8.3h2.2V0Zm3.938-4.266a4.488,4.488,0,0,1,.539-2.117,3.7,3.7,0,0,1,1.527-1.562,4.533,4.533,0,0,1,2.207-.539,4.142,4.142,0,0,1,3.086,1.223,4.224,4.224,0,0,1,1.2,3.09A4.275,4.275,0,0,1,40-1.051,4.106,4.106,0,0,1,36.938.188a4.818,4.818,0,0,1-2.176-.516A3.537,3.537,0,0,1,33.188-1.84,5.037,5.037,0,0,1,32.648-4.266Zm2.25.117a2.749,2.749,0,0,0,.586,1.891A1.862,1.862,0,0,0,36.93-1.6a1.85,1.85,0,0,0,1.441-.656,2.787,2.787,0,0,0,.582-1.906,2.736,2.736,0,0,0-.582-1.875A1.85,1.85,0,0,0,36.93-6.7a1.862,1.862,0,0,0-1.445.656A2.749,2.749,0,0,0,34.9-4.148Z" transform="translate(108.371 14)" fill="#fff"/>
        <path id="Path_1306964" data-name="Path 1306964" d="M-41.945,0V-11.453h4.867a8.331,8.331,0,0,1,2.668.309,2.632,2.632,0,0,1,1.332,1.1,3.3,3.3,0,0,1,.5,1.8,3.057,3.057,0,0,1-.758,2.129A3.639,3.639,0,0,1-35.6-5.055a5.4,5.4,0,0,1,1.238.961,13.053,13.053,0,0,1,1.316,1.859L-31.648,0h-2.766l-1.672-2.492A16.166,16.166,0,0,0-37.3-4.176a1.775,1.775,0,0,0-.7-.477,3.812,3.812,0,0,0-1.164-.129h-.469V0Zm2.313-6.609h1.711a8.835,8.835,0,0,0,2.078-.141,1.245,1.245,0,0,0,.648-.484,1.491,1.491,0,0,0,.234-.859,1.373,1.373,0,0,0-.309-.934,1.416,1.416,0,0,0-.871-.449q-.281-.039-1.687-.039h-1.8Zm14.023,3.969,2.188.367A3.588,3.588,0,0,1-24.754-.441a3.913,3.913,0,0,1-2.277.629,3.712,3.712,0,0,1-3.2-1.414,4.751,4.751,0,0,1-.82-2.859,4.581,4.581,0,0,1,1.078-3.23A3.551,3.551,0,0,1-27.25-8.484a3.683,3.683,0,0,1,2.922,1.223A5.41,5.41,0,0,1-23.3-3.516h-5.5A2.221,2.221,0,0,0-28.273-2a1.662,1.662,0,0,0,1.266.543,1.344,1.344,0,0,0,.867-.281A1.737,1.737,0,0,0-25.609-2.641Zm.125-2.219a2.114,2.114,0,0,0-.492-1.449,1.51,1.51,0,0,0-1.141-.5,1.525,1.525,0,0,0-1.187.523,2.025,2.025,0,0,0-.461,1.422Zm9.391,8.016V-1.016a3.113,3.113,0,0,1-1.07.879,3.019,3.019,0,0,1-1.383.324A2.936,2.936,0,0,1-20.875-.875a4.961,4.961,0,0,1-1.078-3.367,4.492,4.492,0,0,1,1.012-3.121A3.246,3.246,0,0,1-18.43-8.484,2.806,2.806,0,0,1-17-8.133,3.282,3.282,0,0,1-15.922-7.07V-8.3H-13.9V3.156Zm.07-7.406a2.907,2.907,0,0,0-.52-1.895,1.627,1.627,0,0,0-1.3-.621,1.675,1.675,0,0,0-1.332.633,3.081,3.081,0,0,0-.535,2.008A3.03,3.03,0,0,0-19.2-2.152a1.609,1.609,0,0,0,1.273.605,1.7,1.7,0,0,0,1.328-.68A3.084,3.084,0,0,0-16.023-4.25ZM-6.281,0V-1.242A3.2,3.2,0,0,1-7.473-.2,3.34,3.34,0,0,1-9.031.188a3.047,3.047,0,0,1-1.5-.367,2.168,2.168,0,0,1-.961-1.031,4.6,4.6,0,0,1-.3-1.836V-8.3h2.2v3.813A10.572,10.572,0,0,0-9.473-2.34a1.169,1.169,0,0,0,.441.625,1.357,1.357,0,0,0,.813.23,1.727,1.727,0,0,0,1.008-.309A1.57,1.57,0,0,0-6.6-2.559,8.887,8.887,0,0,0-6.437-4.8V-8.3h2.2V0Zm4.313-9.422v-2.031h2.2v2.031Zm0,9.422V-8.3h2.2V0ZM1.7-2.367l2.2-.336a1.614,1.614,0,0,0,.57.973,1.927,1.927,0,0,0,1.2.332,2.172,2.172,0,0,0,1.281-.312A.7.7,0,0,0,7.25-2.3a.576.576,0,0,0-.156-.414A1.749,1.749,0,0,0,6.359-3,11.843,11.843,0,0,1,2.992-4.07a2.137,2.137,0,0,1-.984-1.867A2.3,2.3,0,0,1,2.859-7.75,3.977,3.977,0,0,1,5.5-8.484a4.607,4.607,0,0,1,2.531.555A2.835,2.835,0,0,1,9.172-6.289L7.1-5.906a1.28,1.28,0,0,0-.5-.742,1.843,1.843,0,0,0-1.059-.258A2.385,2.385,0,0,0,4.3-6.664a.52.52,0,0,0-.25.445.485.485,0,0,0,.219.4A8.236,8.236,0,0,0,6.316-5.2a6.105,6.105,0,0,1,2.449.977,2.03,2.03,0,0,1,.688,1.633A2.506,2.506,0,0,1,8.5-.633a4.219,4.219,0,0,1-2.82.82A4.628,4.628,0,0,1,3-.5,3.168,3.168,0,0,1,1.7-2.367Zm9.672-7.055v-2.031h2.2v2.031Zm0,9.422V-8.3h2.2V0Zm8.25-8.3v1.75h-1.5V-3.2a8.317,8.317,0,0,0,.043,1.184.482.482,0,0,0,.2.277.619.619,0,0,0,.371.109,2.84,2.84,0,0,0,.883-.211l.188,1.7A4.364,4.364,0,0,1,18.07.188,2.751,2.751,0,0,1,17-.012a1.562,1.562,0,0,1-.7-.516,2.035,2.035,0,0,1-.309-.855,10.641,10.641,0,0,1-.07-1.547V-6.547H14.914V-8.3h1.008V-9.945l2.2-1.281V-8.3Zm1.016,4.031a4.488,4.488,0,0,1,.539-2.117,3.7,3.7,0,0,1,1.527-1.562,4.533,4.533,0,0,1,2.207-.539A4.142,4.142,0,0,1,28-7.262a4.224,4.224,0,0,1,1.2,3.09,4.275,4.275,0,0,1-1.215,3.121A4.106,4.106,0,0,1,24.93.188a4.818,4.818,0,0,1-2.176-.516A3.537,3.537,0,0,1,21.18-1.84,5.037,5.037,0,0,1,20.641-4.266Zm2.25.117a2.749,2.749,0,0,0,.586,1.891,1.862,1.862,0,0,0,1.445.656,1.85,1.85,0,0,0,1.441-.656,2.787,2.787,0,0,0,.582-1.906,2.736,2.736,0,0,0-.582-1.875A1.85,1.85,0,0,0,24.922-6.7a1.862,1.862,0,0,0-1.445.656A2.749,2.749,0,0,0,22.891-4.148Zm7.258,1.781,2.2-.336a1.614,1.614,0,0,0,.57.973,1.927,1.927,0,0,0,1.2.332,2.172,2.172,0,0,0,1.281-.312A.7.7,0,0,0,35.7-2.3a.576.576,0,0,0-.156-.414A1.749,1.749,0,0,0,34.8-3a11.843,11.843,0,0,1-3.367-1.07,2.137,2.137,0,0,1-.984-1.867A2.3,2.3,0,0,1,31.3-7.75a3.977,3.977,0,0,1,2.641-.734,4.607,4.607,0,0,1,2.531.555,2.835,2.835,0,0,1,1.141,1.641l-2.07.383a1.28,1.28,0,0,0-.5-.742,1.843,1.843,0,0,0-1.059-.258,2.385,2.385,0,0,0-1.242.242.52.52,0,0,0-.25.445.485.485,0,0,0,.219.4,8.236,8.236,0,0,0,2.051.617,6.105,6.105,0,0,1,2.449.977A2.03,2.03,0,0,1,37.9-2.594a2.506,2.506,0,0,1-.953,1.961,4.219,4.219,0,0,1-2.82.82A4.628,4.628,0,0,1,31.441-.5,3.168,3.168,0,0,1,30.148-2.367ZM-30.367,18h-2.039V16.781a3.294,3.294,0,0,1-1.2,1.059A3.077,3.077,0,0,1-35,18.188a3.16,3.16,0,0,1-2.449-1.152,4.688,4.688,0,0,1-1.02-3.215,4.633,4.633,0,0,1,.992-3.207,3.235,3.235,0,0,1,2.508-1.1,3.106,3.106,0,0,1,2.406,1.156V6.547h2.2Zm-5.859-4.328a3.8,3.8,0,0,0,.367,1.922,1.659,1.659,0,0,0,1.484.859,1.616,1.616,0,0,0,1.289-.645,2.975,2.975,0,0,0,.531-1.926,3.256,3.256,0,0,0-.516-2.059,1.632,1.632,0,0,0-1.32-.629,1.649,1.649,0,0,0-1.309.621A2.806,2.806,0,0,0-36.227,13.672ZM-23.4,15.359l2.188.367a3.588,3.588,0,0,1-1.332,1.832,3.913,3.913,0,0,1-2.277.629,3.712,3.712,0,0,1-3.2-1.414,4.751,4.751,0,0,1-.82-2.859,4.581,4.581,0,0,1,1.078-3.23,3.551,3.551,0,0,1,2.727-1.168,3.683,3.683,0,0,1,2.922,1.223,5.41,5.41,0,0,1,1.023,3.746h-5.5A2.221,2.221,0,0,0-26.062,16a1.662,1.662,0,0,0,1.266.543,1.344,1.344,0,0,0,.867-.281A1.737,1.737,0,0,0-23.4,15.359Zm.125-2.219a2.114,2.114,0,0,0-.492-1.449,1.51,1.51,0,0,0-1.141-.5,1.525,1.525,0,0,0-1.187.523,2.025,2.025,0,0,0-.461,1.422ZM-19.3,18V6.547h2.2V18ZM-3.18,12.156l-2.164.391a1.57,1.57,0,0,0-.5-.977,1.5,1.5,0,0,0-1-.328,1.64,1.64,0,0,0-1.309.566A2.9,2.9,0,0,0-8.641,13.7a3.357,3.357,0,0,0,.5,2.086,1.629,1.629,0,0,0,1.332.609,1.48,1.48,0,0,0,1.023-.355,2.138,2.138,0,0,0,.563-1.223l2.156.367A3.826,3.826,0,0,1-4.359,17.43a3.99,3.99,0,0,1-2.555.758,3.8,3.8,0,0,1-2.9-1.148,4.453,4.453,0,0,1-1.082-3.18,4.463,4.463,0,0,1,1.086-3.2A3.857,3.857,0,0,1-6.875,9.516a4.007,4.007,0,0,1,2.41.652A3.614,3.614,0,0,1-3.18,12.156ZM-1.516,18V6.547H.68V18ZM2.93,8.578V6.547h2.2V8.578ZM2.93,18V9.7h2.2V18Zm9.25-2.641,2.188.367a3.588,3.588,0,0,1-1.332,1.832,3.913,3.913,0,0,1-2.277.629,3.712,3.712,0,0,1-3.2-1.414,4.751,4.751,0,0,1-.82-2.859,4.581,4.581,0,0,1,1.078-3.23,3.551,3.551,0,0,1,2.727-1.168,3.683,3.683,0,0,1,2.922,1.223,5.41,5.41,0,0,1,1.023,3.746h-5.5A2.221,2.221,0,0,0,9.516,16a1.662,1.662,0,0,0,1.266.543,1.344,1.344,0,0,0,.867-.281A1.737,1.737,0,0,0,12.18,15.359Zm.125-2.219a2.114,2.114,0,0,0-.492-1.449,1.584,1.584,0,0,0-2.328.027,2.025,2.025,0,0,0-.461,1.422ZM23.82,18h-2.2V13.766a6.545,6.545,0,0,0-.141-1.738,1.219,1.219,0,0,0-.457-.613,1.306,1.306,0,0,0-.762-.219,1.76,1.76,0,0,0-1.023.313,1.575,1.575,0,0,0-.621.828,7.158,7.158,0,0,0-.168,1.906V18h-2.2V9.7H18.3v1.219a3.4,3.4,0,0,1,4.063-1.145,2.225,2.225,0,0,1,.91.668,2.42,2.42,0,0,1,.43.922,6.857,6.857,0,0,1,.121,1.477Zm6.031-8.3v1.75h-1.5V14.8a8.317,8.317,0,0,0,.043,1.184.482.482,0,0,0,.2.277.619.619,0,0,0,.371.109,2.84,2.84,0,0,0,.883-.211l.188,1.7a4.364,4.364,0,0,1-1.734.328,2.751,2.751,0,0,1-1.07-.2,1.562,1.562,0,0,1-.7-.516,2.035,2.035,0,0,1-.309-.855,10.641,10.641,0,0,1-.07-1.547V11.453H25.141V9.7h1.008V8.055l2.2-1.281V9.7Zm6.328,5.656,2.188.367a3.588,3.588,0,0,1-1.332,1.832,3.913,3.913,0,0,1-2.277.629,3.712,3.712,0,0,1-3.2-1.414,4.751,4.751,0,0,1-.82-2.859,4.581,4.581,0,0,1,1.078-3.23,3.551,3.551,0,0,1,2.727-1.168,3.683,3.683,0,0,1,2.922,1.223,5.41,5.41,0,0,1,1.023,3.746h-5.5A2.221,2.221,0,0,0,33.516,16a1.662,1.662,0,0,0,1.266.543,1.344,1.344,0,0,0,.867-.281A1.737,1.737,0,0,0,36.18,15.359Zm.125-2.219a2.114,2.114,0,0,0-.492-1.449,1.584,1.584,0,0,0-2.328.027,2.025,2.025,0,0,0-.461,1.422Z" transform="translate(129 68.946)" fill="#fff"/>
        <g id="Group" transform="translate(96.371 167.756)">
          <text id="_Los_requisitos_" data-name="¿Los requisitos " transform="translate(-29.371 5)" fill="#fff" font-size="16" font-family="Arial-BoldMT, Arial" font-weight="700"><tspan x="0" y="0">¿Los requisitos </tspan></text>
          <text id="están_claros_" data-name="están claros?" transform="translate(-18.871 24.132)" fill="#fff" font-size="16" font-family="Arial-BoldMT, Arial" font-weight="700"><tspan x="0" y="0">están claros?</tspan></text>
        </g>
        <path id="Path_1306970" data-name="Path 1306970" d="M1.188,0V-11.453h2.25L8.125-3.8v-7.648h2.148V0H7.953L3.336-7.469V0ZM12.2-4.266a4.488,4.488,0,0,1,.539-2.117,3.7,3.7,0,0,1,1.527-1.562,4.533,4.533,0,0,1,2.207-.539,4.142,4.142,0,0,1,3.086,1.223,4.224,4.224,0,0,1,1.2,3.09,4.275,4.275,0,0,1-1.215,3.121A4.106,4.106,0,0,1,16.484.188a4.818,4.818,0,0,1-2.176-.516A3.537,3.537,0,0,1,12.734-1.84,5.037,5.037,0,0,1,12.2-4.266Zm2.25.117a2.749,2.749,0,0,0,.586,1.891,1.862,1.862,0,0,0,1.445.656,1.85,1.85,0,0,0,1.441-.656A2.787,2.787,0,0,0,18.5-4.164a2.736,2.736,0,0,0-.582-1.875A1.85,1.85,0,0,0,16.477-6.7a1.862,1.862,0,0,0-1.445.656A2.749,2.749,0,0,0,14.445-4.148Z" transform="translate(-5 134.656)" fill="#fff"/>
        <text id="Sí" transform="translate(86 247.7)" fill="#2e7d32" font-size="16" font-family="Arial-BoldMT, Arial" font-weight="700"><tspan x="0" y="0">Sí</tspan></text>
        <path id="Path_1306965" data-name="Path 1306965" d="M-39.3-11.453h4.227a8.253,8.253,0,0,1,2.18.219,3.83,3.83,0,0,1,1.727,1.055A5,5,0,0,1-30.07-8.324,8.452,8.452,0,0,1-29.7-5.617a7.527,7.527,0,0,1-.352,2.438,5.05,5.05,0,0,1-1.227,2.023A4.065,4.065,0,0,1-32.9-.242,7,7,0,0,1-34.945,0H-39.3Zm2.313,1.938V-1.93h1.727a6.3,6.3,0,0,0,1.4-.109,2.134,2.134,0,0,0,.934-.477,2.425,2.425,0,0,0,.605-1.105,7.472,7.472,0,0,0,.234-2.1,6.842,6.842,0,0,0-.234-2.039,2.621,2.621,0,0,0-.656-1.109,2.2,2.2,0,0,0-1.07-.539,10.485,10.485,0,0,0-1.9-.109Zm9.234.094v-2.031h2.2v2.031Zm0,9.422V-8.3h2.2V0Zm3.672-2.367,2.2-.336a1.614,1.614,0,0,0,.57.973,1.927,1.927,0,0,0,1.2.332,2.172,2.172,0,0,0,1.281-.312.7.7,0,0,0,.289-.586.576.576,0,0,0-.156-.414A1.749,1.749,0,0,0-19.422-3a11.843,11.843,0,0,1-3.367-1.07,2.137,2.137,0,0,1-.984-1.867,2.3,2.3,0,0,1,.852-1.812,3.977,3.977,0,0,1,2.641-.734,4.607,4.607,0,0,1,2.531.555,2.835,2.835,0,0,1,1.141,1.641l-2.07.383a1.28,1.28,0,0,0-.5-.742,1.843,1.843,0,0,0-1.059-.258,2.385,2.385,0,0,0-1.242.242.52.52,0,0,0-.25.445.485.485,0,0,0,.219.4,8.236,8.236,0,0,0,2.051.617,6.105,6.105,0,0,1,2.449.977,2.03,2.03,0,0,1,.688,1.633,2.506,2.506,0,0,1-.953,1.961,4.219,4.219,0,0,1-2.82.82A4.628,4.628,0,0,1-22.785-.5,3.168,3.168,0,0,1-24.078-2.367ZM-9.6-2.641l2.188.367A3.588,3.588,0,0,1-8.746-.441a3.913,3.913,0,0,1-2.277.629,3.712,3.712,0,0,1-3.2-1.414,4.751,4.751,0,0,1-.82-2.859,4.581,4.581,0,0,1,1.078-3.23,3.551,3.551,0,0,1,2.727-1.168A3.683,3.683,0,0,1-8.32-7.262,5.41,5.41,0,0,1-7.3-3.516h-5.5A2.221,2.221,0,0,0-12.266-2,1.662,1.662,0,0,0-11-1.453a1.344,1.344,0,0,0,.867-.281A1.737,1.737,0,0,0-9.6-2.641Zm.125-2.219a2.114,2.114,0,0,0-.492-1.449,1.51,1.51,0,0,0-1.141-.5,1.525,1.525,0,0,0-1.187.523,2.025,2.025,0,0,0-.461,1.422ZM2.039,0h-2.2V-4.234A6.545,6.545,0,0,0-.3-5.973a1.219,1.219,0,0,0-.457-.613A1.306,1.306,0,0,0-1.516-6.8a1.76,1.76,0,0,0-1.023.313,1.575,1.575,0,0,0-.621.828,7.158,7.158,0,0,0-.168,1.906V0h-2.2V-8.3h2.039v1.219A3.322,3.322,0,0,1-.75-8.484a3.294,3.294,0,0,1,1.328.262,2.225,2.225,0,0,1,.91.668,2.42,2.42,0,0,1,.43.922,6.857,6.857,0,0,1,.121,1.477ZM-3.437-9.414h-1q-.008-.18-.008-.281a1.82,1.82,0,0,1,.4-1.262A1.316,1.316,0,0,1-3.023-11.4a2.09,2.09,0,0,1,.508.059A6.4,6.4,0,0,1-1.66-11a2.605,2.605,0,0,0,.973.277.59.59,0,0,0,.418-.156.844.844,0,0,0,.215-.523H.961A2.352,2.352,0,0,1,.566-9.9a1.25,1.25,0,0,1-1,.453A2.516,2.516,0,0,1-.953-9.5q-.18-.047-.9-.32A3.4,3.4,0,0,0-2.9-10.094a.505.505,0,0,0-.391.152A.8.8,0,0,0-3.437-9.414Zm7.2,5.148A4.488,4.488,0,0,1,4.3-6.383,3.7,3.7,0,0,1,5.824-7.945a4.533,4.533,0,0,1,2.207-.539,4.142,4.142,0,0,1,3.086,1.223,4.224,4.224,0,0,1,1.2,3.09,4.275,4.275,0,0,1-1.215,3.121A4.106,4.106,0,0,1,8.047.188,4.818,4.818,0,0,1,5.871-.328,3.537,3.537,0,0,1,4.3-1.84,5.037,5.037,0,0,1,3.758-4.266Zm2.25.117a2.749,2.749,0,0,0,.586,1.891A1.862,1.862,0,0,0,8.039-1.6,1.85,1.85,0,0,0,9.48-2.258a2.787,2.787,0,0,0,.582-1.906A2.736,2.736,0,0,0,9.48-6.039,1.85,1.85,0,0,0,8.039-6.7a1.862,1.862,0,0,0-1.445.656A2.749,2.749,0,0,0,6.008-4.148ZM26.094,0H24.055V-1.219a3.294,3.294,0,0,1-1.2,1.059,3.077,3.077,0,0,1-1.395.348A3.16,3.16,0,0,1,19.012-.965a4.688,4.688,0,0,1-1.02-3.215,4.633,4.633,0,0,1,.992-3.207,3.235,3.235,0,0,1,2.508-1.1A3.106,3.106,0,0,1,23.9-7.328v-4.125h2.2ZM20.234-4.328A3.8,3.8,0,0,0,20.6-2.406a1.659,1.659,0,0,0,1.484.859,1.616,1.616,0,0,0,1.289-.645,2.975,2.975,0,0,0,.531-1.926,3.256,3.256,0,0,0-.516-2.059A1.632,1.632,0,0,0,22.07-6.8a1.649,1.649,0,0,0-1.309.621A2.806,2.806,0,0,0,20.234-4.328ZM33.063-2.641l2.188.367A3.588,3.588,0,0,1,33.918-.441a3.913,3.913,0,0,1-2.277.629,3.712,3.712,0,0,1-3.2-1.414,4.751,4.751,0,0,1-.82-2.859A4.581,4.581,0,0,1,28.7-7.316a3.551,3.551,0,0,1,2.727-1.168,3.683,3.683,0,0,1,2.922,1.223,5.41,5.41,0,0,1,1.023,3.746h-5.5A2.221,2.221,0,0,0,30.4-2a1.662,1.662,0,0,0,1.266.543,1.344,1.344,0,0,0,.867-.281A1.737,1.737,0,0,0,33.063-2.641Zm.125-2.219A2.114,2.114,0,0,0,32.7-6.309a1.51,1.51,0,0,0-1.141-.5,1.525,1.525,0,0,0-1.187.523,2.025,2.025,0,0,0-.461,1.422ZM-33.574,9.7h2.047v1.219a3.063,3.063,0,0,1,1.078-1.016,2.972,2.972,0,0,1,1.508-.391,3.163,3.163,0,0,1,2.453,1.133A4.585,4.585,0,0,1-25.48,13.8a4.724,4.724,0,0,1-1.016,3.23,3.164,3.164,0,0,1-2.461,1.152,2.8,2.8,0,0,1-1.246-.273,4.2,4.2,0,0,1-1.176-.937v4.18h-2.2Zm2.172,4.008a3.2,3.2,0,0,0,.555,2.066,1.7,1.7,0,0,0,1.352.668,1.586,1.586,0,0,0,1.273-.613,3.16,3.16,0,0,0,.508-2.012,3,3,0,0,0-.523-1.937,1.619,1.619,0,0,0-1.3-.633,1.684,1.684,0,0,0-1.336.621A2.765,2.765,0,0,0-31.4,13.711ZM-21.637,18h-2.2V9.7h2.039v1.18a3.546,3.546,0,0,1,.941-1.1,1.732,1.732,0,0,1,.949-.266,2.786,2.786,0,0,1,1.445.414l-.68,1.914a1.926,1.926,0,0,0-1.031-.359,1.219,1.219,0,0,0-.781.254,1.736,1.736,0,0,0-.5.918,13.041,13.041,0,0,0-.184,2.781Zm3.617-4.266a4.488,4.488,0,0,1,.539-2.117,3.7,3.7,0,0,1,1.527-1.562,4.533,4.533,0,0,1,2.207-.539,4.142,4.142,0,0,1,3.086,1.223,4.224,4.224,0,0,1,1.2,3.09,4.275,4.275,0,0,1-1.215,3.121,4.106,4.106,0,0,1-3.059,1.238,4.818,4.818,0,0,1-2.176-.516A3.537,3.537,0,0,1-17.48,16.16,5.037,5.037,0,0,1-18.02,13.734Zm2.25.117a2.749,2.749,0,0,0,.586,1.891,1.862,1.862,0,0,0,1.445.656,1.85,1.85,0,0,0,1.441-.656,2.787,2.787,0,0,0,.582-1.906,2.736,2.736,0,0,0-.582-1.875,1.85,1.85,0,0,0-1.441-.656,1.862,1.862,0,0,0-1.445.656A2.749,2.749,0,0,0-15.77,13.852ZM-.129,18H-2.168V16.781a3.294,3.294,0,0,1-1.2,1.059,3.077,3.077,0,0,1-1.395.348,3.16,3.16,0,0,1-2.449-1.152A4.688,4.688,0,0,1-8.23,13.82a4.633,4.633,0,0,1,.992-3.207,3.235,3.235,0,0,1,2.508-1.1,3.106,3.106,0,0,1,2.406,1.156V6.547h2.2Zm-5.859-4.328a3.8,3.8,0,0,0,.367,1.922,1.659,1.659,0,0,0,1.484.859,1.616,1.616,0,0,0,1.289-.645,2.975,2.975,0,0,0,.531-1.926,3.256,3.256,0,0,0-.516-2.059,1.632,1.632,0,0,0-1.32-.629,1.649,1.649,0,0,0-1.309.621A2.806,2.806,0,0,0-5.988,13.672ZM7.5,18V16.758A3.2,3.2,0,0,1,6.3,17.8a3.34,3.34,0,0,1-1.559.383,3.047,3.047,0,0,1-1.5-.367,2.168,2.168,0,0,1-.961-1.031,4.6,4.6,0,0,1-.3-1.836V9.7h2.2v3.813A10.572,10.572,0,0,0,4.3,15.66a1.169,1.169,0,0,0,.441.625,1.357,1.357,0,0,0,.813.23,1.727,1.727,0,0,0,1.008-.309,1.57,1.57,0,0,0,.609-.766A8.887,8.887,0,0,0,7.34,13.2V9.7h2.2V18Zm11.547-5.844-2.164.391a1.57,1.57,0,0,0-.5-.977,1.5,1.5,0,0,0-1-.328,1.64,1.64,0,0,0-1.309.566,2.9,2.9,0,0,0-.488,1.895,3.357,3.357,0,0,0,.5,2.086,1.629,1.629,0,0,0,1.332.609,1.48,1.48,0,0,0,1.023-.355A2.138,2.138,0,0,0,17,14.82l2.156.367a3.826,3.826,0,0,1-1.289,2.242,3.99,3.99,0,0,1-2.555.758,3.8,3.8,0,0,1-2.9-1.148,4.453,4.453,0,0,1-1.082-3.18,4.463,4.463,0,0,1,1.086-3.2,3.857,3.857,0,0,1,2.938-1.145,4.007,4.007,0,0,1,2.41.652A3.614,3.614,0,0,1,19.043,12.156ZM24.512,9.7v1.75h-1.5V14.8a8.317,8.317,0,0,0,.043,1.184.482.482,0,0,0,.2.277.619.619,0,0,0,.371.109,2.84,2.84,0,0,0,.883-.211l.188,1.7a4.364,4.364,0,0,1-1.734.328,2.751,2.751,0,0,1-1.07-.2,1.562,1.562,0,0,1-.7-.516,2.035,2.035,0,0,1-.309-.855,10.641,10.641,0,0,1-.07-1.547V11.453H19.8V9.7h1.008V8.055l2.2-1.281V9.7Zm1.016,4.031a4.488,4.488,0,0,1,.539-2.117,3.7,3.7,0,0,1,1.527-1.562A4.533,4.533,0,0,1,29.8,9.516a4.142,4.142,0,0,1,3.086,1.223,4.224,4.224,0,0,1,1.2,3.09,4.275,4.275,0,0,1-1.215,3.121,4.106,4.106,0,0,1-3.059,1.238,4.818,4.818,0,0,1-2.176-.516,3.537,3.537,0,0,1-1.574-1.512A5.037,5.037,0,0,1,25.527,13.734Zm2.25.117a2.749,2.749,0,0,0,.586,1.891,1.915,1.915,0,0,0,2.887,0,2.787,2.787,0,0,0,.582-1.906,2.736,2.736,0,0,0-.582-1.875,1.915,1.915,0,0,0-2.887,0A2.749,2.749,0,0,0,27.777,13.852Z" transform="translate(129.342 275.976)" fill="#fff"/>
        <g id="Group-2" data-name="Group" transform="translate(61.967 337.696)">
          <text id="Planificación_de_la_" data-name="Planificación de la " transform="translate(0 8)" fill="#fff" font-size="16" font-family="Arial-BoldMT, Arial" font-weight="700"><tspan x="0" y="0">Planificación de la </tspan></text>
          <text id="producción" transform="translate(28.5 25.001)" fill="#fff" font-size="16" font-family="Arial-BoldMT, Arial" font-weight="700"><tspan x="0" y="0">producción</tspan></text>
        </g>
        <path id="Path_1306966" data-name="Path 1306966" d="M-36.508,0h-2.516l-1-2.6H-44.6L-45.547,0H-48l4.461-11.453h2.445Zm-4.258-4.531-1.578-4.25-1.547,4.25ZM-27.687,0h-2.039V-1.219a3.294,3.294,0,0,1-1.2,1.059A3.077,3.077,0,0,1-32.32.188,3.16,3.16,0,0,1-34.77-.965a4.688,4.688,0,0,1-1.02-3.215A4.633,4.633,0,0,1-34.8-7.387a3.235,3.235,0,0,1,2.508-1.1,3.106,3.106,0,0,1,2.406,1.156v-4.125h2.2Zm-5.859-4.328a3.8,3.8,0,0,0,.367,1.922,1.659,1.659,0,0,0,1.484.859,1.616,1.616,0,0,0,1.289-.645,2.975,2.975,0,0,0,.531-1.926,3.256,3.256,0,0,0-.516-2.059,1.632,1.632,0,0,0-1.32-.629,1.649,1.649,0,0,0-1.309.621A2.806,2.806,0,0,0-33.547-4.328ZM-20.1,3.156V-1.016a3.113,3.113,0,0,1-1.07.879,3.019,3.019,0,0,1-1.383.324A2.936,2.936,0,0,1-24.883-.875a4.961,4.961,0,0,1-1.078-3.367,4.492,4.492,0,0,1,1.012-3.121,3.246,3.246,0,0,1,2.512-1.121A2.806,2.806,0,0,1-21-8.133,3.282,3.282,0,0,1-19.93-7.07V-8.3h2.023V3.156Zm.07-7.406a2.907,2.907,0,0,0-.52-1.895,1.627,1.627,0,0,0-1.3-.621,1.675,1.675,0,0,0-1.332.633,3.081,3.081,0,0,0-.535,2.008A3.03,3.03,0,0,0-23.2-2.152a1.609,1.609,0,0,0,1.273.605,1.7,1.7,0,0,0,1.328-.68A3.084,3.084,0,0,0-20.031-4.25ZM-10.289,0V-1.242A3.2,3.2,0,0,1-11.48-.2a3.34,3.34,0,0,1-1.559.383,3.047,3.047,0,0,1-1.5-.367A2.168,2.168,0,0,1-15.5-1.211a4.6,4.6,0,0,1-.3-1.836V-8.3h2.2v3.813A10.572,10.572,0,0,0-13.48-2.34a1.169,1.169,0,0,0,.441.625,1.357,1.357,0,0,0,.813.23,1.727,1.727,0,0,0,1.008-.309,1.57,1.57,0,0,0,.609-.766A8.887,8.887,0,0,0-10.445-4.8V-8.3h2.2V0Zm4.313-9.422v-2.031h2.2v2.031Zm0,9.422V-8.3h2.2V0ZM-2.3-2.367-.1-2.7a1.614,1.614,0,0,0,.57.973,1.927,1.927,0,0,0,1.2.332,2.172,2.172,0,0,0,1.281-.312A.7.7,0,0,0,3.242-2.3a.576.576,0,0,0-.156-.414A1.749,1.749,0,0,0,2.352-3,11.843,11.843,0,0,1-1.016-4.07,2.137,2.137,0,0,1-2-5.937,2.3,2.3,0,0,1-1.148-7.75a3.977,3.977,0,0,1,2.641-.734,4.607,4.607,0,0,1,2.531.555A2.835,2.835,0,0,1,5.164-6.289l-2.07.383a1.28,1.28,0,0,0-.5-.742,1.843,1.843,0,0,0-1.059-.258,2.385,2.385,0,0,0-1.242.242.52.52,0,0,0-.25.445.485.485,0,0,0,.219.4A8.236,8.236,0,0,0,2.309-5.2a6.105,6.105,0,0,1,2.449.977,2.03,2.03,0,0,1,.688,1.633A2.506,2.506,0,0,1,4.492-.633a4.219,4.219,0,0,1-2.82.82A4.628,4.628,0,0,1-1.012-.5,3.168,3.168,0,0,1-2.3-2.367ZM7.367-9.422v-2.031h2.2v2.031ZM7.367,0V-8.3h2.2V0Zm11.68-5.844-2.164.391a1.57,1.57,0,0,0-.5-.977,1.5,1.5,0,0,0-1-.328,1.64,1.64,0,0,0-1.309.566A2.9,2.9,0,0,0,13.586-4.3a3.357,3.357,0,0,0,.5,2.086,1.629,1.629,0,0,0,1.332.609,1.48,1.48,0,0,0,1.023-.355A2.138,2.138,0,0,0,17-3.18l2.156.367A3.826,3.826,0,0,1,17.867-.57a3.99,3.99,0,0,1-2.555.758,3.8,3.8,0,0,1-2.9-1.148,4.453,4.453,0,0,1-1.082-3.18,4.463,4.463,0,0,1,1.086-3.2,3.857,3.857,0,0,1,2.938-1.145,4.007,4.007,0,0,1,2.41.652A3.614,3.614,0,0,1,19.047-5.844Zm1.664-3.578v-2.031h2.2v2.031Zm0,9.422V-8.3h2.2V0Zm3.938-4.266a4.488,4.488,0,0,1,.539-2.117,3.7,3.7,0,0,1,1.527-1.562,4.533,4.533,0,0,1,2.207-.539,4.142,4.142,0,0,1,3.086,1.223,4.224,4.224,0,0,1,1.2,3.09A4.275,4.275,0,0,1,32-1.051,4.106,4.106,0,0,1,28.938.188a4.818,4.818,0,0,1-2.176-.516A3.537,3.537,0,0,1,25.188-1.84,5.037,5.037,0,0,1,24.648-4.266Zm2.25.117a2.749,2.749,0,0,0,.586,1.891A1.862,1.862,0,0,0,28.93-1.6a1.85,1.85,0,0,0,1.441-.656,2.787,2.787,0,0,0,.582-1.906,2.736,2.736,0,0,0-.582-1.875A1.85,1.85,0,0,0,28.93-6.7a1.862,1.862,0,0,0-1.445.656A2.749,2.749,0,0,0,26.9-4.148Zm.922-5.164L28.9-11.648h2.461L29.211-9.312ZM42.477,0h-2.2V-4.234a6.545,6.545,0,0,0-.141-1.738,1.219,1.219,0,0,0-.457-.613,1.306,1.306,0,0,0-.762-.219,1.76,1.76,0,0,0-1.023.313,1.575,1.575,0,0,0-.621.828,7.158,7.158,0,0,0-.168,1.906V0h-2.2V-8.3h2.039v1.219a3.322,3.322,0,0,1,2.734-1.406,3.294,3.294,0,0,1,1.328.262,2.225,2.225,0,0,1,.91.668,2.42,2.42,0,0,1,.43.922,6.857,6.857,0,0,1,.121,1.477ZM-42.383,18h-2.039V16.781a3.294,3.294,0,0,1-1.2,1.059,3.077,3.077,0,0,1-1.395.348,3.16,3.16,0,0,1-2.449-1.152,4.688,4.688,0,0,1-1.02-3.215,4.633,4.633,0,0,1,.992-3.207,3.235,3.235,0,0,1,2.508-1.1,3.106,3.106,0,0,1,2.406,1.156V6.547h2.2Zm-5.859-4.328a3.8,3.8,0,0,0,.367,1.922,1.659,1.659,0,0,0,1.484.859,1.616,1.616,0,0,0,1.289-.645,2.975,2.975,0,0,0,.531-1.926,3.256,3.256,0,0,0-.516-2.059,1.632,1.632,0,0,0-1.32-.629,1.649,1.649,0,0,0-1.309.621A2.806,2.806,0,0,0-48.242,13.672Zm12.828,1.688,2.188.367a3.588,3.588,0,0,1-1.332,1.832,3.913,3.913,0,0,1-2.277.629,3.712,3.712,0,0,1-3.2-1.414,4.751,4.751,0,0,1-.82-2.859,4.581,4.581,0,0,1,1.078-3.23,3.551,3.551,0,0,1,2.727-1.168,3.683,3.683,0,0,1,2.922,1.223,5.41,5.41,0,0,1,1.023,3.746h-5.5A2.221,2.221,0,0,0-38.078,16a1.662,1.662,0,0,0,1.266.543,1.344,1.344,0,0,0,.867-.281A1.737,1.737,0,0,0-35.414,15.359Zm.125-2.219a2.114,2.114,0,0,0-.492-1.449,1.51,1.51,0,0,0-1.141-.5,1.525,1.525,0,0,0-1.187.523,2.025,2.025,0,0,0-.461,1.422Zm8.25-3.437h2.023v1.133a3.256,3.256,0,0,1,2.586-1.32,2.785,2.785,0,0,1,1.383.328,2.522,2.522,0,0,1,.961.992,3.833,3.833,0,0,1,1.18-.992,2.894,2.894,0,0,1,1.352-.328,3.01,3.01,0,0,1,1.547.371,2.273,2.273,0,0,1,.945,1.09,4.728,4.728,0,0,1,.227,1.719V18h-2.2V13.258a3.528,3.528,0,0,0-.227-1.594A1.04,1.04,0,0,0-18.2,11.2a1.5,1.5,0,0,0-.867.281,1.56,1.56,0,0,0-.586.824,5.93,5.93,0,0,0-.18,1.715V18h-2.2V13.453a6.307,6.307,0,0,0-.117-1.562,1,1,0,0,0-.363-.523,1.148,1.148,0,0,0-.668-.172,1.6,1.6,0,0,0-.914.273,1.5,1.5,0,0,0-.582.789,5.865,5.865,0,0,0-.176,1.711V18h-2.2Zm16.031,2.531L-13,11.875a3.1,3.1,0,0,1,1.156-1.781,4.231,4.231,0,0,1,2.438-.578,5.253,5.253,0,0,1,2.188.348,2.182,2.182,0,0,1,1.012.883,4.527,4.527,0,0,1,.293,1.965l-.023,2.563a8.9,8.9,0,0,0,.105,1.613A4.709,4.709,0,0,0-5.437,18H-7.609q-.086-.219-.211-.648-.055-.2-.078-.258a3.958,3.958,0,0,1-1.2.82,3.446,3.446,0,0,1-1.367.273,2.827,2.827,0,0,1-2.02-.7,2.311,2.311,0,0,1-.738-1.758,2.36,2.36,0,0,1,.336-1.254,2.195,2.195,0,0,1,.941-.844,7.358,7.358,0,0,1,1.746-.512,11.961,11.961,0,0,0,2.133-.539v-.219a1.137,1.137,0,0,0-.312-.9,1.873,1.873,0,0,0-1.18-.27,1.571,1.571,0,0,0-.914.23A1.6,1.6,0,0,0-11.008,12.234Zm2.938,1.781a13.722,13.722,0,0,1-1.336.336,4.024,4.024,0,0,0-1.2.383.916.916,0,0,0-.43.773,1.077,1.077,0,0,0,.344.8,1.2,1.2,0,0,0,.875.336A1.9,1.9,0,0,0-8.68,16.25a1.375,1.375,0,0,0,.523-.727,4.335,4.335,0,0,0,.086-1.07ZM.055,9.7v1.75h-1.5V14.8A8.317,8.317,0,0,0-1.4,15.98a.482.482,0,0,0,.2.277.619.619,0,0,0,.371.109,2.84,2.84,0,0,0,.883-.211l.188,1.7a4.364,4.364,0,0,1-1.734.328,2.751,2.751,0,0,1-1.07-.2,1.562,1.562,0,0,1-.7-.516,2.035,2.035,0,0,1-.309-.855,10.641,10.641,0,0,1-.07-1.547V11.453H-4.656V9.7h1.008V8.055l2.2-1.281V9.7Zm6.328,5.656,2.188.367a3.588,3.588,0,0,1-1.332,1.832,3.913,3.913,0,0,1-2.277.629,3.712,3.712,0,0,1-3.2-1.414,4.751,4.751,0,0,1-.82-2.859,4.581,4.581,0,0,1,1.078-3.23A3.551,3.551,0,0,1,4.742,9.516a3.683,3.683,0,0,1,2.922,1.223,5.41,5.41,0,0,1,1.023,3.746h-5.5A2.221,2.221,0,0,0,3.719,16a1.662,1.662,0,0,0,1.266.543,1.344,1.344,0,0,0,.867-.281A1.737,1.737,0,0,0,6.383,15.359Zm.125-2.219a2.114,2.114,0,0,0-.492-1.449,1.51,1.51,0,0,0-1.141-.5,1.525,1.525,0,0,0-1.187.523,2.025,2.025,0,0,0-.461,1.422ZM12.578,18h-2.2V9.7h2.039v1.18a3.546,3.546,0,0,1,.941-1.1,1.732,1.732,0,0,1,.949-.266,2.786,2.786,0,0,1,1.445.414l-.68,1.914a1.926,1.926,0,0,0-1.031-.359,1.219,1.219,0,0,0-.781.254,1.736,1.736,0,0,0-.5.918,13.041,13.041,0,0,0-.184,2.781ZM16.7,8.578V6.547h2.2V8.578ZM16.7,18V9.7h2.2V18Zm6.086-5.766L20.8,11.875a3.1,3.1,0,0,1,1.156-1.781,4.231,4.231,0,0,1,2.438-.578,5.253,5.253,0,0,1,2.188.348,2.182,2.182,0,0,1,1.012.883,4.527,4.527,0,0,1,.293,1.965l-.023,2.563a8.9,8.9,0,0,0,.105,1.613A4.709,4.709,0,0,0,28.359,18H26.188q-.086-.219-.211-.648-.055-.2-.078-.258a3.958,3.958,0,0,1-1.2.82,3.446,3.446,0,0,1-1.367.273,2.827,2.827,0,0,1-2.02-.7,2.311,2.311,0,0,1-.738-1.758,2.36,2.36,0,0,1,.336-1.254,2.195,2.195,0,0,1,.941-.844,7.358,7.358,0,0,1,1.746-.512,11.961,11.961,0,0,0,2.133-.539v-.219a1.137,1.137,0,0,0-.312-.9,1.873,1.873,0,0,0-1.18-.27,1.571,1.571,0,0,0-.914.23A1.6,1.6,0,0,0,22.789,12.234Zm2.938,1.781a13.722,13.722,0,0,1-1.336.336,4.024,4.024,0,0,0-1.2.383.916.916,0,0,0-.43.773,1.077,1.077,0,0,0,.344.8,1.2,1.2,0,0,0,.875.336,1.9,1.9,0,0,0,1.133-.391,1.375,1.375,0,0,0,.523-.727,4.335,4.335,0,0,0,.086-1.07ZM30.047,18V6.547h2.2V18Zm9.25-2.641,2.188.367a3.588,3.588,0,0,1-1.332,1.832,3.913,3.913,0,0,1-2.277.629,3.712,3.712,0,0,1-3.2-1.414,4.751,4.751,0,0,1-.82-2.859,4.581,4.581,0,0,1,1.078-3.23,3.551,3.551,0,0,1,2.727-1.168,3.683,3.683,0,0,1,2.922,1.223A5.41,5.41,0,0,1,41.6,14.484H36.1A2.221,2.221,0,0,0,36.633,16a1.662,1.662,0,0,0,1.266.543,1.344,1.344,0,0,0,.867-.281A1.737,1.737,0,0,0,39.3,15.359Zm.125-2.219a2.114,2.114,0,0,0-.492-1.449,1.584,1.584,0,0,0-2.328.027,2.025,2.025,0,0,0-.461,1.422Zm3.2,2.492,2.2-.336a1.614,1.614,0,0,0,.57.973,1.927,1.927,0,0,0,1.2.332,2.172,2.172,0,0,0,1.281-.312.7.7,0,0,0,.289-.586.576.576,0,0,0-.156-.414A1.749,1.749,0,0,0,47.273,15a11.843,11.843,0,0,1-3.367-1.07,2.137,2.137,0,0,1-.984-1.867,2.3,2.3,0,0,1,.852-1.812,3.977,3.977,0,0,1,2.641-.734,4.607,4.607,0,0,1,2.531.555,2.835,2.835,0,0,1,1.141,1.641l-2.07.383a1.28,1.28,0,0,0-.5-.742,1.843,1.843,0,0,0-1.059-.258,2.385,2.385,0,0,0-1.242.242.52.52,0,0,0-.25.445.485.485,0,0,0,.219.4,8.236,8.236,0,0,0,2.051.617,6.105,6.105,0,0,1,2.449.977,2.03,2.03,0,0,1,.688,1.633,2.506,2.506,0,0,1-.953,1.961,4.219,4.219,0,0,1-2.82.82A4.628,4.628,0,0,1,43.91,17.5,3.168,3.168,0,0,1,42.617,15.633Z" transform="translate(128.662 418.85)" fill="#fff"/>
        <path id="Path_1306967" data-name="Path 1306967" d="M1.094,0V-11.453H3.406V0ZM13.141,0h-2.2V-4.234A6.545,6.545,0,0,0,10.8-5.973a1.219,1.219,0,0,0-.457-.613A1.306,1.306,0,0,0,9.586-6.8a1.76,1.76,0,0,0-1.023.313,1.575,1.575,0,0,0-.621.828,7.158,7.158,0,0,0-.168,1.906V0h-2.2V-8.3H7.617v1.219a3.322,3.322,0,0,1,2.734-1.406,3.294,3.294,0,0,1,1.328.262,2.225,2.225,0,0,1,.91.668,2.42,2.42,0,0,1,.43.922,6.857,6.857,0,0,1,.121,1.477Zm2.227-9.422v-2.031h2.2v2.031Zm0,9.422V-8.3h2.2V0Zm11.68-5.844-2.164.391a1.57,1.57,0,0,0-.5-.977,1.5,1.5,0,0,0-1-.328,1.64,1.64,0,0,0-1.309.566A2.9,2.9,0,0,0,21.586-4.3a3.357,3.357,0,0,0,.5,2.086,1.629,1.629,0,0,0,1.332.609,1.48,1.48,0,0,0,1.023-.355A2.138,2.138,0,0,0,25-3.18l2.156.367A3.826,3.826,0,0,1,25.867-.57a3.99,3.99,0,0,1-2.555.758,3.8,3.8,0,0,1-2.9-1.148,4.453,4.453,0,0,1-1.082-3.18,4.463,4.463,0,0,1,1.086-3.2,3.857,3.857,0,0,1,2.938-1.145,4.007,4.007,0,0,1,2.41.652A3.614,3.614,0,0,1,27.047-5.844Zm1.664-3.578v-2.031h2.2v2.031Zm0,9.422V-8.3h2.2V0Zm3.938-4.266a4.488,4.488,0,0,1,.539-2.117,3.7,3.7,0,0,1,1.527-1.562,4.533,4.533,0,0,1,2.207-.539,4.142,4.142,0,0,1,3.086,1.223,4.224,4.224,0,0,1,1.2,3.09A4.275,4.275,0,0,1,40-1.051,4.106,4.106,0,0,1,36.938.188a4.818,4.818,0,0,1-2.176-.516A3.537,3.537,0,0,1,33.188-1.84,5.037,5.037,0,0,1,32.648-4.266Zm2.25.117a2.749,2.749,0,0,0,.586,1.891A1.862,1.862,0,0,0,36.93-1.6a1.85,1.85,0,0,0,1.441-.656,2.787,2.787,0,0,0,.582-1.906,2.736,2.736,0,0,0-.582-1.875A1.85,1.85,0,0,0,36.93-6.7a1.862,1.862,0,0,0-1.445.656A2.749,2.749,0,0,0,34.9-4.148ZM54.984,0H52.945V-1.219a3.294,3.294,0,0,1-1.2,1.059,3.077,3.077,0,0,1-1.395.348A3.16,3.16,0,0,1,47.9-.965a4.688,4.688,0,0,1-1.02-3.215,4.633,4.633,0,0,1,.992-3.207,3.235,3.235,0,0,1,2.508-1.1,3.106,3.106,0,0,1,2.406,1.156v-4.125h2.2ZM49.125-4.328a3.8,3.8,0,0,0,.367,1.922,1.659,1.659,0,0,0,1.484.859,1.616,1.616,0,0,0,1.289-.645A2.975,2.975,0,0,0,52.8-4.117a3.256,3.256,0,0,0-.516-2.059,1.632,1.632,0,0,0-1.32-.629,1.649,1.649,0,0,0-1.309.621A2.806,2.806,0,0,0,49.125-4.328ZM61.953-2.641l2.188.367A3.588,3.588,0,0,1,62.809-.441a3.913,3.913,0,0,1-2.277.629,3.712,3.712,0,0,1-3.2-1.414,4.751,4.751,0,0,1-.82-2.859,4.581,4.581,0,0,1,1.078-3.23,3.551,3.551,0,0,1,2.727-1.168,3.683,3.683,0,0,1,2.922,1.223,5.41,5.41,0,0,1,1.023,3.746h-5.5A2.221,2.221,0,0,0,59.289-2a1.662,1.662,0,0,0,1.266.543,1.344,1.344,0,0,0,.867-.281A1.737,1.737,0,0,0,61.953-2.641Zm.125-2.219a2.114,2.114,0,0,0-.492-1.449,1.51,1.51,0,0,0-1.141-.5,1.525,1.525,0,0,0-1.187.523A2.025,2.025,0,0,0,58.8-4.859ZM70.43-8.3h2.047v1.219a3.063,3.063,0,0,1,1.078-1.016,2.972,2.972,0,0,1,1.508-.391,3.163,3.163,0,0,1,2.453,1.133A4.585,4.585,0,0,1,78.523-4.2a4.724,4.724,0,0,1-1.016,3.23A3.164,3.164,0,0,1,75.047.188,2.8,2.8,0,0,1,73.8-.086a4.2,4.2,0,0,1-1.176-.937v4.18h-2.2ZM72.6-4.289a3.2,3.2,0,0,0,.555,2.066,1.7,1.7,0,0,0,1.352.668,1.586,1.586,0,0,0,1.273-.613,3.16,3.16,0,0,0,.508-2.012,3,3,0,0,0-.523-1.937,1.619,1.619,0,0,0-1.3-.633,1.684,1.684,0,0,0-1.336.621A2.765,2.765,0,0,0,72.6-4.289ZM82.367,0h-2.2V-8.3h2.039v1.18a3.546,3.546,0,0,1,.941-1.1,1.732,1.732,0,0,1,.949-.266,2.786,2.786,0,0,1,1.445.414l-.68,1.914a1.926,1.926,0,0,0-1.031-.359,1.219,1.219,0,0,0-.781.254,1.736,1.736,0,0,0-.5.918,13.041,13.041,0,0,0-.184,2.781Zm3.617-4.266a4.488,4.488,0,0,1,.539-2.117,3.7,3.7,0,0,1,1.527-1.562,4.533,4.533,0,0,1,2.207-.539,4.142,4.142,0,0,1,3.086,1.223,4.224,4.224,0,0,1,1.2,3.09,4.275,4.275,0,0,1-1.215,3.121A4.106,4.106,0,0,1,90.273.188,4.818,4.818,0,0,1,88.1-.328,3.537,3.537,0,0,1,86.523-1.84,5.037,5.037,0,0,1,85.984-4.266Zm2.25.117a2.749,2.749,0,0,0,.586,1.891,1.862,1.862,0,0,0,1.445.656,1.85,1.85,0,0,0,1.441-.656,2.787,2.787,0,0,0,.582-1.906,2.736,2.736,0,0,0-.582-1.875A1.85,1.85,0,0,0,90.266-6.7a1.862,1.862,0,0,0-1.445.656A2.749,2.749,0,0,0,88.234-4.148ZM103.875,0h-2.039V-1.219a3.294,3.294,0,0,1-1.2,1.059,3.077,3.077,0,0,1-1.395.348A3.16,3.16,0,0,1,96.793-.965a4.688,4.688,0,0,1-1.02-3.215,4.633,4.633,0,0,1,.992-3.207,3.235,3.235,0,0,1,2.508-1.1,3.106,3.106,0,0,1,2.406,1.156v-4.125h2.2ZM98.016-4.328a3.8,3.8,0,0,0,.367,1.922,1.659,1.659,0,0,0,1.484.859,1.616,1.616,0,0,0,1.289-.645,2.975,2.975,0,0,0,.531-1.926,3.256,3.256,0,0,0-.516-2.059,1.632,1.632,0,0,0-1.32-.629,1.649,1.649,0,0,0-1.309.621A2.806,2.806,0,0,0,98.016-4.328ZM111.5,0V-1.242A3.2,3.2,0,0,1,110.309-.2a3.34,3.34,0,0,1-1.559.383,3.047,3.047,0,0,1-1.5-.367,2.168,2.168,0,0,1-.961-1.031,4.6,4.6,0,0,1-.3-1.836V-8.3h2.2v3.813a10.573,10.573,0,0,0,.121,2.145,1.169,1.169,0,0,0,.441.625,1.357,1.357,0,0,0,.813.23,1.727,1.727,0,0,0,1.008-.309,1.57,1.57,0,0,0,.609-.766,8.887,8.887,0,0,0,.164-2.238V-8.3h2.2V0Zm11.547-5.844-2.164.391a1.57,1.57,0,0,0-.5-.977,1.5,1.5,0,0,0-1-.328,1.64,1.64,0,0,0-1.309.566,2.9,2.9,0,0,0-.488,1.895,3.357,3.357,0,0,0,.5,2.086,1.629,1.629,0,0,0,1.332.609,1.48,1.48,0,0,0,1.023-.355A2.138,2.138,0,0,0,121-3.18l2.156.367A3.826,3.826,0,0,1,121.867-.57a3.99,3.99,0,0,1-2.555.758,3.8,3.8,0,0,1-2.9-1.148,4.453,4.453,0,0,1-1.082-3.18,4.463,4.463,0,0,1,1.086-3.2,3.857,3.857,0,0,1,2.938-1.145,4.007,4.007,0,0,1,2.41.652A3.614,3.614,0,0,1,123.047-5.844Zm8.9,0-2.164.391a1.57,1.57,0,0,0-.5-.977,1.5,1.5,0,0,0-1-.328,1.64,1.64,0,0,0-1.309.566,2.9,2.9,0,0,0-.488,1.895,3.357,3.357,0,0,0,.5,2.086,1.629,1.629,0,0,0,1.332.609,1.48,1.48,0,0,0,1.023-.355A2.138,2.138,0,0,0,129.9-3.18l2.156.367A3.826,3.826,0,0,1,130.766-.57a3.99,3.99,0,0,1-2.555.758,3.8,3.8,0,0,1-2.9-1.148,4.453,4.453,0,0,1-1.082-3.18,4.463,4.463,0,0,1,1.086-3.2,3.857,3.857,0,0,1,2.938-1.145,4.007,4.007,0,0,1,2.41.652A3.614,3.614,0,0,1,131.945-5.844Zm1.664-3.578v-2.031h2.2v2.031Zm0,9.422V-8.3h2.2V0Zm3.938-4.266a4.488,4.488,0,0,1,.539-2.117,3.7,3.7,0,0,1,1.527-1.562,4.533,4.533,0,0,1,2.207-.539,4.142,4.142,0,0,1,3.086,1.223,4.224,4.224,0,0,1,1.2,3.09,4.275,4.275,0,0,1-1.215,3.121A4.106,4.106,0,0,1,141.836.188a4.818,4.818,0,0,1-2.176-.516,3.537,3.537,0,0,1-1.574-1.512A5.037,5.037,0,0,1,137.547-4.266Zm2.25.117a2.749,2.749,0,0,0,.586,1.891,1.862,1.862,0,0,0,1.445.656,1.85,1.85,0,0,0,1.441-.656,2.787,2.787,0,0,0,.582-1.906,2.736,2.736,0,0,0-.582-1.875,1.85,1.85,0,0,0-1.441-.656,1.862,1.862,0,0,0-1.445.656A2.749,2.749,0,0,0,139.8-4.148Zm.922-5.164,1.078-2.336h2.461l-2.148,2.336ZM155.375,0h-2.2V-4.234a6.545,6.545,0,0,0-.141-1.738,1.219,1.219,0,0,0-.457-.613,1.306,1.306,0,0,0-.762-.219,1.76,1.76,0,0,0-1.023.313,1.575,1.575,0,0,0-.621.828,7.158,7.158,0,0,0-.168,1.906V0h-2.2V-8.3h2.039v1.219a3.322,3.322,0,0,1,2.734-1.406,3.294,3.294,0,0,1,1.328.262,2.225,2.225,0,0,1,.91.668,2.42,2.42,0,0,1,.43.922,6.857,6.857,0,0,1,.121,1.477Z" transform="translate(49.967 498.287)" fill="#fff"/>
        <path id="Path_1306968" data-name="Path 1306968" d="M8.492-4.211l2.242.711A5.029,5.029,0,0,1,9.02-.715,4.891,4.891,0,0,1,5.977.2a4.926,4.926,0,0,1-3.75-1.559A5.964,5.964,0,0,1,.758-5.625a6.261,6.261,0,0,1,1.477-4.441,5.063,5.063,0,0,1,3.883-1.582,4.764,4.764,0,0,1,3.414,1.242A4.518,4.518,0,0,1,10.7-8.3L8.414-7.75a2.428,2.428,0,0,0-.848-1.406A2.429,2.429,0,0,0,6-9.672a2.606,2.606,0,0,0-2.066.914A4.481,4.481,0,0,0,3.141-5.8,4.8,4.8,0,0,0,3.922-2.7a2.537,2.537,0,0,0,2.031.922,2.316,2.316,0,0,0,1.586-.586A3.4,3.4,0,0,0,8.492-4.211Zm3.7-.055a4.488,4.488,0,0,1,.539-2.117,3.7,3.7,0,0,1,1.527-1.562,4.533,4.533,0,0,1,2.207-.539,4.142,4.142,0,0,1,3.086,1.223,4.224,4.224,0,0,1,1.2,3.09,4.275,4.275,0,0,1-1.215,3.121A4.106,4.106,0,0,1,16.484.188a4.818,4.818,0,0,1-2.176-.516A3.537,3.537,0,0,1,12.734-1.84,5.037,5.037,0,0,1,12.2-4.266Zm2.25.117a2.749,2.749,0,0,0,.586,1.891,1.862,1.862,0,0,0,1.445.656,1.85,1.85,0,0,0,1.441-.656A2.787,2.787,0,0,0,18.5-4.164a2.736,2.736,0,0,0-.582-1.875A1.85,1.85,0,0,0,16.477-6.7a1.862,1.862,0,0,0-1.445.656A2.749,2.749,0,0,0,14.445-4.148ZM30.023,0h-2.2V-4.234a6.545,6.545,0,0,0-.141-1.738,1.219,1.219,0,0,0-.457-.613,1.306,1.306,0,0,0-.762-.219,1.76,1.76,0,0,0-1.023.313,1.575,1.575,0,0,0-.621.828,7.158,7.158,0,0,0-.168,1.906V0h-2.2V-8.3H24.5v1.219a3.322,3.322,0,0,1,2.734-1.406,3.294,3.294,0,0,1,1.328.262,2.225,2.225,0,0,1,.91.668,2.42,2.42,0,0,1,.43.922,6.857,6.857,0,0,1,.121,1.477Zm6.031-8.3v1.75h-1.5V-3.2A8.317,8.317,0,0,0,34.6-2.02a.482.482,0,0,0,.2.277.619.619,0,0,0,.371.109,2.84,2.84,0,0,0,.883-.211l.188,1.7A4.364,4.364,0,0,1,34.5.188a2.751,2.751,0,0,1-1.07-.2,1.562,1.562,0,0,1-.7-.516,2.035,2.035,0,0,1-.309-.855,10.641,10.641,0,0,1-.07-1.547V-6.547H31.344V-8.3h1.008V-9.945l2.2-1.281V-8.3ZM39.68,0h-2.2V-8.3h2.039v1.18a3.546,3.546,0,0,1,.941-1.1,1.732,1.732,0,0,1,.949-.266,2.786,2.786,0,0,1,1.445.414l-.68,1.914a1.926,1.926,0,0,0-1.031-.359,1.219,1.219,0,0,0-.781.254,1.736,1.736,0,0,0-.5.918,13.041,13.041,0,0,0-.184,2.781ZM43.3-4.266a4.488,4.488,0,0,1,.539-2.117,3.7,3.7,0,0,1,1.527-1.562,4.533,4.533,0,0,1,2.207-.539,4.142,4.142,0,0,1,3.086,1.223,4.224,4.224,0,0,1,1.2,3.09,4.275,4.275,0,0,1-1.215,3.121A4.106,4.106,0,0,1,47.586.188,4.818,4.818,0,0,1,45.41-.328,3.537,3.537,0,0,1,43.836-1.84,5.037,5.037,0,0,1,43.3-4.266Zm2.25.117a2.749,2.749,0,0,0,.586,1.891,1.862,1.862,0,0,0,1.445.656,1.85,1.85,0,0,0,1.441-.656A2.787,2.787,0,0,0,49.6-4.164a2.736,2.736,0,0,0-.582-1.875A1.85,1.85,0,0,0,47.578-6.7a1.862,1.862,0,0,0-1.445.656A2.749,2.749,0,0,0,45.547-4.148ZM53.578,0V-11.453h2.2V0Zm16.5,0H68.039V-1.219A3.294,3.294,0,0,1,66.84-.16a3.077,3.077,0,0,1-1.395.348A3.16,3.16,0,0,1,63-.965a4.688,4.688,0,0,1-1.02-3.215,4.633,4.633,0,0,1,.992-3.207,3.235,3.235,0,0,1,2.508-1.1,3.106,3.106,0,0,1,2.406,1.156v-4.125h2.2ZM64.219-4.328a3.8,3.8,0,0,0,.367,1.922,1.659,1.659,0,0,0,1.484.859,1.616,1.616,0,0,0,1.289-.645,2.975,2.975,0,0,0,.531-1.926,3.256,3.256,0,0,0-.516-2.059,1.632,1.632,0,0,0-1.32-.629,1.649,1.649,0,0,0-1.309.621A2.806,2.806,0,0,0,64.219-4.328ZM77.047-2.641l2.188.367A3.588,3.588,0,0,1,77.9-.441a3.913,3.913,0,0,1-2.277.629,3.712,3.712,0,0,1-3.2-1.414,4.751,4.751,0,0,1-.82-2.859,4.581,4.581,0,0,1,1.078-3.23,3.551,3.551,0,0,1,2.727-1.168,3.683,3.683,0,0,1,2.922,1.223,5.41,5.41,0,0,1,1.023,3.746h-5.5A2.221,2.221,0,0,0,74.383-2a1.662,1.662,0,0,0,1.266.543,1.344,1.344,0,0,0,.867-.281A1.737,1.737,0,0,0,77.047-2.641Zm.125-2.219a2.114,2.114,0,0,0-.492-1.449,1.51,1.51,0,0,0-1.141-.5,1.525,1.525,0,0,0-1.187.523,2.025,2.025,0,0,0-.461,1.422ZM92.82-5.844l-2.164.391a1.57,1.57,0,0,0-.5-.977,1.5,1.5,0,0,0-1-.328,1.64,1.64,0,0,0-1.309.566A2.9,2.9,0,0,0,87.359-4.3a3.357,3.357,0,0,0,.5,2.086,1.629,1.629,0,0,0,1.332.609,1.48,1.48,0,0,0,1.023-.355,2.138,2.138,0,0,0,.563-1.223l2.156.367A3.826,3.826,0,0,1,91.641-.57a3.99,3.99,0,0,1-2.555.758,3.8,3.8,0,0,1-2.9-1.148A4.453,4.453,0,0,1,85.1-4.141a4.463,4.463,0,0,1,1.086-3.2,3.857,3.857,0,0,1,2.938-1.145,4.007,4.007,0,0,1,2.41.652A3.614,3.614,0,0,1,92.82-5.844Zm3.3.078-1.992-.359a3.1,3.1,0,0,1,1.156-1.781,4.231,4.231,0,0,1,2.438-.578,5.253,5.253,0,0,1,2.188.348,2.182,2.182,0,0,1,1.012.883,4.527,4.527,0,0,1,.293,1.965L101.2-2.727a8.9,8.9,0,0,0,.105,1.613A4.709,4.709,0,0,0,101.7,0H99.523q-.086-.219-.211-.648-.055-.2-.078-.258a3.958,3.958,0,0,1-1.2.82,3.446,3.446,0,0,1-1.367.273,2.827,2.827,0,0,1-2.02-.7,2.311,2.311,0,0,1-.738-1.758,2.36,2.36,0,0,1,.336-1.254,2.195,2.195,0,0,1,.941-.844,7.358,7.358,0,0,1,1.746-.512,11.961,11.961,0,0,0,2.133-.539v-.219a1.137,1.137,0,0,0-.312-.9,1.873,1.873,0,0,0-1.18-.27,1.571,1.571,0,0,0-.914.23A1.6,1.6,0,0,0,96.125-5.766Zm2.938,1.781a13.722,13.722,0,0,1-1.336.336,4.024,4.024,0,0,0-1.2.383.916.916,0,0,0-.43.773,1.077,1.077,0,0,0,.344.8,1.2,1.2,0,0,0,.875.336,1.9,1.9,0,0,0,1.133-.391,1.375,1.375,0,0,0,.523-.727,4.335,4.335,0,0,0,.086-1.07ZM103.383,0V-11.453h2.2V0Zm4.445-9.422v-2.031h2.2v2.031Zm0,9.422V-8.3h2.2V0Zm12.055,0h-2.039V-1.219a3.294,3.294,0,0,1-1.2,1.059,3.077,3.077,0,0,1-1.395.348A3.16,3.16,0,0,1,112.8-.965a4.688,4.688,0,0,1-1.02-3.215,4.633,4.633,0,0,1,.992-3.207,3.235,3.235,0,0,1,2.508-1.1,3.106,3.106,0,0,1,2.406,1.156v-4.125h2.2Zm-5.859-4.328a3.8,3.8,0,0,0,.367,1.922,1.659,1.659,0,0,0,1.484.859,1.616,1.616,0,0,0,1.289-.645,2.975,2.975,0,0,0,.531-1.926,3.256,3.256,0,0,0-.516-2.059,1.632,1.632,0,0,0-1.32-.629,1.649,1.649,0,0,0-1.309.621A2.806,2.806,0,0,0,114.023-4.328Zm9.664-1.437L121.7-6.125a3.1,3.1,0,0,1,1.156-1.781,4.231,4.231,0,0,1,2.438-.578,5.253,5.253,0,0,1,2.188.348,2.182,2.182,0,0,1,1.012.883,4.527,4.527,0,0,1,.293,1.965l-.023,2.563a8.9,8.9,0,0,0,.105,1.613A4.709,4.709,0,0,0,129.258,0h-2.172q-.086-.219-.211-.648-.055-.2-.078-.258a3.958,3.958,0,0,1-1.2.82,3.446,3.446,0,0,1-1.367.273,2.827,2.827,0,0,1-2.02-.7,2.311,2.311,0,0,1-.738-1.758A2.36,2.36,0,0,1,121.8-3.52a2.195,2.195,0,0,1,.941-.844,7.358,7.358,0,0,1,1.746-.512,11.961,11.961,0,0,0,2.133-.539v-.219a1.137,1.137,0,0,0-.312-.9,1.873,1.873,0,0,0-1.18-.27,1.571,1.571,0,0,0-.914.23A1.6,1.6,0,0,0,123.688-5.766Zm2.938,1.781a13.722,13.722,0,0,1-1.336.336,4.024,4.024,0,0,0-1.2.383.916.916,0,0,0-.43.773,1.077,1.077,0,0,0,.344.8,1.2,1.2,0,0,0,.875.336,1.9,1.9,0,0,0,1.133-.391,1.375,1.375,0,0,0,.523-.727,4.335,4.335,0,0,0,.086-1.07ZM138.555,0h-2.039V-1.219a3.294,3.294,0,0,1-1.2,1.059,3.077,3.077,0,0,1-1.395.348,3.16,3.16,0,0,1-2.449-1.152,4.688,4.688,0,0,1-1.02-3.215,4.633,4.633,0,0,1,.992-3.207,3.235,3.235,0,0,1,2.508-1.1,3.106,3.106,0,0,1,2.406,1.156v-4.125h2.2ZM132.7-4.328a3.8,3.8,0,0,0,.367,1.922,1.659,1.659,0,0,0,1.484.859,1.616,1.616,0,0,0,1.289-.645,2.975,2.975,0,0,0,.531-1.926,3.256,3.256,0,0,0-.516-2.059,1.632,1.632,0,0,0-1.32-.629,1.649,1.649,0,0,0-1.309.621A2.806,2.806,0,0,0,132.7-4.328Z" transform="translate(61 570.724)" fill="#fff"/>
        <path id="Path_1306969" data-name="Path 1306969" d="M1.18,0V-11.453H9.031v1.938H3.492V-6.8H8.273v1.938H3.492V0Zm9.742-9.422v-2.031h2.2v2.031Zm0,9.422V-8.3h2.2V0ZM22.914,0h-2.2V-4.234a6.545,6.545,0,0,0-.141-1.738,1.219,1.219,0,0,0-.457-.613,1.306,1.306,0,0,0-.762-.219,1.76,1.76,0,0,0-1.023.313,1.575,1.575,0,0,0-.621.828,7.158,7.158,0,0,0-.168,1.906V0h-2.2V-8.3h2.039v1.219a3.322,3.322,0,0,1,2.734-1.406,3.294,3.294,0,0,1,1.328.262,2.225,2.225,0,0,1,.91.668,2.42,2.42,0,0,1,.43.922,6.857,6.857,0,0,1,.121,1.477Z" transform="translate(117.652 636.643)" fill="#fff"/>
      </g>
    </g>
    <g id="Group_1205086" data-name="Group 1205086" transform="translate(842.144 1882.609)">
      <g id="Group_1205085" data-name="Group 1205085" transform="translate(0 0)" clip-path="url(#clip-path)">
        <path id="Path_1306845" data-name="Path 1306845" d="M.5,66.395c26.093,12.514,81.524-21.333,131.232-2.667,3.117,1.171,6.292-1.578,6.292-5.491V.5S29.633.737,5.307.791C2.65.8.5,3.378.5,6.561V66.395" transform="translate(-0.226 -0.171)" fill="#fca01f"/>
        <path id="Path_1306846" data-name="Path 1306846" d="M.5,66.395c26.093,12.514,81.524-21.333,131.232-2.667,3.117,1.171,6.292-1.578,6.292-5.491V.5S29.633.737,5.307.791C2.65.8.5,3.378.5,6.561V66.395" transform="translate(-0.226 -0.171)" fill="none" stroke="#fff" stroke-miterlimit="10" stroke-width="1"/>
      </g>
    </g>
    <g id="Group_1205084" data-name="Group 1205084" transform="translate(857.902 1902.658)">
      <text id="Cronograma_" data-name="Cronograma " transform="translate(3.279 6)" fill="#12263f" font-size="16" font-family="Arial-BoldMT, Arial" font-weight="700"><tspan x="0" y="0">Cronograma </tspan></text>
      <text id="de_producción" data-name="de producción" transform="translate(-1.721 25)" fill="#12263f" font-size="16" font-family="Arial-BoldMT, Arial" font-weight="700"><tspan x="0" y="0">de producción</tspan></text>
    </g>
    <g id="Group_1205089" data-name="Group 1205089" transform="translate(901.267 1799.39)">
      <g id="Group_1205089-2" data-name="Group 1205089" transform="translate(-83 -5.687)" clip-path="url(#clip-path-2)">
        <path id="Path_1306847" data-name="Path 1306847" d="M.5,81.131c30.03,15.313,93.826-26.1,151.034-3.263,3.588,1.433,7.242-1.931,7.242-6.719V.5S34.029.79,6.032.856C2.974.863.5,4.022.5,7.916V81.131" transform="translate(-0.184 -0.098)" fill="#4f3987"/>
        <path id="Path_1306848" data-name="Path 1306848" d="M.5,81.131c30.03,15.313,93.826-26.1,151.034-3.263,3.588,1.433,7.242-1.931,7.242-6.719V.5S34.029.79,6.032.856C2.974.863.5,4.022.5,7.916V81.131" transform="translate(-0.184 -0.098)" fill="none" stroke="#fff" stroke-miterlimit="10" stroke-width="1"/>
      </g>
    </g>
    <g id="Group_1205090" data-name="Group 1205090" transform="translate(899.227 1593.39)">
      <g id="Group_1205089-3" data-name="Group 1205089" transform="translate(-83 -5.069)" clip-path="url(#clip-path-3)">
        <path id="Path_1306847-2" data-name="Path 1306847" d="M.5,79.957c30.03,15.09,93.826-25.723,151.034-3.216,3.588,1.412,7.242-1.9,7.242-6.622V.5S34.029.785,6.032.85C2.974.858.5,3.971.5,7.808V79.957" transform="translate(-0.184 -0.104)" fill="#4f3987"/>
        <path id="Path_1306848-2" data-name="Path 1306848" d="M.5,79.957c30.03,15.09,93.826-25.723,151.034-3.216,3.588,1.412,7.242-1.9,7.242-6.622V.5S34.029.785,6.032.85C2.974.858.5,3.971.5,7.808V79.957" transform="translate(-0.184 -0.104)" fill="none" stroke="#fff" stroke-miterlimit="10" stroke-width="1"/>
      </g>
    </g>
    <g id="Group_1205088" data-name="Group 1205088" transform="translate(825.181 1812.504)">
      <text id="de_diseño" data-name="de diseño" transform="translate(33 23)" fill="#fff" font-size="16" font-family="Arial-BoldMT, Arial" font-weight="700"><tspan x="0" y="0">de diseño</tspan></text>
      <text id="y_especificaciones" data-name="y especificaciones" transform="translate(0 39.642)" fill="#fff" font-size="16" font-family="Arial-BoldMT, Arial" font-weight="700"><tspan x="0" y="0">y especificaciones</tspan></text>
    </g>
    <path id="Path_1306972" data-name="Path 1306972" d="M1.156-11.453H5.383a8.253,8.253,0,0,1,2.18.219A3.83,3.83,0,0,1,9.289-10.18a5,5,0,0,1,1.094,1.855,8.452,8.452,0,0,1,.375,2.707,7.527,7.527,0,0,1-.352,2.438A5.05,5.05,0,0,1,9.18-1.156a4.065,4.065,0,0,1-1.625.914A7,7,0,0,1,5.508,0H1.156ZM3.469-9.516V-1.93H5.2a6.3,6.3,0,0,0,1.4-.109,2.134,2.134,0,0,0,.934-.477,2.425,2.425,0,0,0,.605-1.105,7.472,7.472,0,0,0,.234-2.1,6.842,6.842,0,0,0-.234-2.039,2.621,2.621,0,0,0-.656-1.109,2.2,2.2,0,0,0-1.07-.539,10.485,10.485,0,0,0-1.9-.109ZM12.2-4.266a4.488,4.488,0,0,1,.539-2.117,3.7,3.7,0,0,1,1.527-1.562,4.533,4.533,0,0,1,2.207-.539,4.142,4.142,0,0,1,3.086,1.223,4.224,4.224,0,0,1,1.2,3.09,4.275,4.275,0,0,1-1.215,3.121A4.106,4.106,0,0,1,16.484.188a4.818,4.818,0,0,1-2.176-.516A3.537,3.537,0,0,1,12.734-1.84,5.037,5.037,0,0,1,12.2-4.266Zm2.25.117a2.749,2.749,0,0,0,.586,1.891,1.862,1.862,0,0,0,1.445.656,1.85,1.85,0,0,0,1.441-.656A2.787,2.787,0,0,0,18.5-4.164a2.736,2.736,0,0,0-.582-1.875A1.85,1.85,0,0,0,16.477-6.7a1.862,1.862,0,0,0-1.445.656A2.749,2.749,0,0,0,14.445-4.148Zm15.266-1.7-2.164.391a1.57,1.57,0,0,0-.5-.977,1.5,1.5,0,0,0-1-.328,1.64,1.64,0,0,0-1.309.566A2.9,2.9,0,0,0,24.25-4.3a3.357,3.357,0,0,0,.5,2.086,1.629,1.629,0,0,0,1.332.609A1.48,1.48,0,0,0,27.1-1.957a2.138,2.138,0,0,0,.563-1.223l2.156.367A3.826,3.826,0,0,1,28.531-.57a3.99,3.99,0,0,1-2.555.758,3.8,3.8,0,0,1-2.9-1.148,4.453,4.453,0,0,1-1.082-3.18,4.463,4.463,0,0,1,1.086-3.2,3.857,3.857,0,0,1,2.938-1.145,4.007,4.007,0,0,1,2.41.652A3.614,3.614,0,0,1,29.711-5.844ZM36.836,0V-1.242A3.2,3.2,0,0,1,35.645-.2a3.34,3.34,0,0,1-1.559.383,3.047,3.047,0,0,1-1.5-.367,2.168,2.168,0,0,1-.961-1.031,4.6,4.6,0,0,1-.3-1.836V-8.3h2.2v3.813a10.572,10.572,0,0,0,.121,2.145,1.169,1.169,0,0,0,.441.625,1.357,1.357,0,0,0,.813.23,1.727,1.727,0,0,0,1.008-.309,1.57,1.57,0,0,0,.609-.766A8.887,8.887,0,0,0,36.68-4.8V-8.3h2.2V0Zm4.148-8.3h2.023v1.133a3.256,3.256,0,0,1,2.586-1.32,2.785,2.785,0,0,1,1.383.328,2.522,2.522,0,0,1,.961.992,3.833,3.833,0,0,1,1.18-.992,2.894,2.894,0,0,1,1.352-.328,3.01,3.01,0,0,1,1.547.371,2.273,2.273,0,0,1,.945,1.09A4.727,4.727,0,0,1,53.188-5.3V0h-2.2V-4.742a3.528,3.528,0,0,0-.227-1.594,1.04,1.04,0,0,0-.937-.469,1.5,1.5,0,0,0-.867.281,1.56,1.56,0,0,0-.586.824,5.93,5.93,0,0,0-.18,1.715V0H46V-4.547a6.307,6.307,0,0,0-.117-1.562,1,1,0,0,0-.363-.523,1.148,1.148,0,0,0-.668-.172,1.6,1.6,0,0,0-.914.273,1.5,1.5,0,0,0-.582.789,5.865,5.865,0,0,0-.176,1.711V0h-2.2Zm19.2,5.656,2.188.367A3.588,3.588,0,0,1,61.035-.441a3.913,3.913,0,0,1-2.277.629,3.712,3.712,0,0,1-3.2-1.414,4.751,4.751,0,0,1-.82-2.859,4.581,4.581,0,0,1,1.078-3.23,3.551,3.551,0,0,1,2.727-1.168,3.683,3.683,0,0,1,2.922,1.223,5.41,5.41,0,0,1,1.023,3.746h-5.5A2.221,2.221,0,0,0,57.516-2a1.662,1.662,0,0,0,1.266.543,1.344,1.344,0,0,0,.867-.281A1.737,1.737,0,0,0,60.18-2.641ZM60.3-4.859a2.114,2.114,0,0,0-.492-1.449,1.51,1.51,0,0,0-1.141-.5,1.525,1.525,0,0,0-1.187.523,2.025,2.025,0,0,0-.461,1.422ZM71.82,0h-2.2V-4.234a6.545,6.545,0,0,0-.141-1.738,1.219,1.219,0,0,0-.457-.613,1.306,1.306,0,0,0-.762-.219,1.76,1.76,0,0,0-1.023.313,1.574,1.574,0,0,0-.621.828,7.158,7.158,0,0,0-.168,1.906V0h-2.2V-8.3H66.3v1.219a3.322,3.322,0,0,1,2.734-1.406,3.294,3.294,0,0,1,1.328.262,2.225,2.225,0,0,1,.91.668,2.42,2.42,0,0,1,.43.922,6.857,6.857,0,0,1,.121,1.477Zm6.031-8.3v1.75h-1.5V-3.2a8.316,8.316,0,0,0,.043,1.184.482.482,0,0,0,.2.277.619.619,0,0,0,.371.109,2.84,2.84,0,0,0,.883-.211l.188,1.7A4.364,4.364,0,0,1,76.3.188a2.751,2.751,0,0,1-1.07-.2,1.562,1.562,0,0,1-.7-.516,2.035,2.035,0,0,1-.309-.855,10.641,10.641,0,0,1-.07-1.547V-6.547H73.141V-8.3h1.008V-9.945l2.2-1.281V-8.3Zm1.016,4.031a4.488,4.488,0,0,1,.539-2.117,3.7,3.7,0,0,1,1.527-1.562,4.533,4.533,0,0,1,2.207-.539,4.142,4.142,0,0,1,3.086,1.223,4.224,4.224,0,0,1,1.2,3.09,4.275,4.275,0,0,1-1.215,3.121A4.106,4.106,0,0,1,83.156.188,4.818,4.818,0,0,1,80.98-.328,3.537,3.537,0,0,1,79.406-1.84,5.037,5.037,0,0,1,78.867-4.266Zm2.25.117A2.749,2.749,0,0,0,81.7-2.258a1.862,1.862,0,0,0,1.445.656,1.85,1.85,0,0,0,1.441-.656,2.787,2.787,0,0,0,.582-1.906,2.736,2.736,0,0,0-.582-1.875A1.85,1.85,0,0,0,83.148-6.7a1.862,1.862,0,0,0-1.445.656A2.749,2.749,0,0,0,81.117-4.148Z" transform="translate(856.181 1818.504)" fill="#fff"/>
    <path id="Path_1306971" data-name="Path 1306971" d="M-56.625-11.453H-52.4a8.253,8.253,0,0,1,2.18.219,3.83,3.83,0,0,1,1.727,1.055A5,5,0,0,1-47.4-8.324a8.452,8.452,0,0,1,.375,2.707,7.527,7.527,0,0,1-.352,2.438A5.05,5.05,0,0,1-48.6-1.156a4.065,4.065,0,0,1-1.625.914A7,7,0,0,1-52.273,0h-4.352Zm2.313,1.938V-1.93h1.727a6.3,6.3,0,0,0,1.4-.109,2.134,2.134,0,0,0,.934-.477,2.425,2.425,0,0,0,.605-1.105,7.472,7.472,0,0,0,.234-2.1,6.842,6.842,0,0,0-.234-2.039A2.621,2.621,0,0,0-50.3-8.867a2.2,2.2,0,0,0-1.07-.539,10.485,10.485,0,0,0-1.9-.109Zm8.727,5.25a4.488,4.488,0,0,1,.539-2.117A3.7,3.7,0,0,1-43.52-7.945a4.533,4.533,0,0,1,2.207-.539,4.142,4.142,0,0,1,3.086,1.223,4.224,4.224,0,0,1,1.2,3.09,4.275,4.275,0,0,1-1.215,3.121A4.106,4.106,0,0,1-41.3.188a4.818,4.818,0,0,1-2.176-.516A3.537,3.537,0,0,1-45.047-1.84,5.037,5.037,0,0,1-45.586-4.266Zm2.25.117a2.749,2.749,0,0,0,.586,1.891A1.862,1.862,0,0,0-41.3-1.6a1.85,1.85,0,0,0,1.441-.656,2.787,2.787,0,0,0,.582-1.906,2.736,2.736,0,0,0-.582-1.875A1.85,1.85,0,0,0-41.3-6.7a1.862,1.862,0,0,0-1.445.656A2.749,2.749,0,0,0-43.336-4.148Zm15.266-1.7-2.164.391a1.57,1.57,0,0,0-.5-.977,1.5,1.5,0,0,0-1-.328,1.64,1.64,0,0,0-1.309.566A2.9,2.9,0,0,0-33.531-4.3a3.357,3.357,0,0,0,.5,2.086A1.629,1.629,0,0,0-31.7-1.6a1.48,1.48,0,0,0,1.023-.355,2.138,2.138,0,0,0,.563-1.223l2.156.367A3.826,3.826,0,0,1-29.25-.57,3.99,3.99,0,0,1-31.8.188a3.8,3.8,0,0,1-2.9-1.148,4.453,4.453,0,0,1-1.082-3.18A4.463,4.463,0,0,1-34.7-7.34a3.857,3.857,0,0,1,2.938-1.145,4.007,4.007,0,0,1,2.41.652A3.614,3.614,0,0,1-28.07-5.844ZM-20.945,0V-1.242A3.2,3.2,0,0,1-22.137-.2,3.34,3.34,0,0,1-23.7.188,3.047,3.047,0,0,1-25.2-.18a2.168,2.168,0,0,1-.961-1.031,4.6,4.6,0,0,1-.3-1.836V-8.3h2.2v3.813a10.573,10.573,0,0,0,.121,2.145,1.169,1.169,0,0,0,.441.625,1.357,1.357,0,0,0,.813.23,1.727,1.727,0,0,0,1.008-.309,1.57,1.57,0,0,0,.609-.766A8.887,8.887,0,0,0-21.1-4.8V-8.3h2.2V0ZM-16.8-8.3h2.023v1.133a3.256,3.256,0,0,1,2.586-1.32,2.785,2.785,0,0,1,1.383.328,2.522,2.522,0,0,1,.961.992,3.833,3.833,0,0,1,1.18-.992,2.894,2.894,0,0,1,1.352-.328,3.01,3.01,0,0,1,1.547.371,2.273,2.273,0,0,1,.945,1.09A4.728,4.728,0,0,1-4.594-5.3V0h-2.2V-4.742a3.528,3.528,0,0,0-.227-1.594A1.04,1.04,0,0,0-7.953-6.8a1.5,1.5,0,0,0-.867.281,1.56,1.56,0,0,0-.586.824,5.93,5.93,0,0,0-.18,1.715V0h-2.2V-4.547A6.307,6.307,0,0,0-11.9-6.109a1,1,0,0,0-.363-.523A1.148,1.148,0,0,0-12.93-6.8a1.6,1.6,0,0,0-.914.273,1.5,1.5,0,0,0-.582.789A5.865,5.865,0,0,0-14.6-4.031V0h-2.2ZM2.4-2.641l2.188.367A3.588,3.588,0,0,1,3.254-.441,3.913,3.913,0,0,1,.977.188a3.712,3.712,0,0,1-3.2-1.414,4.751,4.751,0,0,1-.82-2.859,4.581,4.581,0,0,1,1.078-3.23A3.551,3.551,0,0,1,.758-8.484,3.683,3.683,0,0,1,3.68-7.262,5.41,5.41,0,0,1,4.7-3.516H-.8A2.221,2.221,0,0,0-.266-2,1.662,1.662,0,0,0,1-1.453a1.344,1.344,0,0,0,.867-.281A1.737,1.737,0,0,0,2.4-2.641Zm.125-2.219a2.114,2.114,0,0,0-.492-1.449A1.51,1.51,0,0,0,.891-6.8,1.525,1.525,0,0,0-.3-6.281,2.025,2.025,0,0,0-.758-4.859ZM14.039,0h-2.2V-4.234A6.545,6.545,0,0,0,11.7-5.973a1.219,1.219,0,0,0-.457-.613,1.306,1.306,0,0,0-.762-.219,1.76,1.76,0,0,0-1.023.313,1.575,1.575,0,0,0-.621.828,7.158,7.158,0,0,0-.168,1.906V0h-2.2V-8.3H8.516v1.219A3.322,3.322,0,0,1,11.25-8.484a3.294,3.294,0,0,1,1.328.262,2.225,2.225,0,0,1,.91.668,2.42,2.42,0,0,1,.43.922,6.857,6.857,0,0,1,.121,1.477ZM20.07-8.3v1.75h-1.5V-3.2a8.317,8.317,0,0,0,.043,1.184.482.482,0,0,0,.2.277.619.619,0,0,0,.371.109,2.84,2.84,0,0,0,.883-.211l.188,1.7a4.364,4.364,0,0,1-1.734.328,2.751,2.751,0,0,1-1.07-.2,1.562,1.562,0,0,1-.7-.516,2.035,2.035,0,0,1-.309-.855,10.641,10.641,0,0,1-.07-1.547V-6.547H15.359V-8.3h1.008V-9.945l2.2-1.281V-8.3Zm1.016,4.031a4.488,4.488,0,0,1,.539-2.117,3.7,3.7,0,0,1,1.527-1.562,4.533,4.533,0,0,1,2.207-.539,4.142,4.142,0,0,1,3.086,1.223,4.224,4.224,0,0,1,1.2,3.09,4.275,4.275,0,0,1-1.215,3.121A4.106,4.106,0,0,1,25.375.188,4.818,4.818,0,0,1,23.2-.328,3.537,3.537,0,0,1,21.625-1.84,5.037,5.037,0,0,1,21.086-4.266Zm2.25.117a2.749,2.749,0,0,0,.586,1.891,1.862,1.862,0,0,0,1.445.656,1.85,1.85,0,0,0,1.441-.656,2.787,2.787,0,0,0,.582-1.906,2.736,2.736,0,0,0-.582-1.875A1.85,1.85,0,0,0,25.367-6.7a1.862,1.862,0,0,0-1.445.656A2.749,2.749,0,0,0,23.336-4.148ZM43.422,0H41.383V-1.219a3.294,3.294,0,0,1-1.2,1.059,3.077,3.077,0,0,1-1.395.348A3.16,3.16,0,0,1,36.34-.965,4.688,4.688,0,0,1,35.32-4.18a4.633,4.633,0,0,1,.992-3.207,3.235,3.235,0,0,1,2.508-1.1,3.106,3.106,0,0,1,2.406,1.156v-4.125h2.2ZM37.563-4.328a3.8,3.8,0,0,0,.367,1.922,1.659,1.659,0,0,0,1.484.859A1.616,1.616,0,0,0,40.7-2.191a2.975,2.975,0,0,0,.531-1.926,3.256,3.256,0,0,0-.516-2.059A1.632,1.632,0,0,0,39.4-6.8a1.649,1.649,0,0,0-1.309.621A2.806,2.806,0,0,0,37.563-4.328ZM50.391-2.641l2.188.367A3.588,3.588,0,0,1,51.246-.441a3.913,3.913,0,0,1-2.277.629,3.712,3.712,0,0,1-3.2-1.414,4.751,4.751,0,0,1-.82-2.859,4.581,4.581,0,0,1,1.078-3.23A3.551,3.551,0,0,1,48.75-8.484a3.683,3.683,0,0,1,2.922,1.223A5.41,5.41,0,0,1,52.7-3.516H47.2A2.221,2.221,0,0,0,47.727-2a1.662,1.662,0,0,0,1.266.543,1.344,1.344,0,0,0,.867-.281A1.737,1.737,0,0,0,50.391-2.641Zm.125-2.219a2.114,2.114,0,0,0-.492-1.449,1.51,1.51,0,0,0-1.141-.5,1.525,1.525,0,0,0-1.187.523,2.025,2.025,0,0,0-.461,1.422ZM-50.984,15h-2.2V6.7h2.039v1.18a3.546,3.546,0,0,1,.941-1.1,1.732,1.732,0,0,1,.949-.266A2.786,2.786,0,0,1-47.8,6.93l-.68,1.914a1.926,1.926,0,0,0-1.031-.359,1.219,1.219,0,0,0-.781.254,1.736,1.736,0,0,0-.5.918,13.041,13.041,0,0,0-.184,2.781Zm8.93-2.641,2.188.367A3.588,3.588,0,0,1-41.2,14.559a3.913,3.913,0,0,1-2.277.629,3.712,3.712,0,0,1-3.2-1.414,4.751,4.751,0,0,1-.82-2.859,4.581,4.581,0,0,1,1.078-3.23A3.551,3.551,0,0,1-43.7,6.516a3.683,3.683,0,0,1,2.922,1.223,5.41,5.41,0,0,1,1.023,3.746h-5.5A2.221,2.221,0,0,0-44.719,13a1.662,1.662,0,0,0,1.266.543,1.344,1.344,0,0,0,.867-.281A1.737,1.737,0,0,0-42.055,12.359Zm.125-2.219a2.114,2.114,0,0,0-.492-1.449,1.51,1.51,0,0,0-1.141-.5,1.525,1.525,0,0,0-1.187.523,2.025,2.025,0,0,0-.461,1.422Zm9.391,8.016V13.984a3.113,3.113,0,0,1-1.07.879,3.019,3.019,0,0,1-1.383.324,2.936,2.936,0,0,1-2.328-1.062A4.961,4.961,0,0,1-38.4,10.758a4.492,4.492,0,0,1,1.012-3.121,3.246,3.246,0,0,1,2.512-1.121,2.806,2.806,0,0,1,1.434.352A3.282,3.282,0,0,1-32.367,7.93V6.7h2.023V18.156Zm.07-7.406a2.907,2.907,0,0,0-.52-1.895,1.627,1.627,0,0,0-1.3-.621,1.675,1.675,0,0,0-1.332.633,3.081,3.081,0,0,0-.535,2.008,3.03,3.03,0,0,0,.516,1.973,1.609,1.609,0,0,0,1.273.605,1.7,1.7,0,0,0,1.328-.68A3.084,3.084,0,0,0-32.469,10.75ZM-22.727,15V13.758A3.2,3.2,0,0,1-23.918,14.8a3.34,3.34,0,0,1-1.559.383,3.047,3.047,0,0,1-1.5-.367,2.168,2.168,0,0,1-.961-1.031,4.6,4.6,0,0,1-.3-1.836V6.7h2.2v3.813a10.573,10.573,0,0,0,.121,2.145,1.169,1.169,0,0,0,.441.625,1.357,1.357,0,0,0,.813.23,1.727,1.727,0,0,0,1.008-.309,1.57,1.57,0,0,0,.609-.766,8.887,8.887,0,0,0,.164-2.238V6.7h2.2V15Zm4.313-9.422V3.547h2.2V5.578Zm0,9.422V6.7h2.2V15Zm3.672-2.367,2.2-.336a1.614,1.614,0,0,0,.57.973,1.927,1.927,0,0,0,1.2.332,2.172,2.172,0,0,0,1.281-.312A.7.7,0,0,0-9.2,12.7a.576.576,0,0,0-.156-.414A1.749,1.749,0,0,0-10.086,12a11.843,11.843,0,0,1-3.367-1.07,2.137,2.137,0,0,1-.984-1.867,2.3,2.3,0,0,1,.852-1.812,3.977,3.977,0,0,1,2.641-.734,4.607,4.607,0,0,1,2.531.555A2.835,2.835,0,0,1-7.273,8.711l-2.07.383a1.28,1.28,0,0,0-.5-.742,1.843,1.843,0,0,0-1.059-.258,2.385,2.385,0,0,0-1.242.242.52.52,0,0,0-.25.445.485.485,0,0,0,.219.4,8.236,8.236,0,0,0,2.051.617,6.105,6.105,0,0,1,2.449.977,2.03,2.03,0,0,1,.688,1.633,2.506,2.506,0,0,1-.953,1.961,4.219,4.219,0,0,1-2.82.82,4.628,4.628,0,0,1-2.684-.687A3.168,3.168,0,0,1-14.742,12.633ZM-5.07,5.578V3.547h2.2V5.578Zm0,9.422V6.7h2.2V15ZM3.18,6.7v1.75H1.68V11.8a8.317,8.317,0,0,0,.043,1.184.482.482,0,0,0,.2.277.619.619,0,0,0,.371.109,2.84,2.84,0,0,0,.883-.211l.188,1.7a4.364,4.364,0,0,1-1.734.328,2.751,2.751,0,0,1-1.07-.2,1.562,1.562,0,0,1-.7-.516,2.035,2.035,0,0,1-.309-.855,10.641,10.641,0,0,1-.07-1.547V8.453H-1.531V6.7H-.523V5.055l2.2-1.281V6.7ZM4.2,10.734a4.488,4.488,0,0,1,.539-2.117A3.7,3.7,0,0,1,6.262,7.055a4.533,4.533,0,0,1,2.207-.539,4.142,4.142,0,0,1,3.086,1.223,4.224,4.224,0,0,1,1.2,3.09,4.275,4.275,0,0,1-1.215,3.121,4.106,4.106,0,0,1-3.059,1.238,4.818,4.818,0,0,1-2.176-.516A3.537,3.537,0,0,1,4.734,13.16,5.037,5.037,0,0,1,4.2,10.734Zm2.25.117a2.749,2.749,0,0,0,.586,1.891,1.915,1.915,0,0,0,2.887,0,2.787,2.787,0,0,0,.582-1.906,2.736,2.736,0,0,0-.582-1.875,1.915,1.915,0,0,0-2.887,0A2.749,2.749,0,0,0,6.445,10.852ZM13.7,12.633l2.2-.336a1.614,1.614,0,0,0,.57.973,1.927,1.927,0,0,0,1.2.332,2.172,2.172,0,0,0,1.281-.312.7.7,0,0,0,.289-.586.576.576,0,0,0-.156-.414A1.749,1.749,0,0,0,18.359,12a11.843,11.843,0,0,1-3.367-1.07,2.137,2.137,0,0,1-.984-1.867,2.3,2.3,0,0,1,.852-1.812A3.977,3.977,0,0,1,17.5,6.516a4.607,4.607,0,0,1,2.531.555,2.835,2.835,0,0,1,1.141,1.641l-2.07.383a1.28,1.28,0,0,0-.5-.742,1.843,1.843,0,0,0-1.059-.258,2.385,2.385,0,0,0-1.242.242.52.52,0,0,0-.25.445.485.485,0,0,0,.219.4,8.236,8.236,0,0,0,2.051.617,6.105,6.105,0,0,1,2.449.977,2.03,2.03,0,0,1,.688,1.633,2.506,2.506,0,0,1-.953,1.961,4.219,4.219,0,0,1-2.82.82A4.628,4.628,0,0,1,15,14.5,3.168,3.168,0,0,1,13.7,12.633ZM35.43,15H33.391V13.781a3.294,3.294,0,0,1-1.2,1.059,3.077,3.077,0,0,1-1.395.348,3.16,3.16,0,0,1-2.449-1.152,4.688,4.688,0,0,1-1.02-3.215,4.633,4.633,0,0,1,.992-3.207,3.235,3.235,0,0,1,2.508-1.1,3.106,3.106,0,0,1,2.406,1.156V3.547h2.2ZM29.57,10.672a3.8,3.8,0,0,0,.367,1.922,1.659,1.659,0,0,0,1.484.859,1.616,1.616,0,0,0,1.289-.645,2.975,2.975,0,0,0,.531-1.926,3.256,3.256,0,0,0-.516-2.059,1.632,1.632,0,0,0-1.32-.629,1.649,1.649,0,0,0-1.309.621A2.806,2.806,0,0,0,29.57,10.672ZM42.4,12.359l2.188.367a3.588,3.588,0,0,1-1.332,1.832,3.913,3.913,0,0,1-2.277.629,3.712,3.712,0,0,1-3.2-1.414,4.751,4.751,0,0,1-.82-2.859,4.581,4.581,0,0,1,1.078-3.23,3.551,3.551,0,0,1,2.727-1.168A3.683,3.683,0,0,1,43.68,7.738,5.41,5.41,0,0,1,44.7,11.484H39.2A2.221,2.221,0,0,0,39.734,13,1.662,1.662,0,0,0,41,13.547a1.344,1.344,0,0,0,.867-.281A1.737,1.737,0,0,0,42.4,12.359Zm.125-2.219a2.114,2.114,0,0,0-.492-1.449,1.584,1.584,0,0,0-2.328.027,2.025,2.025,0,0,0-.461,1.422ZM46.492,15V3.547h2.2V15Zm-63.453,9.156-2.164.391a1.57,1.57,0,0,0-.5-.977,1.5,1.5,0,0,0-1-.328,1.64,1.64,0,0,0-1.309.566,2.9,2.9,0,0,0-.488,1.895,3.357,3.357,0,0,0,.5,2.086,1.629,1.629,0,0,0,1.332.609,1.48,1.48,0,0,0,1.023-.355,2.138,2.138,0,0,0,.563-1.223l2.156.367a3.826,3.826,0,0,1-1.289,2.242,3.99,3.99,0,0,1-2.555.758,3.8,3.8,0,0,1-2.9-1.148,4.453,4.453,0,0,1-1.082-3.18,4.463,4.463,0,0,1,1.086-3.2,3.857,3.857,0,0,1,2.938-1.145,4.007,4.007,0,0,1,2.41.652A3.614,3.614,0,0,1-16.961,24.156ZM-15.3,30V18.547h2.2V30Zm4.445-9.422V18.547h2.2v2.031Zm0,9.422V21.7h2.2V30Zm9.25-2.641,2.188.367A3.588,3.588,0,0,1-.746,29.559a3.913,3.913,0,0,1-2.277.629,3.712,3.712,0,0,1-3.2-1.414,4.751,4.751,0,0,1-.82-2.859,4.581,4.581,0,0,1,1.078-3.23,3.551,3.551,0,0,1,2.727-1.168A3.683,3.683,0,0,1-.32,22.738,5.41,5.41,0,0,1,.7,26.484H-4.8A2.221,2.221,0,0,0-4.266,28,1.662,1.662,0,0,0-3,28.547a1.344,1.344,0,0,0,.867-.281A1.737,1.737,0,0,0-1.6,27.359Zm.125-2.219a2.114,2.114,0,0,0-.492-1.449,1.51,1.51,0,0,0-1.141-.5,1.525,1.525,0,0,0-1.187.523,2.025,2.025,0,0,0-.461,1.422ZM10.039,30h-2.2V25.766A6.545,6.545,0,0,0,7.7,24.027a1.219,1.219,0,0,0-.457-.613,1.306,1.306,0,0,0-.762-.219,1.76,1.76,0,0,0-1.023.313,1.575,1.575,0,0,0-.621.828,7.158,7.158,0,0,0-.168,1.906V30h-2.2V21.7H4.516v1.219a3.4,3.4,0,0,1,4.063-1.145,2.225,2.225,0,0,1,.91.668,2.42,2.42,0,0,1,.43.922,6.857,6.857,0,0,1,.121,1.477Zm6.031-8.3v1.75h-1.5V26.8a8.317,8.317,0,0,0,.043,1.184.482.482,0,0,0,.2.277.619.619,0,0,0,.371.109,2.84,2.84,0,0,0,.883-.211l.188,1.7a4.364,4.364,0,0,1-1.734.328,2.751,2.751,0,0,1-1.07-.2,1.562,1.562,0,0,1-.7-.516,2.035,2.035,0,0,1-.309-.855,10.641,10.641,0,0,1-.07-1.547V23.453H11.359V21.7h1.008V20.055l2.2-1.281V21.7ZM22.4,27.359l2.188.367a3.588,3.588,0,0,1-1.332,1.832,3.913,3.913,0,0,1-2.277.629,3.712,3.712,0,0,1-3.2-1.414,4.751,4.751,0,0,1-.82-2.859,4.581,4.581,0,0,1,1.078-3.23,3.551,3.551,0,0,1,2.727-1.168,3.683,3.683,0,0,1,2.922,1.223A5.41,5.41,0,0,1,24.7,26.484H19.2A2.221,2.221,0,0,0,19.734,28,1.662,1.662,0,0,0,21,28.547a1.344,1.344,0,0,0,.867-.281A1.737,1.737,0,0,0,22.4,27.359Zm.125-2.219a2.114,2.114,0,0,0-.492-1.449,1.584,1.584,0,0,0-2.328.027,2.025,2.025,0,0,0-.461,1.422Z" transform="translate(897.721 1614.796)" fill="#fff"/>
  </g>
</svg>
